<?xml version="1.0" encoding="UTF-8"?><svg id="Layer_1" xmlns="http://www.w3.org/2000/svg" viewBox="0 0 160 160"><path d="m50.97,83.87c0,3.2,2.61,5.81,5.81,5.81s5.81-2.61,5.81-5.81-2.61-5.81-5.81-5.81-5.81,2.61-5.81,5.81Zm5.81-1.94c1.07,0,1.94.87,1.94,1.94s-.87,1.94-1.94,1.94-1.94-.87-1.94-1.94.87-1.94,1.94-1.94Z"/><path d="m97.42,120.65h3.87v3.87h-3.87v-3.87Z"/><path d="m105.32,120.65h3.87v3.87h-3.87v-3.87Z"/><path d="m72.26,56.77c4.37,0,8.53-1.37,12.05-3.97,2.08-1.54,3.83-3.43,5.16-5.58,2.98,5.81,8.96,9.54,15.69,9.54s12.71-3.73,15.69-9.54c1.34,2.15,3.08,4.04,5.16,5.58,3.51,2.59,7.68,3.97,12.05,3.97h1.94v-29.03h-1.94c-4.37,0-8.53,1.37-12.05,3.97-2.08,1.54-3.83,3.43-5.16,5.58-2.99-5.81-8.96-9.54-15.69-9.54s-12.71,3.73-15.69,9.54c-1.34-2.15-3.08-4.04-5.16-5.58-2.99-2.21-6.45-3.53-10.11-3.87v-3.97c0-2.13-1.74-3.87-3.87-3.87h-27.1c-2.13,0-3.87,1.74-3.87,3.87v7.74c0,2.13,1.74,3.87,3.87,3.87v33.55c-13.95,5.53-23.23,19.1-23.23,34.2,0,20.28,16.5,36.77,36.77,36.77,18.3,0,33.52-13.44,36.31-30.97h4.33c0,2.13,1.74,3.87,3.87,3.87h32.9c3.2,0,5.81-2.61,5.81-5.81v-7.74c0-3.2-2.61-5.81-5.81-5.81h-32.9c-2.13,0-3.87,1.74-3.87,3.87h-4.33c-2.03-12.69-10.63-23.58-22.76-28.39v-12.26h1.94Zm63.87-3.98c-1.34-.16-2.64-.47-3.87-.94v-19.2c1.23-.46,2.53-.78,3.87-.94v21.07Zm-7.74-18.05v15.02c-2.54-1.85-4.54-4.43-5.69-7.51,1.15-3.08,3.15-5.66,5.69-7.51h0Zm-21.29-3c1.36.19,2.66.57,3.87,1.13v18.75c-1.21.56-2.51.94-3.87,1.13v-21.02Zm-3.87,21.02c-1.36-.19-2.66-.57-3.87-1.13v-18.75c1.21-.56,2.51-.94,3.87-1.13v21.02Zm15.11-11.42l.28.91-.28.91c-.69,2.25-1.91,4.22-3.5,5.78v-13.39c1.59,1.56,2.81,3.53,3.5,5.78h0Zm-26.36,0c.69-2.25,1.91-4.22,3.5-5.78v13.39c-1.59-1.57-2.81-3.53-3.5-5.78l-.28-.91.28-.91Zm9.31,56.07h32.9c1.07,0,1.94.87,1.94,1.94v7.74c0,1.07-.87,1.94-1.94,1.94h-32.9v-11.61Zm-54.19-54.19h19.36v4.91c-1.14-.66-2.46-1.04-3.87-1.04-4.27,0-7.74,3.47-7.74,7.74s3.47,7.74,7.74,7.74c1.41,0,2.73-.38,3.87-1.04v37.82c0,5.34-4.34,9.68-9.68,9.68s-9.68-4.34-9.68-9.68v-25.49c.61.21,1.26.33,1.94.33,3.2,0,5.81-2.61,5.81-5.81s-2.61-5.81-5.81-5.81c-.68,0-1.33.12-1.94.33v-19.69Zm19.36,11.61c0,2.13-1.74,3.87-3.87,3.87s-3.87-1.74-3.87-3.87,1.74-3.87,3.87-3.87,3.87,1.74,3.87,3.87Zm-19.36,13.55c0-1.07.87-1.94,1.94-1.94s1.94.87,1.94,1.94-.87,1.94-1.94,1.94-1.94-.87-1.94-1.94Zm9.68,44.52c7.47,0,13.55-6.08,13.55-13.55v-17.33c7.14,4.59,11.61,12.6,11.61,21.2,0,13.87-11.29,25.16-25.16,25.16s-25.16-11.29-25.16-25.16c0-8.6,4.47-16.61,11.61-21.2v17.33c0,7.47,6.08,13.55,13.55,13.55h0Zm13.55-60v-17.42c2.1,0,3.81-1.68,3.87-3.76,1.34.16,2.64.48,3.88.94v19.19c-1.81.68-3.77,1.05-5.81,1.05h-1.94Zm17.3-10.64c-1.15,3.08-3.15,5.66-5.69,7.51v-15.02c2.53,1.85,4.54,4.43,5.69,7.51h0Zm-44.4-18.39h27.1v7.74s0,0,0,0h-27.1v-7.74Zm23.23,11.61v3.87h-19.36v-3.87h19.36Zm30.97,65.81v3.87h-3.92c.03-.64.05-1.29.05-1.94s-.02-1.29-.05-1.94h3.92Zm-7.74,1.94c0,18.14-14.76,32.9-32.9,32.9s-32.9-14.76-32.9-32.9c0-12.99,7.67-24.71,19.36-29.99v4.31c-4.41,2.33-8.15,5.75-10.87,9.96-3.02,4.68-4.62,10.12-4.62,15.72,0,16.01,13.02,29.03,29.03,29.03s29.03-13.02,29.03-29.03c0-5.6-1.6-11.03-4.62-15.72-2.72-4.21-6.46-7.63-10.87-9.96v-4.31c11.68,5.28,19.36,17,19.36,29.99h0Z"/><path d="m113.23,120.65h3.87v3.87h-3.87v-3.87Z"/></svg>