<?xml version="1.0" encoding="UTF-8"?><svg id="Layer_1" xmlns="http://www.w3.org/2000/svg" viewBox="0 0 200 85"><path d="m45.22,35.27c0,1.07.11,1.85.34,2.33s.64.81,1.27.98c.62.17,1.62.26,3,.26h0c.07,0,.1.1.1.31s-.03.31-.1.31h0c-1.03,0-1.85-.02-2.43-.05h0l-3.62-.05-3.47.05c-.62.03-1.46.05-2.53.05h0c-.1,0-.16-.1-.16-.31s.05-.31.16-.31h0c1.34,0,2.34-.09,2.97-.26.64-.17,1.07-.51,1.32-1.01.24-.5.36-1.27.36-2.3h0V11.34c0-1.03-.12-1.79-.36-2.28-.24-.48-.68-.82-1.32-1.01s-1.63-.28-2.97-.28h0c-.1,0-.16-.1-.16-.31s.05-.31.16-.31h0l2.53.05c1.45.07,2.6.1,3.47.1h0c.96,0,2.17-.03,3.62-.1h0l2.43-.05c.07,0,.1.1.1.31s-.03.31-.1.31h0c-1.34,0-2.34.1-2.97.31s-1.07.56-1.3,1.06c-.23.5-.34,1.27-.34,2.3h0v23.84h0Zm22.49,4.4c-1,0-2.12-.05-3.36-.16h0c-.48-.03-1.07-.07-1.78-.1s-1.49-.05-2.35-.05h0l-3.41.05c-.62.03-1.48.05-2.59.05h0c-.07,0-.1-.1-.1-.31s.03-.31.1-.31h0c1.34,0,2.34-.09,2.97-.26.64-.17,1.07-.51,1.32-1.01s.36-1.27.36-2.3h0V11.34c0-1.03-.11-1.79-.34-2.28-.23-.48-.65-.82-1.3-1.01-.64-.19-1.63-.28-2.97-.28h0c-.07,0-.1-.1-.1-.31s.03-.31.1-.31h0l2.53.05c1.45.07,2.59.1,3.41.1h0c1.21,0,2.43-.05,3.67-.16h0c1.52-.07,2.55-.1,3.1-.1h0c3.62,0,6.83.69,9.62,2.07s4.96,3.26,6.49,5.64,2.3,5.05,2.3,8.02h0c0,3.35-.8,6.3-2.41,8.87-1.6,2.57-3.75,4.55-6.44,5.95-2.69,1.4-5.64,2.09-8.84,2.09h0Zm-.52-.67c2.9,0,5.46-.59,7.71-1.76,2.24-1.17,3.99-2.9,5.25-5.17,1.26-2.28,1.89-5,1.89-8.17h0c0-3.03-.59-5.77-1.78-8.22-1.19-2.45-2.9-4.39-5.12-5.82-2.23-1.43-4.79-2.15-7.67-2.15h0c-1.52,0-2.68.09-3.49.26s-1.41.53-1.78,1.06-.57,1.34-.57,2.41h0v23.27c0,1.03.16,1.86.46,2.48s.86,1.07,1.66,1.37c.79.3,1.95.44,3.46.44h-.01Zm41.98-6.41c0-.1.1-.16.28-.16s.28.05.28.16h0c-.24,2.48-.36,4.51-.36,6.11h0c0,.28-.05.47-.16.59s-.31.18-.62.18h-18.82c-.07,0-.1-.1-.1-.31s.03-.31.1-.31h0c1.17,0,2.03-.09,2.59-.26.55-.17.92-.51,1.12-1.01.19-.5.28-1.27.28-2.3h0v-15.82c0-1.03-.1-1.79-.28-2.28-.19-.48-.56-.82-1.12-1.01-.55-.19-1.42-.28-2.59-.28h0c-.07,0-.1-.1-.1-.31s.03-.31.1-.31h17.89c.34,0,.52.14.52.41h0l.05,3.21c.03.65.05,1.48.05,2.48h0c0,.1-.1.16-.31.16s-.31-.05-.31-.16h0c0-1.62-.46-2.93-1.4-3.93-.93-1-2.16-1.5-3.67-1.5h-1.76c-1.31,0-2.27.1-2.87.28-.6.19-1.02.53-1.24,1.01-.23.48-.34,1.24-.34,2.28h0v7.08c3.51-.03,5.9-.12,7.14-.26,1.24-.14,1.93-.2,2.07-.2h0c.17,0,.26.36.26,1.09h0c0,.76-.09,1.14-.26,1.14h0c-.14,0-.83-.1-2.07-.31s-3.62-.33-7.14-.36h0v7.39c0,1,.11,1.75.34,2.25s.64.85,1.27,1.03,1.57.28,2.84.28h3c1.34,0,2.5-.56,3.47-1.68.96-1.12,1.59-2.58,1.86-4.37h0Zm23.01-16.91l.05,3.21c.03.65.05,1.48.05,2.48h0c0,.1-.1.16-.31.16s-.31-.05-.31-.16h0c0-1.62-.46-2.93-1.4-3.93-.93-1-2.16-1.5-3.67-1.5h-1.76c-1.31,0-2.27.1-2.87.28-.6.19-1.02.53-1.24,1.01-.23.48-.34,1.24-.34,2.28h0v7.71c3.51-.03,5.9-.13,7.14-.28,1.24-.16,1.93-.23,2.07-.23h0c.17,0,.26.36.26,1.09h0c0,.76-.09,1.14-.26,1.14h0c-.14,0-.83-.1-2.07-.28-1.24-.19-3.62-.3-7.14-.34h0v6.77c0,1.1.13,1.91.39,2.41s.74.85,1.45,1.06c.71.2,1.84.31,3.39.31h0c.1,0,.16.1.16.31s-.05.31-.16.31h0c-1.21,0-2.14-.02-2.79-.05h0l-3.78-.05c-1.17,0-2.05.02-2.64.05h0l-2.64.05c-.07,0-.1-.1-.1-.31s.03-.31.1-.31h0c1.17,0,2.03-.09,2.59-.26.55-.17.92-.51,1.12-1.01.19-.5.28-1.27.28-2.3h0v-15.82c0-1.03-.1-1.79-.28-2.28-.19-.48-.56-.82-1.12-1.01-.55-.19-1.42-.28-2.59-.28h0c-.07,0-.1-.1-.1-.31s.03-.31.1-.31h17.89c.35,0,.52.14.52.42h0Zm10.81,19.6c0,1.07.1,1.85.28,2.33s.55.81,1.09.98c.53.17,1.41.26,2.61.26h0c.1,0,.16.1.16.31s-.05.31-.16.31h0c-.93,0-1.66-.02-2.17-.05h0l-3.21-.05-3.05.05c-.55.03-1.31.05-2.28.05h0c-.07,0-.1-.1-.1-.31s.03-.31.1-.31h0c1.21,0,2.09-.09,2.64-.26.55-.17.92-.51,1.12-1.01.19-.5.28-1.27.28-2.3h0v-15.82c0-1.03-.1-1.79-.28-2.28-.19-.48-.57-.82-1.14-1.01-.57-.19-1.44-.28-2.61-.28h0c-.07,0-.1-.1-.1-.31s.03-.31.1-.31h0l2.28.05c1.31.07,2.33.1,3.05.1h0c.86,0,1.95-.03,3.26-.1h0l2.12-.05c.1,0,.16.1.16.31s-.05.31-.16.31h0c-1.14,0-1.99.1-2.53.31-.55.2-.93.56-1.14,1.06-.2.5-.31,1.27-.31,2.3h0v15.72h0Zm33.92-20.01c.07,0,.1.1.1.31s-.03.31-.1.31h0c-1.28,0-2.17.35-2.69,1.06-.52.71-.77,1.94-.77,3.69h0v19.39c0,.07-.09.12-.26.16s-.29.02-.36-.05h0l-16.65-20.64-.88-1.03v15.62c0,1.76.25,2.99.75,3.69.5.71,1.37,1.06,2.61,1.06h0c.07,0,.1.1.1.31s-.03.31-.1.31h0c-.76,0-1.32-.02-1.71-.05h0l-2.12-.05-2.17.05c-.41.03-1,.05-1.76.05h0c-.1,0-.16-.1-.16-.31s.05-.31.16-.31h0c1.28,0,2.16-.35,2.64-1.06.48-.71.73-1.94.73-3.69h0v-16.64c-1.14-1.03-2.22-1.55-3.26-1.55h0c-.07,0-.1-.1-.1-.31s.03-.31.1-.31h0l2.9.05,2.22-.05c.28,0,.47.06.59.18s.3.39.55.8h0c.38.62.77,1.19,1.19,1.71h0l13.96,17.53v-14.84c0-1.76-.24-2.99-.73-3.69s-1.34-1.06-2.59-1.06h0c-.1,0-.16-.1-.16-.31s.05-.31.16-.31h0l1.71.05c.83.07,1.53.1,2.12.1h0c.55,0,1.28-.03,2.17-.1h0l1.81-.05h0Zm23.01,17.32c0-.1.1-.16.28-.16s.28.05.28.16h0c-.24,2.48-.36,4.51-.36,6.11h0c0,.28-.05.47-.16.59s-.31.18-.62.18h-18.82c-.07,0-.1-.1-.1-.31s.03-.31.1-.31h0c1.17,0,2.03-.09,2.59-.26.55-.17.92-.51,1.12-1.01s.28-1.27.28-2.3h0v-15.82c0-1.03-.1-1.79-.28-2.28-.19-.48-.56-.82-1.12-1.01s-1.42-.28-2.59-.28h0c-.07,0-.1-.1-.1-.31s.03-.31.1-.31h17.89c.34,0,.52.14.52.41h0l.05,3.21c.03.65.05,1.48.05,2.48h0c0,.1-.1.16-.31.16s-.31-.05-.31-.16h0c0-1.62-.46-2.93-1.4-3.93-.93-1-2.16-1.5-3.67-1.5h-1.76c-1.31,0-2.27.1-2.87.28s-1.02.53-1.24,1.01c-.23.48-.34,1.24-.34,2.28h0v7.08c3.51-.03,5.9-.12,7.14-.26,1.24-.14,1.93-.2,2.07-.2h0c.17,0,.26.36.26,1.09h0c0,.76-.09,1.14-.26,1.14h0c-.14,0-.83-.1-2.07-.31s-3.62-.33-7.14-.36h0v7.39c0,1,.11,1.75.34,2.25.23.5.64.85,1.27,1.03s1.57.28,2.84.28h3c1.34,0,2.5-.56,3.47-1.68.96-1.12,1.58-2.58,1.86-4.37h0Z"/><path d="m17.52,33h-6.51c-.1,0-.21-.16-.21-.37s.1-.37.21-.37h6.56c.1,0,.21.16.21.37,0,.16-.11.37-.26.37h0Z"/><path d="m21,36.54h-12.71c-.21,0-.42-.16-.47-.37.05-.21.21-.37.47-.37h12.71c.21,0,.42.16.47.37-.05.21-.21.37-.47.37h0Z"/><path d="m22.88,40.13H4.18c-.37,0-.68-.16-.68-.37s.31-.37.68-.37h18.69c.37,0,.68.16.68.37,0,.16-.32.37-.68.37Z"/><path d="m23.66,43.68H4.23c-.37,0-.68-.16-.68-.37s.31-.37.68-.37h19.43c.37,0,.68.16.68.37s-.26.37-.68.37h0Z"/><path d="m21.31,47.22H5.32c-.31,0-.58-.16-.58-.37s.26-.37.58-.37h15.99c.31,0,.58.16.58.37s-.26.37-.58.37h0Z"/><path d="m19.28,50.45c0,.21-.16.37-.37.37h-10.04c-.21,0-.37-.16-.37-.37s.16-.37.37-.37h10.1c.16,0,.31.16.31.37Z"/><path d="m27.62,83.62v-6.51c0-4.79-2.35-9.38-6.4-12.5l-15.26-11.72C1.9,49.77-.44,45.24-.44,40.45v10.26c0,4.79,2.35,9.38,6.4,12.45l15.26,11.72c2.86,2.13,4.95,5.21,5.88,8.7.36,1.25.52.05.52.05Z"/><path d="m27.62,41.96v-7.92c0-4.79-2.35-9.38-6.4-12.5L5.95,9.88C3.14,7.79,1.11,4.82.12,1.44-.25.14-.46,1.44-.46,1.44v6.25c0,4.79,2.35,9.38,6.4,12.45l15.26,11.72c4.06,3.13,6.4,7.66,6.4,12.45v-2.35h.02Z"/><path d="m27.62,35.14v7.92c0,4.79-2.35,9.38-6.4,12.5l-15.26,11.72c-2.97,2.24-5.05,5.42-6,9.01-.26,1.14-.42.05-.42.05v-6.77c0-4.79,2.35-9.38,6.4-12.5l15.26-11.72c4.06-3.13,6.4-7.71,6.4-12.5v2.29h.01Z"/><path d="m27.57,7.28v6.72c0,4.79-2.35,9.38-6.4,12.5l-15.26,11.77c-4.06,3.13-6.4,7.71-6.4,12.5v-10.26c0-4.79,2.35-9.38,6.4-12.5l15.26-11.72c2.92-2.19,5.05-5.36,5.99-8.96.26-1.15.42-.05.42-.05h0Z"/><path d="m60.09,69.71c.2.02.31.08.31.18-.31,2.17-.46,4.42-.46,6.73,0,.28-.06.47-.18.59s-.34.18-.65.18h-21.38c-.07,0-.1-.1-.1-.31s.03-.31.1-.31c1.34,0,2.34-.09,2.97-.26s1.07-.51,1.3-1.01c.23-.5.34-1.27.34-2.3v-23.96c0-1.03-.11-1.8-.34-2.28s-.66-.82-1.3-1.01-1.63-.28-2.97-.28c-.07,0-.1-.1-.1-.31s.03-.31.1-.31h20.5c.31,0,.46.16.46.46l.1,6.26c0,.1-.1.16-.28.16s-.28-.05-.28-.16c0-1.76-.46-3.15-1.4-4.19s-2.16-1.55-3.68-1.55h-3.57c-1.31,0-2.28.09-2.9.26-.62.17-1.04.5-1.27.98s-.34,1.24-.34,2.28v10.51h6.83c1.59,0,2.69-.27,3.31-.8s.94-1.46.94-2.77c0-.07.1-.1.31-.1s.31.03.31.1l-.05,4.09c0,1,.02,1.74.05,2.23l.05,2.43c0,.07-.1.1-.31.1s-.31-.03-.31-.1c0-1.55-.33-2.64-.98-3.26s-1.81-.94-3.47-.94h-6.68v11.96c0,1,.11,1.73.34,2.2.22.46.64.78,1.24.96.6.17,1.58.26,2.93.26h4.76c1.38,0,2.56-.6,3.54-1.81.98-1.21,1.61-2.79,1.89-4.76,0-.1.1-.15.31-.13v-.02Z"/><path d="m87.33,55.4c-.23-.59-.61-1-1.16-1.24s-1.37-.36-2.43-.36c-.1,0-.16-.1-.16-.31s.05-.31.16-.31l1.97.05c1.03.07,1.85.1,2.43.1.48,0,1.21-.03,2.17-.1l1.86-.05c.07,0,.1.1.1.31s-.03.31-.1.31c-.96,0-1.69.12-2.17.36-.48.24-.82.66-1.01,1.24s-.28,1.45-.28,2.59v9.89c0,3.21-.91,5.71-2.72,7.51s-4.24,2.69-7.27,2.69c-1.93,0-3.68-.39-5.25-1.16s-2.81-1.89-3.72-3.34c-.91-1.45-1.37-3.18-1.37-5.18v-11.03c0-1.03-.1-1.8-.31-2.28-.21-.48-.58-.82-1.12-1.01-.53-.19-1.39-.28-2.56-.28-.1,0-.16-.1-.16-.31s.05-.31.16-.31l2.28.05c1.24.07,2.21.1,2.9.1.86,0,1.92-.03,3.15-.1l2.17-.05c.1,0,.16.1.16.31s-.05.31-.16.31c-1.14,0-1.99.1-2.54.31-.55.21-.94.56-1.14,1.06-.21.5-.31,1.27-.31,2.3v9.58c0,3.24.85,5.64,2.54,7.2,1.69,1.55,3.83,2.33,6.42,2.33,2.45,0,4.37-.73,5.75-2.2,1.38-1.46,2.07-3.6,2.07-6.39v-9.99c0-1.13-.11-1.99-.34-2.58h-.01Z"/><path d="m120.96,77.09c0,.21-.03.31-.1.31h-5.43c-.62,0-1.76-1.03-3.42-3.11-1.66-2.07-3.64-4.94-5.95-8.59-.89.14-1.62.2-2.17.2-.48,0-1.24-.03-2.28-.1v7.4c0,1.07.1,1.85.28,2.33s.55.81,1.09.98,1.41.26,2.61.26c.1,0,.16.1.16.31s-.05.31-.16.31c-.94,0-1.66-.02-2.17-.05l-3.15-.05-3,.05c-.55.03-1.32.05-2.33.05-.07,0-.1-.1-.1-.31s.03-.31.1-.31c1.21,0,2.09-.09,2.64-.26s.94-.51,1.14-1.01.31-1.27.31-2.3v-15.84c0-1.03-.1-1.8-.31-2.28-.21-.48-.59-.82-1.14-1.01s-1.42-.28-2.59-.28c-.07,0-.1-.1-.1-.31s.03-.31.1-.31l2.33.05c1.24.07,2.23.1,2.95.1.65,0,1.24-.02,1.76-.05s.95-.07,1.3-.1c1.07-.1,2.07-.16,3-.16,2.1,0,3.72.43,4.84,1.3,1.12.86,1.68,2.1,1.68,3.72,0,1.42-.39,2.71-1.16,3.88s-1.82,2.12-3.13,2.85c1.97,3.18,3.61,5.61,4.94,7.3,1.32,1.69,2.56,2.9,3.7,3.63,1.14.73,2.36,1.09,3.68,1.09.06,0,.1.1.1.31h-.02Zm-16.73-12.07c2.17,0,3.69-.47,4.55-1.42s1.3-2.34,1.3-4.17c0-3.83-1.73-5.75-5.18-5.75-1.38,0-2.28.29-2.69.88s-.62,1.55-.62,2.9v7.35c.66.14,1.54.2,2.64.2h0Z"/><path d="m127.66,76.32c-1.88-1.14-3.33-2.67-4.35-4.58-1.02-1.91-1.53-3.99-1.53-6.24,0-2.69.71-5.02,2.12-6.99,1.42-1.97,3.2-3.45,5.36-4.46,2.16-1,4.36-1.5,6.6-1.5,2.42,0,4.54.59,6.37,1.76,1.83,1.17,3.24,2.71,4.22,4.61.98,1.89,1.48,3.88,1.48,5.95,0,2.35-.62,4.53-1.86,6.55-1.24,2.02-2.93,3.63-5.05,4.82-2.12,1.19-4.43,1.79-6.91,1.79s-4.56-.57-6.44-1.71h.01Zm14.7-2.17c1.71-1.89,2.56-4.54,2.56-7.92,0-2.31-.41-4.43-1.24-6.34-.83-1.91-2.05-3.44-3.68-4.58-1.62-1.14-3.57-1.71-5.85-1.71-2.97,0-5.27.95-6.91,2.85-1.64,1.9-2.46,4.5-2.46,7.81,0,2.35.42,4.48,1.27,6.42.85,1.93,2.08,3.47,3.7,4.61s3.54,1.71,5.75,1.71c2.86,0,5.15-.95,6.86-2.84h.01Z"/><path d="m158.71,75.41c.26.5.74.85,1.45,1.06.71.21,1.84.31,3.39.31.1,0,.16.1.16.31s-.05.31-.16.31c-1.21,0-2.14-.02-2.79-.05l-3.72-.05-3.06.05c-.55.03-1.31.05-2.28.05-.07,0-.1-.1-.1-.31s.03-.31.1-.31c1.17,0,2.03-.09,2.59-.26s.92-.51,1.12-1.01.28-1.27.28-2.3v-15.84c0-1.03-.1-1.8-.28-2.28s-.56-.82-1.12-1.01c-.55-.19-1.42-.28-2.59-.28-.07,0-.1-.1-.1-.31s.03-.31.1-.31l2.28.05c1.24.07,2.24.1,3,.1.59,0,1.14-.02,1.68-.05.53-.03,1.01-.07,1.42-.1,1.03-.1,2-.16,2.9-.16,5.59,0,8.38,2.14,8.38,6.42,0,1.62-.42,2.99-1.27,4.11s-1.91,1.95-3.18,2.49-2.59.8-3.93.8c-1,0-1.85-.07-2.54-.2-.1,0-.16-.09-.16-.26,0-.1.02-.2.08-.31s.11-.14.18-.1c.62.1,1.24.16,1.86.16,1.66,0,3.06-.49,4.22-1.48,1.16-.99,1.73-2.38,1.73-4.17,0-2.17-.6-3.85-1.81-5.02-1.21-1.17-2.81-1.76-4.82-1.76-.96,0-1.67.07-2.12.21s-.77.46-.98.98-.31,1.38-.31,2.59v15.53c0,1.09.14,1.89.4,2.39v.02Z"/><path d="m195.21,70.36c.19,0,.28.05.28.16-.24,2.49-.37,4.52-.37,6.11,0,.28-.05.47-.16.59s-.31.18-.62.18h-18.84c-.07,0-.1-.1-.1-.31s.03-.31.1-.31c1.17,0,2.03-.09,2.59-.26s.92-.51,1.12-1.01.28-1.27.28-2.3v-15.84c0-1.03-.1-1.8-.28-2.28s-.56-.82-1.12-1.01-1.42-.28-2.59-.28c-.07,0-.1-.1-.1-.31s.03-.31.1-.31h17.91c.34,0,.52.14.52.41l.05,3.21c.03.66.05,1.48.05,2.48,0,.1-.1.16-.31.16s-.31-.05-.31-.16c0-1.62-.46-2.93-1.4-3.93s-2.16-1.5-3.68-1.5h-1.76c-1.31,0-2.27.1-2.87.28s-1.02.53-1.24,1.01c-.23.48-.34,1.24-.34,2.28v7.09c3.52-.03,5.9-.12,7.14-.26,1.24-.14,1.93-.2,2.07-.2.17,0,.26.37.26,1.09s-.09,1.14-.26,1.14c-.14,0-.83-.1-2.07-.31s-3.63-.33-7.14-.36v7.4c0,1,.11,1.75.34,2.25.23.5.65.85,1.27,1.03s1.57.28,2.85.28h3c1.34,0,2.5-.56,3.47-1.68s1.59-2.58,1.86-4.37c0-.1.1-.16.28-.16h0Z"/></svg>