<?xml version="1.0" encoding="UTF-8"?><svg id="Layer_1" xmlns="http://www.w3.org/2000/svg" xmlns:xlink="http://www.w3.org/1999/xlink" viewBox="0 0 200 85"><defs><style>.cls-1{fill:#fff;}.cls-2{clip-path:url(#clippath-1);}.cls-3{clip-path:url(#clippath);}.cls-4{fill:none;}.cls-5{fill:#231f20;}</style><clipPath id="clippath"><rect class="cls-4" x="-.5" y="2.8" width="82.78" height="79.41"/></clipPath><clipPath id="clippath-1"><rect class="cls-4" x="-.5" y="2.8" width="82.78" height="79.41"/></clipPath></defs><path d="m101.83,28.27h2.48c.22,0,.39.18.39.39v13.54c0,.22-.18.39-.39.39h-2.48c-.21,0-.39-.17-.39-.39v-13.54c0-.21.17-.39.39-.39Z"/><path d="m107.81,28.66c0-.21.17-.39.39-.39h6.16c2.47,0,4.49,1.99,4.49,4.42,0,1.88-1.26,3.4-3.05,4.11l2.82,5.2c.14.27,0,.59-.35.59h-2.74c-.16,0-.29-.1-.33-.18l-2.74-5.42h-1.42v5.22c0,.21-.19.39-.39.39h-2.45c-.23,0-.39-.18-.39-.39v-13.54Zm6.29,5.73c.85,0,1.57-.78,1.57-1.64s-.72-1.56-1.57-1.56h-3.05v3.19h3.05Z"/><path d="m128.34,27.86c2.06,0,3.59.63,4.99,1.9.19.16.19.41.02.57l-1.61,1.66c-.15.14-.37.14-.52,0-.76-.67-1.77-1.04-2.78-1.04-2.33,0-4.04,1.92-4.04,4.21s1.73,4.15,4.06,4.15c.97,0,2.02-.35,2.76-.98.14-.12.41-.12.54.02l1.61,1.7c.15.14.12.41-.02.55-1.4,1.35-3.17,1.99-5.01,1.99-4.12,0-7.44-3.25-7.44-7.35s3.32-7.39,7.44-7.39Z"/><path d="m158.13,8.6c-.13-.13-.3-.2-.49-.2h-21.58c-.18,0-.36.07-.48.2-.13.13-.2.3-.2.48v34.21c0,.18.07.36.2.48.13.13.3.2.48.2h21.58c.18,0,.36-.07.49-.2.13-.13.2-.3.2-.48V9.08c0-.18-.07-.36-.2-.48Zm-7.44,33.9h-2.74c-.17,0-.31-.12-.35-.22l-3.4-7.47h-.12l-3.4,7.47c-.04.1-.19.22-.35.22h-2.74c-.31,0-.47-.27-.35-.53l6.47-13.77c.06-.12.19-.23.35-.23h.21c.17,0,.29.1.35.23l6.43,13.77c.12.27-.04.53-.35.53Zm5.15-.29c0,.21-.19.39-.39.39h-2.47c-.21,0-.39-.18-.39-.39v-13.54c0-.21.19-.39.39-.39h2.47c.21,0,.39.18.39.39v13.54Z"/><path class="cls-5" d="m192.63,53.9c.2-.19.44-.29.72-.29.32,0,.57.12.77.36.13.15.21.39.23.7h-2.05c.02-.32.13-.58.32-.77Zm1.34,2.35c-.16.12-.36.18-.58.18-.31,0-.56-.11-.77-.32-.21-.21-.32-.52-.34-.93h2.74v-.17c0-.61-.15-1.08-.46-1.41-.31-.33-.71-.5-1.2-.5s-.92.17-1.24.51c-.32.34-.48.82-.48,1.44s.16,1.06.47,1.39c.31.33.74.5,1.28.5.43,0,.78-.1,1.05-.31.27-.21.46-.5.56-.87l-.64-.08c-.09.26-.22.45-.38.57Zm-3.87.61v-1.92c0-.26.03-.5.1-.73.05-.15.12-.26.23-.34.11-.08.23-.12.37-.12.15,0,.3.04.46.13l.21-.58c-.22-.13-.43-.2-.64-.2-.15,0-.28.04-.4.13-.12.08-.25.25-.4.52v-.56h-.56v3.67h.62Zm-1.5-.53l-.21-.05-.11-.12c-.02-.05-.03-.17-.03-.34v-2.15h.63v-.48h-.63v-1.28l-.62.37v.91h-.46v.48h.46v2.11c0,.37.03.62.08.74.05.12.14.21.26.28.12.07.3.11.53.11.14,0,.29-.02.47-.05l-.09-.55c-.11.02-.2.02-.27.02Zm-4.4.53v-2.01c0-.47.1-.79.29-.96.19-.17.42-.25.69-.25.17,0,.31.04.43.11.12.07.21.17.26.3.05.13.07.32.07.57v2.23h.62v-2.26c0-.29-.01-.49-.03-.61-.04-.18-.1-.33-.19-.46-.09-.13-.23-.23-.42-.31-.19-.08-.39-.12-.61-.12-.51,0-.9.2-1.17.61v-.52h-.56v3.67h.62Zm-3.77-2.96c.2-.19.44-.29.72-.29.32,0,.57.12.77.36.13.15.21.39.23.7h-2.05c.02-.32.13-.58.32-.77Zm1.34,2.35c-.16.12-.36.18-.58.18-.31,0-.56-.11-.77-.32-.21-.21-.32-.52-.34-.93h2.74v-.17c0-.61-.15-1.08-.46-1.41-.31-.33-.71-.5-1.2-.5s-.92.17-1.24.51c-.32.34-.48.82-.48,1.44s.16,1.06.47,1.39c.31.33.74.5,1.28.5.43,0,.78-.1,1.05-.31.27-.21.46-.5.56-.87l-.64-.08c-.09.26-.22.45-.38.57Zm-4.08-.2c-.26.22-.58.32-.96.32-.31,0-.6-.08-.86-.24-.27-.16-.46-.4-.59-.72-.13-.32-.19-.7-.19-1.13,0-.33.05-.66.16-.97.11-.31.29-.57.55-.75.26-.19.59-.28.98-.28.34,0,.62.08.84.25.22.17.4.44.51.81l.66-.16c-.14-.47-.38-.83-.72-1.09-.35-.26-.77-.39-1.28-.39-.45,0-.86.1-1.23.31-.37.2-.66.5-.86.9-.2.39-.3.85-.3,1.38,0,.48.09.94.27,1.36.18.42.44.74.78.97.34.22.79.33,1.33.33s.98-.15,1.34-.44c.37-.29.62-.71.76-1.26l-.67-.17c-.09.43-.27.75-.53.97Zm-8.45.81v-2.01c0-.29.03-.51.1-.68.07-.16.18-.29.35-.39.16-.1.34-.14.52-.14.25,0,.44.07.57.21.13.14.2.37.2.68v2.33h.62v-2.33c0-.36-.04-.64-.13-.82-.09-.19-.23-.34-.43-.44-.2-.11-.44-.16-.71-.16-.44,0-.81.17-1.1.51v-1.82h-.62v5.07h.62Zm-2.08-.65c-.16.15-.37.23-.61.23-.3,0-.55-.11-.74-.34-.19-.22-.28-.58-.28-1.08s.1-.84.29-1.07c.2-.22.45-.34.76-.34.21,0,.38.06.53.19.15.12.25.31.31.56l.61-.09c-.07-.37-.23-.66-.49-.86-.25-.2-.58-.3-.98-.3-.32,0-.61.07-.88.22-.27.15-.47.37-.6.67-.13.3-.2.64-.2,1.04,0,.61.15,1.08.46,1.41.31.33.71.49,1.21.49.4,0,.74-.12,1.02-.36.28-.24.45-.57.51-.99l-.61-.08c-.04.31-.15.54-.31.69Zm-3.83.65v-1.92c0-.26.03-.5.1-.73.05-.15.12-.26.23-.34.11-.08.23-.12.37-.12.15,0,.3.04.46.13l.21-.58c-.22-.13-.43-.2-.64-.2-.15,0-.28.04-.4.13-.12.08-.25.25-.4.52v-.56h-.56v3.67h.62Zm-2.21-1.62c0,.27-.03.48-.1.62-.09.18-.22.33-.41.43-.19.1-.4.16-.64.16s-.43-.05-.55-.17c-.13-.11-.19-.25-.19-.42,0-.11.03-.21.09-.3.06-.09.14-.16.25-.2.11-.05.29-.09.54-.13.45-.06.79-.14,1.02-.23v.23Zm.18,1.62h.65c-.08-.14-.13-.29-.16-.44-.03-.15-.04-.52-.04-1.1v-.83c0-.28,0-.47-.03-.57-.04-.17-.1-.31-.19-.42-.09-.11-.24-.2-.43-.28-.2-.07-.45-.11-.77-.11s-.59.04-.83.13c-.24.09-.42.21-.55.37-.13.16-.22.37-.27.63l.61.08c.07-.26.17-.44.31-.55.14-.1.35-.15.65-.15.31,0,.55.07.71.21.12.1.18.28.18.54v.16c-.24.08-.61.15-1.11.21-.25.03-.43.06-.55.09-.17.05-.31.11-.45.2-.13.09-.24.21-.32.36-.08.15-.12.31-.12.49,0,.31.11.56.33.76.22.2.53.3.93.3.24,0,.47-.04.69-.12.21-.08.44-.22.67-.41.02.17.06.32.12.45Zm-5.67-2.96c.2-.19.44-.29.72-.29.32,0,.57.12.77.36.13.15.21.39.23.7h-2.05c.02-.32.13-.58.32-.77Zm1.34,2.35c-.16.12-.36.18-.58.18-.31,0-.56-.11-.77-.32-.21-.21-.32-.52-.34-.93h2.74v-.17c0-.61-.15-1.08-.46-1.41-.31-.33-.71-.5-1.2-.5s-.92.17-1.24.51c-.32.34-.48.82-.48,1.44s.16,1.06.47,1.39c.31.33.74.5,1.28.5.43,0,.78-.1,1.05-.31.27-.21.46-.5.56-.87l-.64-.08c-.09.26-.22.45-.38.57Zm-5.44.4c.25.2.61.3,1.09.3.29,0,.55-.05.77-.15.23-.1.4-.24.52-.43.12-.18.18-.38.18-.59s-.05-.39-.15-.53c-.1-.14-.24-.25-.41-.33-.17-.07-.48-.17-.92-.29-.3-.08-.49-.14-.55-.16-.11-.04-.19-.1-.24-.17l-.08-.22c0-.13.06-.24.18-.33.12-.09.33-.14.61-.14.24,0,.43.05.56.16.13.11.21.25.24.44l.61-.08c-.04-.24-.11-.43-.22-.57-.1-.14-.26-.25-.48-.34s-.47-.13-.76-.13c-.19,0-.37.03-.54.07-.17.05-.3.11-.4.18-.13.09-.23.21-.31.35s-.11.29-.11.46c0,.18.05.34.14.49.09.15.22.26.4.35.18.08.49.18.95.3.34.08.55.16.64.21.12.08.18.19.18.33,0,.16-.07.29-.21.41-.14.12-.35.18-.64.18s-.51-.07-.66-.2c-.16-.13-.25-.32-.29-.57l-.62.1c.07.39.23.68.48.88Zm-3.38-2.74c.2-.19.44-.29.72-.29.32,0,.57.12.77.36.13.15.21.39.23.7h-2.05c.02-.32.13-.58.32-.77Zm1.34,2.35c-.16.12-.36.18-.58.18-.31,0-.56-.11-.77-.32-.21-.21-.32-.52-.34-.93h2.74v-.17c0-.61-.15-1.08-.46-1.41-.31-.33-.71-.5-1.2-.5s-.92.17-1.24.51c-.32.34-.48.82-.48,1.44s.16,1.06.47,1.39c.31.33.74.5,1.28.5.43,0,.78-.1,1.05-.31.27-.21.46-.5.56-.87l-.64-.08c-.09.26-.22.45-.38.57Zm-6.49-3.9h1.61c.38,0,.65.08.82.23.17.16.26.35.26.59,0,.16-.04.32-.13.46-.09.14-.22.24-.39.3s-.41.09-.72.09h-1.44v-1.68Zm0,4.51v-2.25h.78c.17,0,.3,0,.37.02.1.02.21.07.31.13.1.06.21.18.34.34.13.16.29.4.48.7l.67,1.06h.84l-.88-1.38c-.18-.27-.36-.49-.56-.67-.09-.08-.23-.17-.41-.25.49-.07.85-.22,1.08-.47s.35-.55.35-.91c0-.28-.07-.53-.21-.76-.14-.23-.33-.39-.56-.48s-.58-.14-1.03-.14h-2.25v5.07h.67Zm-3.69,0v-5.07h-.62v5.07h.62Zm-2.2-1.62c0,.27-.03.48-.1.62-.09.18-.22.33-.41.43-.19.1-.4.16-.64.16s-.43-.05-.55-.17c-.13-.11-.19-.25-.19-.42,0-.11.03-.21.09-.3.06-.09.14-.16.25-.2.11-.05.29-.09.54-.13.45-.06.79-.14,1.02-.23v.23Zm.18,1.62h.65c-.08-.14-.13-.29-.16-.44-.03-.15-.04-.52-.04-1.1v-.83c0-.28-.01-.47-.03-.57-.04-.17-.1-.31-.19-.42-.09-.11-.24-.2-.43-.28-.2-.07-.45-.11-.77-.11s-.59.04-.83.13c-.24.09-.42.21-.55.37-.13.16-.22.37-.27.63l.61.08c.07-.26.17-.44.31-.55.14-.1.35-.15.65-.15.31,0,.55.07.71.21.12.1.18.28.18.54v.16c-.24.08-.61.15-1.11.21-.25.03-.43.06-.55.09-.17.05-.31.11-.45.2-.13.09-.24.21-.32.36-.08.15-.12.31-.12.49,0,.31.11.56.33.76.22.2.53.3.93.3.24,0,.47-.04.69-.12.21-.08.44-.22.67-.41.02.17.06.32.12.45Zm-5.84,0v-2.01c0-.47.1-.79.29-.96.19-.17.42-.25.69-.25.17,0,.31.04.43.11.12.07.21.17.26.3.05.13.07.32.07.57v2.23h.62v-2.26c0-.29-.01-.49-.03-.61-.04-.18-.1-.33-.19-.46-.09-.13-.23-.23-.42-.31-.19-.08-.39-.12-.61-.12-.51,0-.9.2-1.17.61v-.52h-.56v3.67h.62Zm-3.85-2.89c.21-.23.46-.35.78-.35s.56.12.77.35c.21.23.31.58.31,1.03,0,.48-.1.84-.31,1.08-.21.24-.46.35-.77.35s-.57-.12-.78-.35-.31-.59-.31-1.06.1-.82.31-1.06Zm-.47,2.48c.32.33.73.49,1.25.49.32,0,.62-.07.89-.22s.48-.36.62-.63c.14-.27.21-.64.21-1.12,0-.58-.16-1.04-.48-1.37-.32-.33-.73-.5-1.24-.5-.46,0-.84.14-1.16.41-.38.33-.57.83-.57,1.51,0,.62.16,1.1.48,1.42Zm-1.19.41v-3.67h-.62v3.67h.62Zm0-4.35v-.72h-.62v.72h.62Zm-1.51,3.82l-.21-.05-.11-.12c-.02-.05-.03-.17-.03-.34v-2.15h.63v-.48h-.63v-1.28l-.62.37v.91h-.46v.48h.46v2.11c0,.37.03.62.08.74.05.12.14.21.26.28.12.07.3.11.53.11.14,0,.29-.02.47-.05l-.09-.55c-.11.02-.2.02-.27.02Zm-2.68-1.08c0,.27-.03.48-.1.62-.09.18-.22.33-.41.43-.19.1-.4.16-.64.16s-.43-.05-.55-.17c-.13-.11-.19-.25-.19-.42,0-.11.03-.21.09-.3.06-.09.14-.16.25-.2.11-.05.29-.09.54-.13.45-.06.79-.14,1.02-.23v.23Zm.18,1.62h.65c-.08-.14-.13-.29-.16-.44-.03-.15-.04-.52-.04-1.1v-.83c0-.28-.01-.47-.03-.57-.04-.17-.1-.31-.19-.42-.09-.11-.24-.2-.43-.28-.2-.07-.45-.11-.77-.11s-.59.04-.83.13c-.24.09-.42.21-.55.37-.13.16-.22.37-.27.63l.61.08c.07-.26.17-.44.31-.55.14-.1.35-.15.65-.15.31,0,.55.07.71.21.12.1.18.28.18.54v.16c-.24.08-.61.15-1.11.21-.25.03-.43.06-.55.09-.17.05-.31.11-.45.2-.13.09-.24.21-.32.36-.08.15-.12.31-.12.49,0,.31.11.56.33.76.22.2.53.3.93.3.24,0,.47-.04.69-.12.21-.08.44-.22.67-.41.02.17.06.32.12.45Zm-5.84,0v-2.01c0-.47.1-.79.29-.96.19-.17.42-.25.69-.25.17,0,.31.04.43.11.12.07.21.17.26.3.05.13.07.32.07.57v2.23h.62v-2.26c0-.29-.01-.49-.03-.61-.04-.18-.1-.33-.19-.46-.09-.13-.23-.23-.42-.31-.19-.08-.39-.12-.61-.12-.51,0-.9.2-1.17.61v-.52h-.56v3.67h.62Zm-2.37,0v-1.92c0-.26.03-.5.1-.73.05-.15.12-.26.23-.34.11-.08.23-.12.37-.12.15,0,.3.04.46.13l.21-.58c-.22-.13-.43-.2-.64-.2-.15,0-.28.04-.4.13-.12.08-.25.25-.4.52v-.56h-.56v3.67h.62Zm-3.76-2.96c.2-.19.44-.29.72-.29.32,0,.57.12.77.36.13.15.21.39.23.7h-2.05c.02-.32.13-.58.32-.77Zm1.34,2.35c-.16.12-.36.18-.58.18-.31,0-.56-.11-.77-.32-.21-.21-.32-.52-.34-.93h2.74v-.17c0-.61-.15-1.08-.46-1.41-.31-.33-.71-.5-1.2-.5s-.92.17-1.24.51c-.32.34-.48.82-.48,1.44s.16,1.06.47,1.39c.31.33.74.5,1.28.5.43,0,.78-.1,1.05-.31.27-.21.46-.5.56-.87l-.64-.08c-.09.26-.22.45-.38.57Zm-3.01.08l-.21-.05-.11-.12c-.02-.05-.03-.17-.03-.34v-2.15h.63v-.48h-.63v-1.28l-.62.37v.91h-.46v.48h.46v2.11c0,.37.03.62.08.74.05.12.14.21.26.28.12.07.3.11.53.11.14,0,.29-.02.47-.05l-.09-.55c-.11.02-.2.02-.27.02Zm-4.4.53v-2.01c0-.47.1-.79.29-.96.19-.17.42-.25.69-.25.17,0,.31.04.43.11.12.07.21.17.26.3.05.13.07.32.07.57v2.23h.62v-2.26c0-.29-.01-.49-.03-.61-.04-.18-.1-.33-.19-.46-.09-.13-.23-.23-.42-.31-.19-.08-.39-.12-.61-.12-.51,0-.9.2-1.17.61v-.52h-.56v3.67h.62Zm-1.73,0v-5.07h-.67v5.07h.67Z"/><path class="cls-5" d="m170.18,61.56c.2-.19.44-.29.72-.29.32,0,.57.12.77.36.13.15.21.39.23.7h-2.05c.02-.32.13-.58.32-.77Zm1.34,2.35c-.16.12-.36.18-.58.18-.31,0-.56-.11-.77-.32-.21-.21-.32-.52-.34-.93h2.74v-.17c0-.61-.15-1.08-.46-1.41-.31-.33-.71-.5-1.2-.5s-.92.17-1.24.51c-.32.34-.48.82-.48,1.44s.16,1.06.47,1.39c.31.33.74.5,1.28.5.43,0,.78-.1,1.05-.31.27-.21.46-.5.56-.88l-.64-.08c-.09.26-.22.45-.38.57Zm-3.59-.04c-.16.15-.37.23-.61.23-.3,0-.55-.11-.74-.34-.19-.22-.28-.58-.28-1.08s.1-.84.29-1.07c.2-.22.45-.34.76-.34.21,0,.38.06.53.19.15.12.25.31.31.56l.61-.09c-.07-.37-.23-.66-.49-.86-.25-.2-.58-.3-.98-.3-.32,0-.61.07-.88.22-.27.15-.47.37-.6.67-.13.3-.2.64-.2,1.04,0,.61.15,1.08.46,1.41.31.33.71.49,1.21.49.4,0,.74-.12,1.02-.36.28-.24.45-.57.51-.99l-.61-.08c-.04.31-.15.54-.31.69Zm-5.4.65v-2.01c0-.47.1-.79.29-.96.19-.17.42-.25.69-.25.17,0,.31.04.43.11.12.07.21.18.26.3.05.13.07.32.07.57v2.23h.62v-2.26c0-.29-.01-.49-.03-.61-.04-.18-.1-.33-.19-.46-.09-.13-.23-.23-.42-.31-.19-.08-.39-.12-.61-.12-.51,0-.9.2-1.17.61v-.52h-.56v3.67h.62Zm-3.77-2.96c.2-.19.44-.29.72-.29.32,0,.57.12.77.36.13.15.21.39.23.7h-2.05c.02-.32.13-.58.32-.77Zm1.34,2.35c-.16.12-.36.18-.58.18-.31,0-.56-.11-.77-.32-.21-.21-.32-.52-.34-.93h2.74v-.17c0-.61-.15-1.08-.46-1.41-.31-.33-.71-.5-1.2-.5s-.92.17-1.24.51c-.32.34-.48.82-.48,1.44s.16,1.06.47,1.39c.31.33.74.5,1.28.5.43,0,.78-.1,1.05-.31.27-.21.46-.5.56-.88l-.64-.08c-.09.26-.22.45-.38.57Zm-5.38-2.29c.19-.23.43-.34.71-.34s.52.11.72.34c.2.23.3.57.3,1.02s-.1.82-.29,1.04c-.19.22-.43.33-.72.33s-.53-.11-.72-.33c-.19-.22-.29-.57-.29-1.05,0-.44.1-.78.29-1Zm-.42,4.1c.27.2.62.3,1.06.3.37,0,.68-.07.93-.21.25-.14.44-.33.55-.57.12-.24.17-.64.17-1.21v-3.18h-.57v.44c-.28-.35-.64-.53-1.07-.53-.33,0-.61.08-.85.24-.24.16-.43.39-.55.69-.13.3-.19.62-.19.97,0,.51.14.95.42,1.31.28.37.67.55,1.17.55.4,0,.74-.16,1.02-.48,0,.41-.01.67-.04.8-.06.21-.16.37-.32.48-.16.12-.38.17-.67.17-.27,0-.48-.06-.63-.17-.12-.08-.19-.22-.21-.41l-.61-.09c0,.4.12.69.39.89Zm-1.22-1.19v-3.67h-.62v3.67h.62Zm0-4.35v-.72h-.62v.72h.62Zm-1.59,4.35v-5.07h-.62v5.07h.62Zm-1.57,0v-5.07h-.62v5.07h.62Zm-3.75-2.96c.2-.19.44-.29.72-.29.32,0,.57.12.77.36.13.15.21.39.23.7h-2.05c.02-.32.13-.58.32-.77Zm1.34,2.35c-.16.12-.36.18-.58.18-.31,0-.56-.11-.77-.32-.21-.21-.32-.52-.34-.93h2.74v-.17c0-.61-.15-1.08-.46-1.41-.31-.33-.71-.5-1.2-.5s-.92.17-1.24.51c-.32.34-.48.82-.48,1.44s.16,1.06.47,1.39c.31.33.74.5,1.28.5.43,0,.78-.1,1.05-.31.27-.21.46-.5.56-.88l-.64-.08c-.09.26-.22.45-.38.57Zm-3.01.08l-.21-.05-.11-.12c-.02-.05-.03-.17-.03-.34v-2.15h.63v-.48h-.63v-1.28l-.62.37v.91h-.46v.48h.46v2.11c0,.37.03.62.08.74.05.12.14.21.26.28.12.07.3.11.53.11.14,0,.29-.02.47-.05l-.09-.55c-.11.02-.2.02-.27.02Zm-4.4.53v-2.01c0-.47.1-.79.29-.96.19-.17.42-.25.69-.25.17,0,.31.04.43.11.12.07.21.18.26.3.05.13.07.32.07.57v2.23h.62v-2.26c0-.29-.01-.49-.03-.61-.04-.18-.1-.33-.19-.46-.09-.13-.23-.23-.42-.31-.19-.08-.39-.12-.61-.12-.51,0-.9.2-1.17.61v-.52h-.56v3.67h.62Zm-1.72,0v-5.07h-.67v5.07h.67Zm-3.8,0v-5.07h-.62v5.07h.62Zm-2.2-1.62c0,.27-.03.48-.1.62-.09.18-.22.33-.41.43-.19.1-.4.16-.64.16s-.43-.05-.55-.17c-.13-.11-.19-.25-.19-.42,0-.11.03-.21.09-.3.06-.09.14-.16.25-.2.11-.05.29-.09.54-.13.45-.06.79-.14,1.02-.23v.23Zm.18,1.62h.65c-.08-.14-.13-.29-.16-.44-.03-.15-.04-.52-.04-1.1v-.83c0-.28,0-.47-.03-.57-.04-.17-.1-.31-.19-.42-.09-.11-.24-.2-.43-.28-.2-.07-.45-.11-.77-.11s-.59.04-.83.13c-.24.09-.42.21-.55.37-.13.16-.22.37-.27.63l.61.08c.07-.26.17-.44.31-.55.14-.1.35-.15.65-.15.31,0,.55.07.71.21.12.1.18.28.18.54v.16c-.24.08-.61.15-1.11.21-.25.03-.43.06-.55.09-.17.05-.31.11-.45.2-.13.09-.24.21-.32.36-.08.15-.12.31-.12.49,0,.31.11.56.33.76.22.2.53.3.93.3.24,0,.47-.04.69-.12.21-.08.44-.22.67-.42.02.17.06.32.12.45Zm-3.47,0v-3.67h-.62v3.67h.62Zm0-4.35v-.72h-.62v.72h.62Zm-2.08,3.7c-.16.15-.37.23-.61.23-.3,0-.55-.11-.74-.34-.19-.22-.28-.58-.28-1.08s.1-.84.29-1.07c.2-.22.45-.34.76-.34.21,0,.38.06.53.19.15.12.25.31.31.56l.61-.09c-.07-.37-.23-.66-.49-.86-.25-.2-.58-.3-.98-.3-.32,0-.61.07-.88.22-.27.15-.47.37-.6.67-.13.3-.2.64-.2,1.04,0,.61.15,1.08.46,1.41.31.33.71.49,1.21.49.4,0,.74-.12,1.02-.36.28-.24.45-.57.51-.99l-.61-.08c-.04.31-.15.54-.31.69Zm-3.03.65v-3.67h-.62v3.67h.62Zm0-4.35v-.72h-.62v.72h.62Zm-1.83,4.35v-3.19h.72v-.48h-.72v-.34c0-.22.04-.37.12-.45.08-.08.21-.12.4-.12.11,0,.24.01.37.03l.09-.54c-.21-.04-.41-.06-.58-.06-.27,0-.48.05-.63.15-.15.1-.26.23-.32.39-.04.12-.07.3-.07.55v.39h-.55v.48h.55v3.19h.62Zm-1.71,0v-3.67h-.62v3.67h.62Zm0-4.35v-.72h-.62v.72h.62Zm-1.51,3.82l-.21-.05-.11-.12c-.02-.05-.03-.17-.03-.34v-2.15h.63v-.48h-.63v-1.28l-.62.37v.91h-.46v.48h.46v2.11c0,.37.03.62.08.74.05.12.14.21.26.28.12.07.3.11.53.11.14,0,.29-.02.47-.05l-.09-.55c-.11.02-.2.02-.27.02Zm-2.83.53v-1.92c0-.26.03-.5.1-.73.05-.14.12-.26.23-.34.11-.08.23-.12.37-.12.15,0,.3.04.46.13l.21-.58c-.22-.13-.43-.2-.64-.2-.15,0-.28.04-.4.12-.12.08-.25.25-.4.52v-.56h-.56v3.67h.62Zm-3.8-3.57c.12-.32.21-.64.27-.97.08.27.2.62.36,1.05l.53,1.4h-1.72l.56-1.49Zm-1.31,3.57l.56-1.54h2.12l.59,1.54h.76l-2.08-5.07h-.72l-1.95,5.07h.71Zm-5.13,0v-2.01c0-.47.1-.79.29-.96.19-.17.42-.25.69-.25.17,0,.31.04.43.11.12.07.21.18.26.3.05.13.07.32.07.57v2.23h.62v-2.26c0-.29-.01-.49-.03-.61-.04-.18-.1-.33-.19-.46-.09-.13-.23-.23-.42-.31-.19-.08-.39-.12-.61-.12-.51,0-.9.2-1.17.61v-.52h-.56v3.67h.62Zm-3.85-2.89c.21-.23.46-.35.78-.35s.56.12.77.35c.21.23.31.58.31,1.03,0,.48-.1.84-.31,1.08-.21.24-.46.35-.77.35s-.57-.12-.78-.35c-.21-.23-.31-.59-.31-1.06s.1-.82.31-1.06Zm-.47,2.48c.32.33.73.49,1.25.49.32,0,.62-.07.89-.22s.48-.36.62-.63c.14-.27.21-.64.21-1.12,0-.58-.16-1.04-.48-1.37-.32-.33-.73-.5-1.24-.5-.46,0-.84.14-1.16.41-.38.33-.57.83-.57,1.51,0,.62.16,1.1.48,1.42Z"/><path class="cls-5" d="m196.86,68.07c.34-.33.75-.49,1.23-.49.33,0,.64.08.9.25.27.17.47.41.61.72.14.31.21.67.21,1.08,0,.65-.16,1.16-.49,1.51-.33.35-.74.53-1.25.53s-.91-.18-1.24-.53c-.33-.35-.49-.83-.49-1.44,0-.76.17-1.31.51-1.63Zm-.91,2.89c.19.4.48.71.85.94.38.23.8.35,1.28.35.44,0,.85-.1,1.23-.31.38-.21.67-.52.88-.92.21-.41.31-.87.31-1.38s-.1-.96-.3-1.36c-.2-.4-.48-.71-.86-.94-.38-.22-.8-.34-1.27-.34-.72,0-1.3.24-1.75.71-.45.48-.68,1.13-.68,1.98,0,.44.1.87.29,1.27Zm-2.11.39c-.26.22-.58.32-.96.32-.31,0-.6-.08-.86-.24-.27-.16-.46-.4-.59-.72-.13-.32-.19-.7-.19-1.13,0-.33.05-.66.16-.97.11-.31.29-.57.55-.75.26-.19.59-.28.98-.28.34,0,.62.08.84.25.22.17.39.44.51.81l.66-.16c-.14-.47-.38-.83-.72-1.09-.35-.26-.77-.39-1.28-.39-.45,0-.86.1-1.23.31-.37.2-.66.5-.86.9-.2.39-.3.85-.3,1.38,0,.48.09.94.27,1.36.18.42.44.74.78.97.34.22.79.33,1.33.33s.98-.14,1.34-.44c.37-.29.62-.71.76-1.26l-.67-.17c-.09.43-.27.75-.53.97Zm-7.76.09c.18.27.42.47.73.6s.69.2,1.15.2c.36,0,.69-.07.98-.2.29-.13.51-.32.67-.56.16-.24.23-.49.23-.76s-.07-.51-.21-.72c-.14-.21-.36-.38-.65-.52-.2-.09-.58-.2-1.12-.32-.55-.12-.88-.24-1.01-.36-.13-.12-.2-.27-.2-.45,0-.21.09-.39.28-.54.19-.15.48-.22.89-.22s.68.08.88.25c.2.16.32.41.35.73l.64-.05c-.01-.3-.09-.56-.25-.8-.15-.24-.37-.41-.66-.53-.29-.12-.62-.18-1-.18-.34,0-.65.06-.93.17-.28.12-.49.28-.64.51-.15.22-.22.46-.22.72,0,.23.06.44.18.63.12.19.3.35.54.47.19.1.51.21.98.32.47.11.77.19.9.25.21.08.36.18.46.3.09.12.14.26.14.42s-.05.3-.14.43c-.1.13-.24.24-.44.31-.2.08-.42.11-.68.11-.29,0-.55-.05-.78-.15-.23-.1-.4-.23-.51-.39-.11-.16-.18-.37-.21-.62l-.63.06c0,.34.1.64.28.91Zm-.98.72v-.6h-3.11v-1.73h2.81v-.59h-2.81v-1.55h2.99v-.6h-3.67v5.07h3.78Zm-8.28,0v-3.98l2.66,3.98h.69v-5.07h-.64v3.98l-2.66-3.98h-.69v5.07h.64Zm-2.42-2.14c0,.64-.1,1.07-.31,1.29-.21.22-.56.34-1.06.34-.29,0-.53-.06-.73-.17-.2-.11-.34-.27-.42-.48-.08-.21-.12-.53-.12-.97v-2.93h-.67v2.93c0,.54.06.96.19,1.27.13.31.34.55.65.71.3.16.69.25,1.17.25s.88-.09,1.18-.28c.3-.19.51-.43.62-.73.12-.3.17-.7.17-1.21v-2.93h-.67v2.93Zm-6.58,2.14v-3.19h.72v-.48h-.72v-.34c0-.22.04-.37.12-.45.08-.08.21-.12.4-.12.11,0,.24.01.37.03l.09-.54c-.21-.04-.41-.06-.58-.06-.27,0-.48.05-.63.15-.15.1-.26.23-.32.39-.04.12-.07.3-.07.55v.39h-.55v.48h.55v3.19h.62Zm-3.99-2.89c.21-.23.46-.35.78-.35s.56.12.77.35c.21.23.31.58.31,1.03,0,.48-.1.84-.31,1.08-.21.24-.46.35-.77.35s-.57-.12-.78-.35-.31-.59-.31-1.06.1-.82.31-1.06Zm-.47,2.48c.32.33.73.49,1.25.49.32,0,.62-.07.89-.22s.48-.36.62-.63c.14-.27.21-.64.21-1.12,0-.58-.16-1.04-.48-1.37-.32-.33-.73-.5-1.24-.5-.46,0-.84.14-1.16.41-.38.33-.57.83-.57,1.51,0,.62.16,1.1.48,1.42Zm-5.52.2c.25.2.61.3,1.09.3.29,0,.55-.05.77-.15.23-.1.4-.24.52-.43.12-.18.18-.38.18-.59s-.05-.39-.15-.53c-.1-.14-.24-.25-.41-.33-.17-.07-.48-.17-.92-.29-.3-.08-.49-.14-.55-.16-.11-.04-.19-.1-.24-.17l-.08-.22c0-.13.06-.24.18-.33.12-.09.33-.14.61-.14.24,0,.43.05.56.16.13.11.21.25.24.44l.61-.08c-.04-.24-.11-.43-.22-.57-.1-.14-.26-.25-.48-.34-.22-.08-.47-.12-.76-.12-.19,0-.37.03-.54.07-.17.05-.3.11-.4.18-.13.09-.23.21-.31.35-.07.14-.11.29-.11.46,0,.18.05.34.14.49.09.15.22.26.4.35.18.08.49.18.95.3.34.08.55.16.64.21.12.08.18.19.18.33,0,.16-.07.29-.21.41-.14.12-.35.18-.64.18s-.51-.07-.66-.2c-.16-.13-.25-.32-.29-.57l-.62.1c.07.39.23.68.48.88Zm-3.38-2.74c.2-.19.44-.29.72-.29.32,0,.57.12.77.36.13.15.21.39.23.7h-2.05c.02-.32.13-.58.32-.77Zm1.34,2.35c-.16.12-.36.18-.58.18-.31,0-.56-.11-.77-.32-.21-.21-.32-.52-.34-.93h2.74v-.17c0-.61-.15-1.08-.46-1.41-.31-.33-.71-.5-1.2-.5s-.92.17-1.24.51c-.32.34-.48.82-.48,1.44s.16,1.06.47,1.39c.31.33.74.5,1.28.5.43,0,.78-.1,1.05-.31.27-.21.46-.5.56-.88l-.64-.08c-.09.26-.22.45-.38.57Zm-3.59-.04c-.16.15-.37.23-.61.23-.3,0-.55-.11-.74-.34-.19-.22-.28-.58-.28-1.08s.1-.84.29-1.07c.2-.22.45-.34.76-.34.21,0,.38.06.53.19.15.12.25.31.31.56l.61-.09c-.07-.37-.23-.66-.49-.86-.25-.2-.58-.3-.98-.3-.32,0-.61.07-.88.22-.27.15-.47.37-.6.67-.13.3-.2.64-.2,1.04,0,.61.15,1.08.46,1.41.31.33.71.49,1.21.49.4,0,.74-.12,1.02-.36.28-.24.45-.57.51-.99l-.61-.08c-.04.31-.15.54-.31.69Zm-3.03.65v-3.67h-.62v3.67h.62Zm0-4.35v-.72h-.62v.72h.62Zm-3.7,1.46c.2-.25.44-.37.7-.37s.5.12.69.35c.19.23.29.58.29,1.05s-.1.85-.3,1.09c-.2.23-.43.35-.71.35s-.5-.11-.7-.34c-.19-.23-.29-.58-.29-1.05s.1-.83.31-1.08Zm-.25,4.3v-1.79c.11.13.24.24.41.33.16.09.35.13.56.13.28,0,.55-.08.81-.24.26-.16.45-.39.59-.69s.2-.64.2-1.02c0-.35-.06-.67-.18-.97-.12-.29-.3-.52-.54-.68-.24-.16-.52-.24-.83-.24-.24,0-.44.05-.61.14s-.32.23-.45.42v-.48h-.57v5.08h.62Zm-3.93-1.62c.25.2.61.3,1.09.3.29,0,.55-.05.77-.15.23-.1.4-.24.52-.43.12-.18.18-.38.18-.59s-.05-.39-.15-.53c-.1-.14-.24-.25-.41-.33-.17-.07-.48-.17-.92-.29-.3-.08-.49-.14-.55-.16-.11-.04-.19-.1-.24-.17l-.08-.22c0-.13.06-.24.18-.33.12-.09.33-.14.61-.14.24,0,.43.05.56.16.13.11.21.25.24.44l.61-.08c-.04-.24-.11-.43-.22-.57-.1-.14-.26-.25-.48-.34-.22-.08-.47-.12-.76-.12-.19,0-.37.03-.54.07-.17.05-.3.11-.4.18-.13.09-.23.21-.31.35-.07.14-.11.29-.11.46,0,.18.05.34.14.49.09.15.22.26.4.35.18.08.49.18.95.3.34.08.55.16.64.21.12.08.18.19.18.33,0,.16-.07.29-.21.41-.14.12-.35.18-.64.18s-.51-.07-.66-.2c-.16-.13-.25-.32-.29-.57l-.62.1c.07.39.23.68.48.88Zm-1.21.21v-3.67h-.62v1.97c0,.31-.03.55-.1.72s-.18.3-.35.39c-.16.1-.34.14-.53.14s-.34-.05-.47-.14c-.13-.09-.21-.22-.25-.38-.03-.11-.04-.33-.04-.66v-2.04h-.62v2.28c0,.26.01.46.04.58.04.18.1.34.19.46.09.13.23.23.42.31.19.08.39.12.61.12.49,0,.88-.21,1.17-.62v.54h.56Zm-4.56-1.62c0,.27-.03.48-.1.62-.09.18-.22.33-.41.43-.19.1-.4.16-.64.16s-.43-.05-.55-.17c-.13-.11-.19-.25-.19-.42,0-.11.03-.21.09-.3.06-.09.14-.16.25-.2.11-.05.29-.09.54-.13.45-.06.79-.14,1.02-.23v.23Zm.18,1.62h.65c-.08-.14-.13-.29-.16-.44-.03-.15-.04-.52-.04-1.1v-.83c0-.28-.01-.47-.03-.57-.04-.17-.1-.31-.19-.42-.09-.11-.24-.2-.43-.28-.2-.07-.45-.11-.77-.11s-.59.04-.83.13c-.24.09-.42.21-.55.37-.13.16-.22.37-.27.63l.61.08c.07-.26.17-.44.31-.55.14-.1.35-.15.65-.15.31,0,.55.07.71.21.12.1.18.28.18.54v.16c-.24.08-.61.15-1.11.21-.25.03-.43.06-.55.09-.17.05-.31.11-.45.2-.13.09-.24.21-.32.36-.08.15-.12.31-.12.49,0,.31.11.56.33.76.22.2.53.3.93.3.24,0,.47-.04.69-.12.21-.08.44-.22.67-.42.02.17.06.32.12.45Zm-7.64-2.96c.2-.19.44-.29.72-.29.32,0,.57.12.77.36.13.15.21.39.23.7h-2.05c.02-.32.13-.58.32-.77Zm1.34,2.35c-.16.12-.36.18-.58.18-.31,0-.56-.11-.77-.32-.21-.21-.32-.52-.34-.93h2.74v-.17c0-.61-.15-1.08-.46-1.41-.31-.33-.71-.5-1.2-.5s-.92.17-1.24.51c-.32.34-.48.82-.48,1.44s.16,1.06.47,1.39c.31.33.74.5,1.28.5.43,0,.78-.1,1.05-.31.27-.21.46-.5.56-.88l-.64-.08c-.09.26-.22.45-.38.57Zm-5.45.61v-2.01c0-.29.03-.51.1-.68.07-.16.18-.29.35-.39.16-.1.34-.14.52-.14.25,0,.44.07.57.21.13.14.2.37.2.68v2.33h.62v-2.33c0-.36-.04-.63-.13-.82-.09-.19-.23-.34-.43-.44-.2-.11-.44-.16-.71-.16-.44,0-.81.17-1.1.51v-1.82h-.62v5.07h.62Zm-1.5-.53l-.21-.05-.11-.12c-.02-.05-.03-.17-.03-.34v-2.15h.63v-.48h-.63v-1.28l-.62.37v.91h-.46v.48h.46v2.11c0,.37.03.62.08.74.05.12.14.21.26.28.12.07.3.11.53.11.14,0,.29-.02.47-.05l-.09-.55c-.11.02-.2.02-.27.02Zm-4.8.53v-1.92c0-.26.03-.5.1-.73.05-.14.12-.26.23-.34.11-.08.23-.12.37-.12.15,0,.3.04.46.13l.21-.58c-.22-.13-.43-.2-.64-.2-.15,0-.28.04-.4.12-.12.08-.25.25-.4.52v-.56h-.56v3.67h.62Zm-3.76-2.96c.2-.19.44-.29.72-.29.32,0,.57.12.77.36.13.15.21.39.23.7h-2.05c.02-.32.13-.58.32-.77Zm1.34,2.35c-.16.12-.36.18-.58.18-.31,0-.56-.11-.77-.32-.21-.21-.32-.52-.34-.93h2.74v-.17c0-.61-.15-1.08-.46-1.41-.31-.33-.71-.5-1.2-.5s-.92.17-1.24.51c-.32.34-.48.82-.48,1.44s.16,1.06.47,1.39c.31.33.74.5,1.28.5.43,0,.78-.1,1.05-.31.27-.21.46-.5.56-.88l-.64-.08c-.09.26-.22.45-.38.57Zm-5.38-2.29c.19-.23.42-.34.69-.34s.52.12.72.35c.19.23.29.6.29,1.11,0,.46-.1.8-.29,1.02-.19.22-.42.34-.69.34s-.5-.12-.7-.35c-.2-.23-.3-.58-.3-1.05s.09-.84.28-1.07Zm2.27,2.9v-5.07h-.62v1.82c-.11-.15-.25-.27-.42-.36s-.37-.14-.59-.14c-.3,0-.58.08-.82.24-.24.16-.43.39-.55.69-.12.3-.18.63-.18,1s.07.71.2,1c.13.29.33.52.57.68.25.16.51.24.81.24.45,0,.79-.18,1.03-.55v.46h.58Zm-6.28,0v-2.01c0-.47.1-.79.29-.96.19-.17.42-.25.69-.25.17,0,.31.04.43.11.12.07.21.18.26.3.05.13.07.32.07.57v2.23h.62v-2.26c0-.29-.01-.49-.03-.61-.04-.18-.1-.33-.19-.46-.09-.13-.23-.23-.42-.31-.19-.08-.39-.12-.61-.12-.51,0-.9.2-1.17.61v-.52h-.56v3.67h.62Zm-1.6,0v-3.67h-.62v1.97c0,.31-.03.55-.1.72s-.18.3-.35.39c-.16.1-.34.14-.53.14s-.34-.05-.47-.14c-.13-.09-.21-.22-.25-.38-.03-.11-.04-.33-.04-.66v-2.04h-.62v2.28c0,.26.01.46.04.58.04.18.1.34.19.46.09.13.23.23.42.31.19.08.39.12.61.12.49,0,.88-.21,1.17-.62v.54h.56Z"/><g class="cls-3"><path d="m63.72,48.46c-.54.54-1.25.83-2.01.83-1.57,0-2.85-1.28-2.85-2.85s1.28-2.85,2.85-2.85c.75,0,1.46.29,2,.82l.07.07,1.3-2.76-.05-.04c-.98-.69-2.13-1.06-3.34-1.06-3.19,0-5.79,2.6-5.79,5.78s2.6,5.79,5.79,5.79c1.2,0,2.35-.37,3.33-1.06l.05-.04-1.28-2.72-.07.07Z"/><path d="m71.92,40.65c-3.18,0-5.77,2.59-5.77,5.77s2.59,5.77,5.77,5.77,5.77-2.59,5.77-5.77-2.59-5.77-5.77-5.77m.01,8.65c-1.57,0-2.84-1.28-2.84-2.84s1.28-2.84,2.84-2.84,2.84,1.28,2.84,2.84-1.28,2.84-2.84,2.84"/><path d="m8.74,41v5.97c0,.49.05,1.24.61,1.75.24.22.68.51,1.46.51.65,0,1.16-.22,1.48-.51.51-.49.58-1.21.58-1.75v-5.97h3.5v6.31c0,1.24-.12,2.4-1.21,3.47-1.24,1.21-3.06,1.41-4.35,1.41s-3.13-.19-4.37-1.41c-1-.97-1.19-2.06-1.19-3.25v-6.53h3.5Z"/><path d="m19.08,41h3.5v1.29c1.07-1.36,2.33-1.58,3.35-1.58.95,0,2.18.17,3.11,1.09,1.02,1.02,1.09,2.31,1.09,3.18v6.85h-3.5v-5.56c0-.7-.02-1.6-.58-2.16-.27-.27-.7-.49-1.33-.49-.73,0-1.19.29-1.46.58-.58.58-.68,1.36-.68,2.06v5.56h-3.5v-10.83Z"/><path d="m43.94,47.02h-8.08c0,.58.22,1.36.66,1.85.53.58,1.26.68,1.8.68s1.04-.1,1.41-.32c.05-.02.46-.29.75-.9l3.3.34c-.49,1.53-1.46,2.33-2.09,2.72-1.04.63-2.21.8-3.42.8-1.63,0-3.06-.29-4.32-1.55-.95-.95-1.63-2.38-1.63-4.18,0-1.55.56-3.16,1.65-4.27,1.31-1.31,2.94-1.55,4.15-1.55s2.96.22,4.3,1.63c1.29,1.36,1.53,3.06,1.53,4.39v.36Zm-3.23-2.09c-.02-.1-.19-.78-.7-1.26-.39-.36-.95-.61-1.65-.61-.9,0-1.43.36-1.77.7-.27.29-.51.68-.61,1.17h4.73Z"/><path d="m52.75,43.77c-.53-.32-1.24-.61-1.92-.61-.36,0-.78.1-1,.32-.12.12-.22.32-.22.49,0,.24.17.39.34.49.24.15.61.22,1.04.36l.92.29c.61.19,1.24.44,1.8.95.63.58.85,1.24.85,2.06,0,1.43-.63,2.35-1.12,2.84-1.07,1.07-2.38,1.24-3.52,1.24-1.46,0-3.03-.31-4.44-1.55l1.48-2.36c.34.29.83.63,1.19.8.49.24,1,.34,1.46.34.22,0,.78,0,1.09-.24.22-.17.36-.44.36-.7,0-.19-.07-.44-.39-.63-.24-.15-.56-.24-1.07-.39l-.87-.27c-.63-.19-1.29-.53-1.75-1-.51-.53-.78-1.14-.78-1.97,0-1.04.41-1.92,1.04-2.5.97-.9,2.28-1.09,3.28-1.09,1.6,0,2.72.41,3.59.92l-1.38,2.21Z"/></g><rect x="5.24" y="8.54" width="71.3" height="26.01"/><rect class="cls-1" x="32.4" y="26.35" width="16.87" height=".71"/><rect class="cls-1" x="31.44" y="27.55" width="18.74" height=".71"/><rect class="cls-1" x="30.56" y="28.76" width="20.55" height=".71"/><polygon class="cls-1" points="35.81 16.98 40.82 15.48 45.75 16.98 47.8 16.98 40.82 14.82 33.76 16.98 35.81 16.98"/><polygon class="cls-1" points="40.82 13.62 32.4 16.22 32.4 16.98 40.82 14.42 49.27 16.98 49.27 16.22 40.82 13.62"/><g class="cls-2"><path class="cls-1" d="m33.39,25.44s0,.53.6.53.57-.53.57-.53v-6.86h-.44v6.88s0,.12-.16.12-.12-.16-.12-.16v-6.84h-.44v6.86Z"/><polygon class="cls-1" points="36.16 25.97 36.52 25.97 36.52 21.52 36.96 25.97 37.33 25.97 37.33 18.57 36.96 18.57 36.96 22.53 36.52 18.57 36.16 18.57 36.16 25.97"/><polygon class="cls-1" points="38.97 25.97 40.11 25.97 40.11 25.58 39.47 25.58 39.47 22.24 39.95 22.24 39.95 21.83 39.47 21.83 39.47 18.95 39.95 18.95 39.95 18.57 38.97 18.57 38.97 25.97"/><path class="cls-1" d="m45.48,20.77v-1.66s-.02-.53-.58-.53-.57.53-.57.53v6.33s-.02.53.57.53.58-.53.58-.53v-1.86h-.44v1.86s0,.14-.14.14c-.13,0-.16-.14-.16-.14v-6.33s0-.16.16-.16c.14,0,.14.16.14.16v1.66h.44Z"/><path class="cls-1" d="m47.87,25.44s.02.14-.16.14-.18-.14-.18-.14v-6.33s0-.16.16-.16c.18,0,.18.16.18.16v6.33Zm.42-6.33s.03-.53-.58-.53-.62.53-.62.53v6.33s0,.53.58.53c.62,0,.62-.53.62-.53v-6.33Z"/><path class="cls-1" d="m42.25,25.44s0,.14-.11.13c-.12,0-.12-.13-.12-.13v-1.86h-.46v1.86s-.02.53.57.53.58-.53.58-.53c0,0,0-1.24,0-1.6,0-.87-.69-2.52-.69-3.07v-1.66s-.02-.16.11-.16.12.16.12.16v1.66h.46v-1.66s.02-.55-.57-.53c-.58.02-.58.53-.58.53v1.41c0,.93.69,2.49.69,3.21v1.71Z"/><rect class="cls-1" x="32.4" y="17.44" width="16.87" height=".71"/><path d="m8.2,61.68c-.18.1-.58.19-1.08.19-1.33,0-2.14-.87-2.14-2.2,0-1.44.96-2.31,2.24-2.31.5,0,.87.11,1.02.19l-.17.64c-.2-.09-.47-.17-.82-.17-.85,0-1.47.56-1.47,1.61,0,.96.54,1.58,1.46,1.58.31,0,.63-.06.83-.16l.12.63Z"/><path d="m9.19,60.45c.02.57.45.82.93.82.35,0,.61-.05.84-.14l.11.55c-.26.11-.62.19-1.06.19-.98,0-1.56-.63-1.56-1.6,0-.88.51-1.7,1.48-1.7s1.31.84,1.31,1.54c0,.15-.01.27-.02.34h-2.03Zm1.33-.56c0-.29-.12-.77-.63-.77-.47,0-.67.45-.7.77h1.33Z"/><path d="m11.78,59.59c0-.36,0-.67-.03-.94h.67l.04.47h.02c.13-.25.46-.54.96-.54.53,0,1.08.36,1.08,1.36v1.87h-.77v-1.78c0-.45-.16-.8-.58-.8-.3,0-.52.23-.6.47-.02.07-.03.17-.03.26v1.85h-.77v-2.22Z"/><path d="m16.07,57.75v.9h.73v.6h-.73v1.39c0,.38.1.58.39.58.13,0,.23-.02.3-.04v.61c-.1.05-.3.08-.54.08-.28,0-.52-.1-.66-.26-.16-.18-.24-.47-.24-.88v-1.48h-.44v-.6h.44v-.71l.75-.19Z"/><path d="m17.25,59.67c0-.43,0-.73-.03-1.02h.67l.02.6h.03c.15-.45.5-.67.83-.67.07,0,.12,0,.18.02v.75c-.06-.01-.13-.03-.22-.03-.37,0-.62.25-.68.6-.01.07-.02.16-.02.25v1.63h-.77v-2.14Z"/><path d="m19.9,60.45c.02.57.45.82.93.82.35,0,.61-.05.84-.14l.11.55c-.26.11-.62.19-1.06.19-.98,0-1.56-.63-1.56-1.6,0-.88.51-1.7,1.48-1.7s1.31.84,1.31,1.54c0,.15-.01.27-.02.34h-2.03Zm1.33-.56c0-.29-.12-.77-.63-.77-.47,0-.67.45-.7.77h1.33Z"/><path d="m5.96,64.73v2.55c0,.86.34,1.25.86,1.25.55,0,.88-.4.88-1.25v-2.55h.77v2.5c0,1.35-.67,1.94-1.67,1.94s-1.6-.56-1.6-1.94v-2.5h.77Z"/><path d="m9.19,66.88c0-.36,0-.67-.03-.94h.67l.04.47h.02c.13-.25.46-.54.96-.54.53,0,1.08.36,1.08,1.36v1.87h-.77v-1.78c0-.45-.16-.8-.58-.8-.3,0-.52.23-.6.47-.02.07-.03.17-.03.26v1.85h-.77v-2.22Z"/><path d="m15.45,64.5v3.71c0,.32.01.67.02.89h-.68l-.03-.5h-.01c-.18.35-.55.57-.99.57-.72,0-1.29-.64-1.29-1.61,0-1.06.63-1.69,1.36-1.69.42,0,.72.18.85.42h.01v-1.79h.77Zm-.77,2.76c0-.06,0-.14-.02-.21-.07-.31-.31-.56-.66-.56-.49,0-.77.45-.77,1.04s.27,1,.76,1c.31,0,.58-.22.66-.56.02-.07.03-.15.03-.23v-.47Z"/><path d="m16.71,67.75c.02.57.45.82.93.82.35,0,.61-.05.84-.14l.11.55c-.26.11-.62.19-1.06.19-.98,0-1.56-.63-1.56-1.6,0-.88.51-1.7,1.48-1.7s1.31.84,1.31,1.54c0,.15-.01.27-.02.34h-2.03Zm1.33-.56c0-.29-.12-.77-.63-.77-.47,0-.67.45-.7.77h1.33Z"/><path d="m19.3,66.96c0-.43,0-.73-.03-1.02h.67l.02.6h.03c.15-.45.5-.67.83-.67.07,0,.12,0,.18.02v.75c-.06-.01-.13-.03-.22-.03-.37,0-.62.25-.68.6-.01.07-.02.16-.02.25v1.63h-.77v-2.14Z"/><path d="m23.57,65.04v.9h.73v.6h-.73v1.39c0,.38.1.58.39.58.13,0,.23-.02.3-.04v.61c-.1.05-.3.08-.54.08-.28,0-.52-.1-.66-.26-.16-.18-.24-.47-.24-.88v-1.48h-.44v-.6h.44v-.71l.75-.19Z"/><path d="m24.76,64.5h.77v1.88h.01c.09-.15.22-.27.38-.36.15-.09.33-.14.52-.14.52,0,1.06.36,1.06,1.37v1.86h-.77v-1.77c0-.46-.16-.8-.58-.8-.3,0-.51.21-.59.45-.02.06-.03.15-.03.24v1.89h-.77v-4.6Z"/><path d="m28.76,67.75c.02.57.45.82.93.82.35,0,.61-.05.84-.14l.11.55c-.26.11-.62.19-1.06.19-.98,0-1.56-.63-1.56-1.6,0-.88.51-1.7,1.48-1.7s1.31.84,1.31,1.54c0,.15-.01.27-.02.34h-2.03Zm1.33-.56c0-.29-.12-.77-.63-.77-.47,0-.67.45-.7.77h1.33Z"/><path d="m34.31,69.1l-.05-.35h-.02c-.19.25-.5.42-.9.42-.61,0-.95-.46-.95-.94,0-.8.68-1.2,1.8-1.19v-.05c0-.21-.08-.55-.62-.55-.3,0-.61.1-.82.23l-.15-.52c.22-.14.62-.28,1.1-.28.97,0,1.25.64,1.25,1.33v1.14c0,.29.01.56.04.76h-.69Zm-.1-1.54c-.54-.01-1.06.11-1.06.59,0,.31.19.45.44.45.3,0,.53-.21.6-.43.02-.06.03-.12.03-.18v-.43Z"/><path d="m38.35,68.15c0,.38.01.69.03.95h-.67l-.04-.48h-.01c-.13.23-.43.55-.97.55s-1.06-.34-1.06-1.37v-1.85h.77v1.72c0,.53.16.86.57.86.3,0,.5-.23.58-.43.03-.07.04-.16.04-.25v-1.91h.77v2.21Z"/><path d="m39.03,68.37c.17.11.5.23.78.23.34,0,.49-.14.49-.35s-.12-.32-.5-.46c-.59-.21-.84-.55-.83-.92,0-.56.44-.99,1.15-.99.34,0,.63.09.8.19l-.15.56c-.13-.08-.37-.18-.64-.18s-.42.14-.42.33.14.3.53.44c.55.21.8.5.81.97,0,.57-.43.99-1.23.99-.37,0-.7-.09-.92-.22l.15-.58Z"/><path d="m41.55,66.99c0-.41-.01-.75-.02-1.05h.67l.04.49h.01c.22-.36.58-.56,1.04-.56.7,0,1.28.62,1.28,1.61,0,1.14-.69,1.69-1.38,1.69-.38,0-.7-.17-.85-.42h-.01v1.63h-.77v-3.39Zm.77.78c0,.08,0,.15.03.22.07.32.35.56.67.56.49,0,.77-.42.77-1.04,0-.56-.26-1.01-.75-1.01-.32,0-.61.24-.68.59-.02.06-.03.14-.03.2v.49Z"/><path d="m45.92,65.06c0,.24-.17.43-.44.43s-.42-.19-.42-.43.17-.44.43-.44.42.19.43.44m-.82.88h.77v3.16h-.77v-3.16Z"/><path d="m48.81,69c-.16.08-.48.16-.86.16-.95,0-1.56-.63-1.56-1.61s.62-1.69,1.69-1.69c.28,0,.57.06.74.15l-.14.6c-.12-.06-.3-.12-.58-.12-.58,0-.93.45-.93,1.02,0,.65.4,1.02.93,1.02.27,0,.45-.06.6-.12l.11.59Z"/><path d="m49.76,67.75c.02.57.45.82.93.82.35,0,.61-.05.84-.14l.11.55c-.26.11-.62.19-1.06.19-.98,0-1.56-.63-1.56-1.6,0-.88.51-1.7,1.48-1.7s1.31.84,1.31,1.54c0,.15-.01.27-.02.34h-2.03Zm1.33-.56c0-.29-.12-.77-.63-.77-.47,0-.67.45-.7.77h1.33Z"/><path d="m52.3,68.37c.17.11.5.23.78.23.34,0,.49-.14.49-.35s-.12-.32-.5-.46c-.59-.21-.84-.55-.83-.92,0-.56.44-.99,1.15-.99.34,0,.63.09.8.19l-.15.56c-.13-.08-.37-.18-.64-.18s-.42.14-.42.33.14.3.53.44c.55.21.8.5.81.97,0,.57-.43.99-1.23.99-.37,0-.7-.09-.92-.22l.15-.58Z"/><path d="m8.05,74.78c0,1.16-.78,1.68-1.56,1.68-.86,0-1.52-.62-1.52-1.63s.65-1.67,1.57-1.67,1.51.66,1.51,1.62m-2.28.03c0,.61.29,1.07.75,1.07.44,0,.74-.45.74-1.08,0-.49-.21-1.06-.73-1.06s-.76.54-.76,1.07"/><path d="m8.67,76.39v-2.56h-.41v-.6h.41v-.14c0-.41.11-.82.37-1.08.22-.22.53-.3.79-.3.21,0,.37.03.49.08l-.06.62c-.08-.03-.19-.06-.32-.06-.38,0-.51.33-.51.72v.16h.67v.6h-.66v2.56h-.77Z"/><path d="m12.53,72.02v2.55c0,.86.34,1.25.86,1.25.55,0,.88-.4.88-1.25v-2.55h.77v2.5c0,1.35-.67,1.94-1.67,1.94s-1.6-.56-1.6-1.94v-2.5h.77Z"/><path d="m15.83,76.39v-4.37h.87l1.08,1.87c.28.49.52.99.72,1.46h.01c-.05-.58-.07-1.15-.07-1.81v-1.52h.71v4.37h-.79l-1.1-1.92c-.27-.48-.55-1.02-.75-1.51h-.02c.03.57.04,1.15.04,1.87v1.56h-.7Z"/><polygon points="22.31 74.45 20.73 74.45 20.73 75.74 22.49 75.74 22.49 76.39 19.96 76.39 19.96 72.02 22.4 72.02 22.4 72.68 20.73 72.68 20.73 73.8 22.31 73.8 22.31 74.45"/><path d="m23.05,75.52c.25.15.62.28,1.01.28.49,0,.77-.24.77-.6,0-.33-.21-.53-.75-.73-.69-.26-1.13-.64-1.13-1.27,0-.71.57-1.26,1.48-1.26.45,0,.79.1,1.01.22l-.19.64c-.15-.08-.44-.21-.83-.21-.49,0-.7.27-.7.53,0,.34.24.49.8.72.73.29,1.08.67,1.08,1.3,0,.7-.51,1.31-1.59,1.31-.44,0-.9-.13-1.13-.27l.17-.66Z"/><path d="m29.19,76.26c-.18.1-.58.19-1.08.19-1.33,0-2.14-.87-2.14-2.2,0-1.44.96-2.31,2.24-2.31.5,0,.87.11,1.02.19l-.17.64c-.2-.09-.47-.17-.82-.17-.85,0-1.47.56-1.47,1.61,0,.96.54,1.58,1.46,1.58.31,0,.64-.06.83-.16l.12.63Z"/><path d="m33.28,74.16c0,1.46-.85,2.3-2.01,2.3s-1.93-.94-1.93-2.22.81-2.29,1.99-2.29,1.95.97,1.95,2.21m-3.13.06c0,.89.43,1.6,1.16,1.6s1.16-.71,1.16-1.63c0-.82-.39-1.6-1.16-1.6s-1.16.73-1.16,1.63"/></g></svg>