<?xml version="1.0" encoding="UTF-8"?><svg id="Layer_1" xmlns="http://www.w3.org/2000/svg" xmlns:xlink="http://www.w3.org/1999/xlink" viewBox="0 0 200 85"><defs><style>.cls-1{fill:#fff;}.cls-2{fill:#0071bb;}.cls-3{clip-path:url(#clippath-1);}.cls-4{clip-path:url(#clippath);}.cls-5{fill:none;}.cls-6{fill:#fc3;}.cls-7{fill:#231f20;}</style><clipPath id="clippath"><rect class="cls-5" x="3.81" y="4.5" width="79.23" height="76"/></clipPath><clipPath id="clippath-1"><rect class="cls-5" x="3.81" y="4.5" width="79.23" height="76"/></clipPath></defs><path class="cls-6" d="m155.64,10.05c-.12-.12-.29-.19-.46-.19h-20.65c-.17,0-.34.07-.46.19-.12.12-.19.29-.19.46v32.74c0,.17.07.34.19.46.12.12.29.19.46.19h20.65c.17,0,.34-.07.46-.19.12-.12.19-.29.19-.46V10.52c0-.17-.07-.34-.19-.46Z"/><path d="m101.75,28.88h2.37c.21,0,.37.17.37.37v12.96c0,.21-.17.37-.37.37h-2.37c-.21,0-.37-.17-.37-.37v-12.96c0-.21.17-.37.37-.37Z"/><path d="m107.47,29.25c0-.2.16-.37.37-.37h5.9c2.37,0,4.3,1.9,4.3,4.23,0,1.8-1.2,3.25-2.92,3.94l2.7,4.97c.14.26,0,.57-.34.57h-2.62c-.16,0-.28-.1-.32-.18l-2.62-5.19h-1.36v4.99c0,.2-.18.37-.37.37h-2.35c-.22,0-.37-.18-.37-.37v-12.96Zm6.02,5.48c.81,0,1.5-.74,1.5-1.57s-.69-1.49-1.5-1.49h-2.92v3.05h2.92Z"/><path d="m127.12,28.49c1.97,0,3.43.61,4.77,1.82.18.16.18.39.02.55l-1.54,1.59c-.14.14-.36.14-.49,0-.73-.65-1.7-1-2.66-1-2.23,0-3.87,1.84-3.87,4.03s1.66,3.98,3.89,3.98c.93,0,1.93-.33,2.64-.94.14-.12.39-.12.51.02l1.54,1.63c.14.14.12.39-.02.53-1.34,1.29-3.04,1.9-4.79,1.9-3.95,0-7.12-3.11-7.12-7.03s3.18-7.07,7.12-7.07Z"/><path d="m150.7,28.88h2.37c.21,0,.37.17.37.37v12.96c0,.21-.17.37-.37.37h-2.37c-.21,0-.37-.17-.37-.37v-12.96c0-.21.17-.37.37-.37Z"/><path d="m148.85,41.99c.12.25-.04.51-.34.51h-2.62c-.16,0-.3-.12-.34-.21l-3.26-7.15h-.12l-3.26,7.15c-.04.1-.18.21-.34.21h-2.62c-.3,0-.45-.25-.34-.51l6.2-13.18c.06-.12.18-.22.34-.22h.2c.16,0,.28.1.34.22l6.16,13.18Z"/><path class="cls-7" d="m188.66,53.41c.19-.18.42-.28.69-.28.3,0,.55.12.74.34.12.15.2.37.22.67h-1.96c.02-.31.12-.55.31-.73Zm1.28,2.25c-.15.12-.34.17-.56.17-.29,0-.54-.1-.73-.31-.2-.21-.31-.5-.33-.89h2.62v-.16c0-.58-.15-1.03-.44-1.35-.3-.32-.68-.48-1.15-.48s-.88.16-1.19.49c-.3.33-.46.79-.46,1.38s.15,1.02.45,1.33c.3.32.71.47,1.22.47.41,0,.74-.1,1.01-.3.26-.2.44-.48.54-.84l-.62-.08c-.09.25-.21.43-.37.55Zm-3.71.58v-1.84c0-.25.03-.48.1-.7.04-.14.12-.25.22-.33.1-.08.22-.12.35-.12.15,0,.29.04.44.13l.21-.55c-.21-.13-.41-.19-.61-.19-.14,0-.27.04-.38.12-.12.08-.24.24-.38.49v-.53h-.54v3.52h.6Zm-1.43-.51l-.2-.04-.1-.12s-.03-.16-.03-.33v-2.06h.6v-.46h-.6v-1.23l-.59.36v.87h-.44v.46h.44v2.02c0,.36.02.59.07.7.05.11.13.2.25.27.12.07.29.1.5.1.13,0,.28-.02.45-.05l-.09-.53c-.11.02-.2.02-.26.02Zm-4.22.51v-1.92c0-.45.09-.76.28-.92.18-.16.4-.24.66-.24.16,0,.3.04.42.11.12.07.2.17.25.29.05.12.07.3.07.54v2.14h.6v-2.16c0-.28-.01-.47-.03-.58-.04-.17-.1-.32-.19-.44-.09-.12-.22-.22-.4-.3-.18-.08-.37-.11-.59-.11-.49,0-.86.19-1.12.58v-.5h-.54v3.52h.6Zm-3.61-2.83c.19-.18.42-.28.69-.28.3,0,.55.12.74.34.12.15.2.37.22.67h-1.96c.02-.31.12-.55.31-.73Zm1.28,2.25c-.15.12-.34.17-.56.17-.29,0-.54-.1-.73-.31-.2-.21-.31-.5-.33-.89h2.62v-.16c0-.58-.15-1.03-.44-1.35-.3-.32-.68-.48-1.15-.48s-.88.16-1.19.49c-.3.33-.46.79-.46,1.38s.15,1.02.45,1.33c.3.32.71.47,1.22.47.41,0,.74-.1,1.01-.3.26-.2.44-.48.54-.84l-.62-.08c-.09.25-.21.43-.37.55Zm-3.9-.19c-.25.21-.55.31-.91.31-.29,0-.57-.08-.82-.23-.25-.15-.44-.38-.56-.69-.12-.31-.18-.67-.18-1.08,0-.32.05-.63.15-.93.1-.3.28-.54.53-.72.25-.18.56-.27.94-.27.32,0,.59.08.81.24.21.16.38.42.49.77l.63-.15c-.13-.45-.36-.8-.69-1.04-.33-.25-.74-.37-1.22-.37-.43,0-.82.1-1.18.29-.36.2-.63.48-.82.86-.19.38-.29.82-.29,1.32,0,.46.09.9.26,1.3.17.4.42.71.75.92.33.21.75.32,1.28.32s.93-.14,1.28-.42c.35-.28.59-.68.73-1.21l-.64-.16c-.09.41-.26.72-.51.92Zm-8.09.78v-1.92c0-.28.03-.49.1-.65.07-.16.18-.28.33-.37.16-.09.32-.14.5-.14.24,0,.42.07.55.2.13.14.19.35.19.65v2.23h.6v-2.23c0-.34-.04-.61-.12-.79-.08-.18-.22-.32-.41-.43-.19-.1-.42-.15-.68-.15-.42,0-.77.16-1.05.48v-1.74h-.6v4.85h.6Zm-1.99-.63c-.16.14-.35.22-.59.22-.29,0-.53-.11-.71-.32-.18-.21-.27-.56-.27-1.03s.09-.81.28-1.02c.19-.21.43-.32.73-.32.2,0,.37.06.51.18.14.12.24.3.29.53l.58-.09c-.07-.36-.22-.63-.47-.82-.24-.19-.56-.29-.94-.29-.3,0-.58.07-.84.21-.26.14-.45.36-.57.64-.13.28-.19.62-.19,1,0,.59.15,1.04.44,1.35.29.31.68.47,1.16.47.38,0,.71-.11.97-.34.26-.23.43-.54.49-.95l-.59-.08c-.04.3-.14.52-.3.66Zm-3.67.63v-1.84c0-.25.03-.48.1-.7.04-.14.12-.25.22-.33.1-.08.22-.12.35-.12.15,0,.29.04.44.13l.21-.55c-.21-.13-.41-.19-.61-.19-.14,0-.27.04-.38.12-.12.08-.24.24-.38.49v-.53h-.54v3.52h.6Zm-2.12-1.55c0,.26-.03.46-.1.6-.08.18-.21.31-.39.41-.18.1-.38.15-.61.15s-.41-.05-.53-.16c-.12-.11-.18-.24-.18-.4,0-.1.03-.2.08-.28.06-.08.13-.15.23-.19.1-.04.28-.08.52-.12.43-.06.76-.14.97-.22v.22Zm.17,1.55h.62c-.07-.13-.12-.28-.15-.42-.03-.15-.04-.5-.04-1.05v-.79c0-.26,0-.45-.03-.55-.04-.16-.1-.3-.19-.41-.09-.11-.23-.2-.41-.27-.19-.07-.43-.11-.73-.11s-.57.04-.8.13c-.23.08-.4.2-.53.35-.12.15-.21.36-.26.6l.58.08c.06-.25.16-.42.3-.52.13-.1.34-.15.62-.15.3,0,.53.07.68.2.11.1.17.27.17.51v.16c-.23.08-.58.15-1.07.21-.24.03-.41.06-.53.09-.16.04-.3.11-.43.2-.13.09-.23.2-.31.34-.08.14-.12.3-.12.47,0,.29.1.53.31.72.21.19.5.28.89.28.23,0,.45-.04.66-.12.2-.08.42-.21.64-.4.02.17.06.31.12.43Zm-5.42-2.83c.19-.18.42-.28.69-.28.3,0,.55.12.74.34.12.15.2.37.22.67h-1.96c.02-.31.12-.55.31-.73Zm1.28,2.25c-.15.12-.34.17-.56.17-.29,0-.54-.1-.73-.31-.2-.21-.31-.5-.33-.89h2.62v-.16c0-.58-.15-1.03-.44-1.35-.3-.32-.68-.48-1.15-.48s-.88.16-1.19.49c-.3.33-.46.79-.46,1.38s.15,1.02.45,1.33c.3.32.71.47,1.22.47.41,0,.74-.1,1.01-.3.26-.2.44-.48.54-.84l-.62-.08c-.09.25-.21.43-.37.55Zm-5.21.38c.24.19.59.28,1.04.28.28,0,.52-.05.74-.14.22-.1.39-.23.5-.41.12-.18.17-.36.17-.56s-.05-.37-.14-.51c-.1-.14-.23-.24-.39-.31-.17-.07-.46-.16-.88-.28-.29-.08-.47-.13-.53-.15-.1-.04-.18-.1-.23-.16l-.07-.21c0-.12.06-.23.18-.32.12-.09.31-.14.59-.14.23,0,.41.05.54.15.13.1.2.24.23.42l.58-.08c-.04-.23-.11-.41-.21-.54-.1-.14-.25-.24-.46-.32s-.45-.12-.73-.12c-.18,0-.35.02-.51.07-.16.05-.29.11-.38.17-.12.09-.22.2-.29.33s-.11.28-.11.44c0,.17.04.33.13.47.09.14.21.25.38.33.17.08.47.18.91.29.32.08.53.15.61.2.12.08.18.18.18.32,0,.15-.07.28-.2.39-.13.11-.34.17-.61.17s-.48-.06-.63-.19c-.15-.13-.24-.31-.28-.54l-.59.09c.07.37.22.65.46.84Zm-3.23-2.62c.19-.18.42-.28.69-.28.3,0,.55.12.74.34.12.15.2.37.22.67h-1.96c.02-.31.12-.55.31-.73Zm1.28,2.25c-.15.12-.34.17-.56.17-.29,0-.54-.1-.73-.31-.2-.21-.31-.5-.33-.89h2.62v-.16c0-.58-.15-1.03-.44-1.35-.3-.32-.68-.48-1.15-.48s-.88.16-1.19.49c-.3.33-.46.79-.46,1.38s.15,1.02.45,1.33c.3.32.71.47,1.22.47.41,0,.74-.1,1.01-.3.26-.2.44-.48.54-.84l-.62-.08c-.09.25-.21.43-.37.55Zm-6.21-3.73h1.54c.36,0,.62.07.79.22.17.15.25.34.25.57,0,.16-.04.3-.13.44-.09.13-.21.23-.38.29s-.4.09-.69.09h-1.38v-1.61Zm0,4.32v-2.16h.75c.17,0,.29,0,.36.02.1.02.2.07.29.13.1.06.21.17.33.32.12.15.28.38.46.67l.64,1.01h.81l-.84-1.32c-.17-.26-.35-.47-.53-.64-.09-.08-.22-.16-.39-.24.47-.06.81-.21,1.03-.45s.33-.53.33-.87c0-.27-.07-.51-.2-.73-.13-.22-.31-.37-.54-.46s-.55-.13-.99-.13h-2.15v4.85h.64Zm-3.53,0v-4.85h-.6v4.85h.6Zm-2.11-1.55c0,.26-.03.46-.1.6-.08.18-.21.31-.39.41-.18.1-.38.15-.61.15s-.41-.05-.53-.16c-.12-.11-.18-.24-.18-.4,0-.1.03-.2.08-.28.06-.08.13-.15.23-.19.1-.04.28-.08.52-.12.43-.06.76-.14.97-.22v.22Zm.17,1.55h.62c-.07-.13-.12-.28-.15-.42-.03-.15-.04-.5-.04-1.05v-.79c0-.26,0-.45-.03-.55-.04-.16-.1-.3-.19-.41-.09-.11-.23-.2-.41-.27-.19-.07-.43-.11-.73-.11s-.57.04-.8.13c-.23.08-.4.2-.53.35-.12.15-.21.36-.26.6l.58.08c.06-.25.16-.42.3-.52.13-.1.34-.15.62-.15.3,0,.53.07.68.2.11.1.17.27.17.51v.16c-.23.08-.58.15-1.07.21-.24.03-.41.06-.53.09-.16.04-.3.11-.43.2-.13.09-.23.2-.31.34-.08.14-.12.3-.12.47,0,.29.1.53.31.72.21.19.5.28.89.28.23,0,.45-.04.66-.12.2-.08.42-.21.64-.4.02.17.06.31.12.43Zm-5.59,0v-1.92c0-.45.09-.76.28-.92.18-.16.4-.24.66-.24.16,0,.3.04.42.11.12.07.2.17.25.29.05.12.07.3.07.54v2.14h.6v-2.16c0-.28-.01-.47-.03-.58-.04-.17-.1-.32-.19-.44-.09-.12-.22-.22-.4-.3-.18-.08-.37-.11-.59-.11-.49,0-.86.19-1.12.58v-.5h-.54v3.52h.6Zm-3.68-2.77c.2-.22.44-.33.74-.33s.54.11.74.34c.2.22.3.55.3.99,0,.46-.1.8-.29,1.03-.2.23-.44.34-.74.34s-.55-.11-.74-.34-.29-.56-.29-1.01.1-.79.29-1.01Zm-.45,2.37c.3.32.7.47,1.19.47.31,0,.59-.07.85-.21s.46-.34.59-.6c.14-.26.2-.62.2-1.07,0-.56-.15-1-.46-1.31-.31-.32-.7-.48-1.18-.48-.44,0-.8.13-1.11.39-.36.31-.54.8-.54,1.45,0,.59.15,1.05.45,1.36Zm-1.14.39v-3.52h-.6v3.52h.6Zm0-4.17v-.69h-.6v.69h.6Zm-1.44,3.66l-.2-.04-.1-.12s-.03-.16-.03-.33v-2.06h.6v-.46h-.6v-1.23l-.59.36v.87h-.44v.46h.44v2.02c0,.36.02.59.07.7.05.11.13.2.25.27.12.07.29.1.5.1.13,0,.28-.02.45-.05l-.09-.53c-.11.02-.2.02-.26.02Zm-2.57-1.04c0,.26-.03.46-.1.6-.08.18-.21.31-.39.41-.18.1-.38.15-.61.15s-.41-.05-.53-.16c-.12-.11-.18-.24-.18-.4,0-.1.03-.2.08-.28.06-.08.13-.15.23-.19.1-.04.28-.08.52-.12.43-.06.76-.14.97-.22v.22Zm.17,1.55h.62c-.07-.13-.12-.28-.15-.42-.03-.15-.04-.5-.04-1.05v-.79c0-.26,0-.45-.03-.55-.04-.16-.1-.3-.19-.41-.09-.11-.23-.2-.41-.27-.19-.07-.43-.11-.73-.11s-.57.04-.8.13c-.23.08-.4.2-.53.35-.12.15-.21.36-.26.6l.58.08c.06-.25.16-.42.3-.52.13-.1.34-.15.62-.15.3,0,.53.07.68.2.11.1.17.27.17.51v.16c-.23.08-.58.15-1.07.21-.24.03-.41.06-.53.09-.16.04-.3.11-.43.2-.13.09-.23.2-.31.34-.08.14-.12.3-.12.47,0,.29.1.53.31.72.21.19.5.28.89.28.23,0,.45-.04.66-.12.2-.08.42-.21.64-.4.02.17.06.31.12.43Zm-5.59,0v-1.92c0-.45.09-.76.28-.92.18-.16.4-.24.66-.24.16,0,.3.04.42.11.12.07.2.17.25.29.05.12.07.3.07.54v2.14h.6v-2.16c0-.28-.01-.47-.03-.58-.04-.17-.1-.32-.19-.44-.09-.12-.22-.22-.4-.3-.18-.08-.37-.11-.59-.11-.49,0-.86.19-1.12.58v-.5h-.54v3.52h.6Zm-2.26,0v-1.84c0-.25.03-.48.1-.7.04-.14.12-.25.22-.33.1-.08.22-.12.35-.12.15,0,.29.04.44.13l.21-.55c-.21-.13-.41-.19-.61-.19-.14,0-.27.04-.38.12-.12.08-.24.24-.38.49v-.53h-.54v3.52h.6Zm-3.6-2.83c.19-.18.42-.28.69-.28.3,0,.55.12.74.34.12.15.2.37.22.67h-1.96c.02-.31.12-.55.31-.73Zm1.28,2.25c-.15.12-.34.17-.56.17-.29,0-.54-.1-.73-.31-.2-.21-.31-.5-.33-.89h2.62v-.16c0-.58-.15-1.03-.44-1.35-.3-.32-.68-.48-1.15-.48s-.88.16-1.19.49c-.3.33-.46.79-.46,1.38s.15,1.02.45,1.33c.3.32.71.47,1.22.47.41,0,.74-.1,1.01-.3.26-.2.44-.48.54-.84l-.62-.08c-.09.25-.21.43-.37.55Zm-2.88.07l-.2-.04-.1-.12s-.03-.16-.03-.33v-2.06h.6v-.46h-.6v-1.23l-.59.36v.87h-.44v.46h.44v2.02c0,.36.02.59.07.7.05.11.13.2.25.27.12.07.29.1.5.1.13,0,.28-.02.45-.05l-.09-.53c-.11.02-.2.02-.26.02Zm-4.22.51v-1.92c0-.45.09-.76.28-.92.18-.16.4-.24.66-.24.16,0,.3.04.42.11.12.07.2.17.25.29.05.12.07.3.07.54v2.14h.6v-2.16c0-.28-.01-.47-.03-.58-.04-.17-.1-.32-.19-.44-.09-.12-.22-.22-.4-.3-.18-.08-.37-.11-.59-.11-.49,0-.86.19-1.12.58v-.5h-.54v3.52h.6Zm-1.65,0v-4.85h-.64v4.85h.64Z"/><path class="cls-7" d="m167.17,60.74c.19-.18.42-.28.69-.28.3,0,.55.12.74.34.12.15.2.37.22.67h-1.96c.02-.31.12-.55.31-.73Zm1.28,2.25c-.15.12-.34.17-.56.17-.29,0-.54-.1-.73-.31-.2-.21-.31-.5-.33-.89h2.62v-.16c0-.58-.15-1.03-.44-1.35-.3-.32-.68-.48-1.15-.48s-.88.16-1.19.49c-.3.33-.46.79-.46,1.38s.15,1.02.45,1.33c.3.32.71.47,1.22.47.41,0,.74-.1,1.01-.3.26-.2.44-.48.54-.84l-.62-.08c-.09.25-.21.43-.37.55Zm-3.43-.04c-.16.14-.35.22-.59.22-.29,0-.53-.11-.71-.32-.18-.21-.27-.56-.27-1.03s.09-.81.28-1.02c.19-.21.43-.32.73-.32.2,0,.37.06.51.18.14.12.24.3.29.53l.58-.09c-.07-.36-.22-.63-.47-.82-.24-.19-.56-.29-.94-.29-.3,0-.58.07-.84.21-.26.14-.45.36-.57.64-.13.29-.19.62-.19,1,0,.59.15,1.04.44,1.35.29.31.68.47,1.16.47.38,0,.71-.11.97-.34.26-.23.43-.54.49-.95l-.59-.08c-.04.3-.14.52-.3.66Zm-5.17.63v-1.92c0-.45.09-.76.28-.92.18-.16.4-.24.66-.24.16,0,.3.04.42.11.12.07.2.17.25.29.05.12.07.3.07.54v2.14h.6v-2.16c0-.28-.01-.47-.03-.58-.04-.17-.1-.32-.19-.44-.09-.12-.22-.22-.4-.3-.18-.08-.37-.11-.59-.11-.49,0-.86.19-1.12.58v-.5h-.54v3.52h.6Zm-3.61-2.83c.19-.18.42-.28.69-.28.3,0,.55.12.74.34.12.15.2.37.22.67h-1.96c.02-.31.12-.55.31-.73Zm1.28,2.25c-.15.12-.34.17-.56.17-.29,0-.54-.1-.73-.31-.2-.21-.31-.5-.33-.89h2.62v-.16c0-.58-.15-1.03-.44-1.35-.3-.32-.68-.48-1.15-.48s-.88.16-1.19.49c-.3.33-.46.79-.46,1.38s.15,1.02.45,1.33c.3.32.71.47,1.22.47.41,0,.74-.1,1.01-.3.26-.2.44-.48.54-.84l-.62-.08c-.09.25-.21.43-.37.55Zm-5.15-2.2c.19-.22.41-.32.68-.32s.5.11.69.33c.19.22.29.54.29.97s-.09.78-.28.99c-.19.21-.42.32-.69.32s-.51-.11-.69-.32c-.18-.21-.27-.55-.27-1.01,0-.42.09-.74.28-.96Zm-.4,3.92c.26.19.6.28,1.02.28.35,0,.65-.07.89-.2.24-.13.42-.31.53-.54.11-.23.17-.62.17-1.16v-3.04h-.55v.42c-.27-.34-.61-.5-1.03-.5-.31,0-.58.08-.81.23-.23.16-.41.37-.53.66-.12.28-.18.59-.18.93,0,.49.13.91.4,1.25.26.35.64.52,1.12.52.39,0,.71-.15.97-.46,0,.39-.01.64-.04.76-.05.2-.15.35-.31.46-.15.11-.36.17-.64.17-.26,0-.46-.05-.61-.17-.11-.08-.18-.21-.2-.39l-.58-.09c0,.38.12.66.37.85Zm-1.17-1.14v-3.52h-.6v3.52h.6Zm0-4.17v-.69h-.6v.69h.6Zm-1.52,4.17v-4.85h-.6v4.85h.6Zm-1.51,0v-4.85h-.6v4.85h.6Zm-3.59-2.83c.19-.18.42-.28.69-.28.3,0,.55.12.74.34.12.15.2.37.22.67h-1.96c.02-.31.12-.55.31-.73Zm1.28,2.25c-.15.12-.34.17-.56.17-.29,0-.54-.1-.73-.31-.2-.21-.31-.5-.33-.89h2.62v-.16c0-.58-.15-1.03-.44-1.35-.3-.32-.68-.48-1.15-.48s-.88.16-1.19.49c-.3.33-.46.79-.46,1.38s.15,1.02.45,1.33c.3.32.71.47,1.22.47.41,0,.74-.1,1.01-.3.26-.2.44-.48.54-.84l-.62-.08c-.09.25-.21.43-.37.55Zm-2.88.07l-.2-.04-.1-.12s-.03-.16-.03-.33v-2.06h.6v-.46h-.6v-1.23l-.59.36v.87h-.44v.46h.44v2.02c0,.36.02.59.07.7.05.11.13.2.25.27.12.07.29.1.5.1.13,0,.28-.02.45-.05l-.09-.53c-.11.01-.2.02-.26.02Zm-4.22.51v-1.92c0-.45.09-.76.28-.92.18-.16.4-.24.66-.24.16,0,.3.04.42.11.12.07.2.17.25.29.05.12.07.3.07.54v2.14h.6v-2.16c0-.28-.01-.47-.03-.58-.04-.17-.1-.32-.19-.44-.09-.12-.22-.22-.4-.3-.18-.08-.37-.11-.59-.11-.49,0-.86.19-1.12.58v-.5h-.54v3.52h.6Zm-1.65,0v-4.85h-.64v4.85h.64Zm-3.64,0v-4.85h-.6v4.85h.6Zm-2.11-1.55c0,.26-.03.46-.1.6-.08.18-.21.31-.39.41-.18.1-.38.15-.61.15s-.41-.05-.53-.16c-.12-.11-.18-.24-.18-.4,0-.1.03-.2.08-.28.06-.08.13-.15.23-.19.1-.04.28-.08.52-.12.43-.06.76-.14.97-.22v.22Zm.17,1.55h.62c-.07-.13-.12-.28-.15-.42-.03-.15-.04-.5-.04-1.05v-.79c0-.27,0-.45-.03-.55-.04-.16-.1-.3-.19-.41-.09-.11-.23-.2-.41-.27-.19-.07-.43-.11-.73-.11s-.57.04-.8.12c-.23.08-.4.2-.53.35-.12.15-.21.36-.26.6l.58.08c.06-.25.16-.42.3-.52.13-.1.34-.15.62-.15.3,0,.53.07.68.2.11.1.17.27.17.51v.16c-.23.08-.58.15-1.07.21-.24.03-.41.06-.53.09-.16.04-.3.11-.43.2-.13.09-.23.2-.31.34-.08.14-.12.3-.12.47,0,.29.1.54.31.72.21.19.5.28.89.28.23,0,.45-.04.66-.12.2-.08.42-.21.64-.4.02.17.06.31.12.43Zm-3.32,0v-3.52h-.6v3.52h.6Zm0-4.17v-.69h-.6v.69h.6Zm-1.99,3.54c-.16.14-.35.22-.59.22-.29,0-.53-.11-.71-.32-.18-.21-.27-.56-.27-1.03s.09-.81.28-1.02c.19-.21.43-.32.73-.32.2,0,.37.06.51.18.14.12.24.3.29.53l.58-.09c-.07-.36-.22-.63-.47-.82-.24-.19-.56-.29-.94-.29-.3,0-.58.07-.84.21-.26.14-.45.36-.57.64-.13.29-.19.62-.19,1,0,.59.15,1.04.44,1.35.29.31.68.47,1.16.47.38,0,.71-.11.97-.34.26-.23.43-.54.49-.95l-.59-.08c-.04.3-.14.52-.3.66Zm-2.9.63v-3.52h-.6v3.52h.6Zm0-4.17v-.69h-.6v.69h.6Zm-1.75,4.17v-3.05h.68v-.46h-.68v-.32c0-.21.04-.36.11-.43.07-.08.2-.12.38-.12.11,0,.23.01.35.03l.09-.52c-.2-.04-.39-.06-.56-.06-.26,0-.46.05-.61.14-.14.1-.25.22-.3.38-.04.11-.06.29-.06.53v.37h-.53v.46h.53v3.05h.59Zm-1.64,0v-3.52h-.6v3.52h.6Zm0-4.17v-.69h-.6v.69h.6Zm-1.44,3.66l-.2-.04-.1-.12s-.03-.16-.03-.33v-2.06h.6v-.46h-.6v-1.23l-.59.36v.87h-.44v.46h.44v2.02c0,.36.02.59.07.7.05.11.13.2.25.27.12.07.29.1.5.1.13,0,.28-.02.45-.05l-.09-.53c-.11.01-.2.02-.26.02Zm-2.71.51v-1.84c0-.25.03-.48.1-.7.04-.14.12-.25.22-.33.1-.08.22-.12.35-.12.15,0,.29.04.44.13l.21-.55c-.21-.13-.41-.19-.61-.19-.14,0-.27.04-.38.12-.12.08-.24.24-.38.49v-.53h-.54v3.52h.6Zm-3.64-3.42c.11-.31.2-.62.26-.93.07.26.19.6.34,1.01l.51,1.34h-1.65l.53-1.42Zm-1.25,3.42l.53-1.47h2.03l.57,1.47h.73l-1.99-4.85h-.69l-1.86,4.85h.68Zm-4.91,0v-1.92c0-.45.09-.76.28-.92.18-.16.4-.24.66-.24.16,0,.3.04.42.11.12.07.2.17.25.29.05.12.07.3.07.54v2.14h.6v-2.16c0-.28-.01-.47-.03-.58-.04-.17-.1-.32-.19-.44-.09-.12-.22-.22-.4-.3-.18-.08-.37-.11-.59-.11-.49,0-.86.19-1.12.58v-.5h-.54v3.52h.6Zm-3.68-2.77c.2-.22.44-.33.74-.33s.54.11.74.34c.2.22.3.55.3.99,0,.46-.1.81-.29,1.03-.2.23-.44.34-.74.34s-.55-.11-.74-.34c-.2-.22-.29-.56-.29-1.01s.1-.79.29-1.01Zm-.45,2.37c.3.32.7.47,1.19.47.31,0,.59-.07.85-.21s.46-.34.59-.6c.14-.26.2-.62.2-1.07,0-.56-.15-1-.46-1.31-.31-.32-.7-.48-1.18-.48-.44,0-.8.13-1.11.39-.36.31-.54.8-.54,1.45,0,.59.15,1.05.45,1.36Z"/><path class="cls-7" d="m192.7,66.98c.33-.31.72-.47,1.17-.47.32,0,.61.08.87.24.26.16.45.39.59.69.13.29.2.64.2,1.03,0,.62-.16,1.11-.47,1.45-.31.34-.71.51-1.19.51s-.87-.17-1.18-.51c-.32-.34-.47-.8-.47-1.38,0-.73.16-1.25.49-1.56Zm-.88,2.77c.19.38.46.68.82.9.36.22.77.33,1.22.33.42,0,.81-.1,1.18-.3.36-.2.65-.49.84-.88.2-.39.3-.83.3-1.32s-.09-.92-.28-1.3c-.19-.38-.46-.68-.82-.89-.36-.21-.76-.32-1.21-.32-.68,0-1.24.23-1.68.68-.43.46-.65,1.09-.65,1.89,0,.42.09.83.28,1.21Zm-2.02.37c-.25.21-.55.31-.91.31-.29,0-.57-.08-.82-.23-.25-.15-.44-.38-.56-.69-.12-.31-.18-.67-.18-1.08,0-.32.05-.63.15-.93.1-.3.28-.54.53-.72.25-.18.56-.27.94-.27.32,0,.59.08.81.24.21.16.38.42.49.77l.63-.15c-.13-.45-.36-.8-.69-1.04-.33-.25-.74-.37-1.22-.37-.43,0-.82.1-1.18.29-.36.2-.63.48-.82.86-.19.38-.29.82-.29,1.32,0,.46.09.9.26,1.3.17.4.42.71.75.92.33.21.75.32,1.28.32s.93-.14,1.28-.42c.35-.28.59-.68.73-1.21l-.64-.16c-.09.41-.26.72-.51.92Zm-7.43.09c.17.26.4.45.7.58s.66.19,1.1.19c.35,0,.66-.06.93-.19.28-.13.49-.3.64-.53.15-.23.22-.47.22-.73s-.07-.49-.2-.69c-.13-.2-.34-.36-.63-.49-.19-.09-.55-.19-1.07-.31-.52-.12-.84-.23-.97-.35-.13-.11-.19-.26-.19-.43,0-.2.09-.37.27-.51.18-.14.46-.21.85-.21s.65.08.85.24c.19.16.3.39.34.7l.62-.05c-.01-.29-.09-.54-.24-.76-.15-.23-.36-.4-.63-.51-.28-.12-.59-.17-.95-.17-.33,0-.62.06-.89.17-.27.11-.47.27-.61.48-.14.21-.21.44-.21.69,0,.22.06.42.17.6.11.18.29.33.52.45.18.1.49.2.94.3.45.11.73.19.86.24.2.08.35.17.44.29.09.11.13.25.13.4s-.05.29-.14.42c-.09.13-.23.23-.42.3-.19.07-.4.11-.65.11-.28,0-.52-.05-.75-.14-.22-.1-.38-.22-.49-.38-.1-.16-.17-.35-.2-.6l-.61.05c0,.32.1.62.27.87Zm-.94.69v-.57h-2.98v-1.65h2.68v-.57h-2.68v-1.49h2.87v-.57h-3.51v4.85h3.62Zm-7.92,0v-3.81l2.55,3.81h.66v-4.85h-.62v3.81l-2.55-3.81h-.66v4.85h.62Zm-2.32-2.05c0,.61-.1,1.02-.3,1.23-.2.21-.54.32-1.01.32-.28,0-.51-.05-.7-.16-.19-.11-.33-.26-.4-.46-.08-.2-.12-.51-.12-.93v-2.8h-.64v2.8c0,.51.06.92.19,1.22.12.3.33.52.62.68.29.16.66.24,1.12.24s.85-.09,1.13-.27c.29-.18.49-.41.6-.7.11-.29.17-.67.17-1.16v-2.8h-.64v2.8Zm-6.29,2.05v-3.05h.68v-.46h-.68v-.32c0-.21.04-.36.11-.43.07-.08.2-.12.38-.12.11,0,.23.01.35.03l.09-.52c-.2-.04-.39-.06-.56-.06-.26,0-.46.05-.61.14-.14.1-.25.22-.3.38-.04.11-.06.29-.06.53v.37h-.53v.46h.53v3.05h.59Zm-3.82-2.77c.2-.22.44-.33.74-.33s.54.11.74.34c.2.22.3.55.3.99,0,.46-.1.81-.29,1.03-.2.23-.44.34-.74.34s-.55-.11-.74-.34-.29-.56-.29-1.01.1-.79.29-1.01Zm-.45,2.37c.3.32.7.47,1.19.47.31,0,.59-.07.85-.21s.46-.34.59-.6c.14-.26.2-.62.2-1.07,0-.56-.15-1-.46-1.31-.31-.32-.7-.48-1.18-.48-.44,0-.8.13-1.11.39-.36.31-.54.8-.54,1.45,0,.59.15,1.05.45,1.36Zm-5.29.19c.24.19.59.28,1.04.28.28,0,.52-.05.74-.14.22-.1.39-.23.5-.41.12-.18.17-.36.17-.56s-.05-.37-.14-.51c-.1-.14-.23-.24-.39-.31-.17-.07-.46-.16-.88-.28-.29-.08-.47-.13-.53-.15-.1-.04-.18-.1-.23-.16l-.07-.21c0-.12.06-.23.18-.32.12-.09.31-.14.59-.14.23,0,.41.05.54.15.13.1.2.24.23.42l.58-.08c-.04-.23-.11-.41-.21-.54-.1-.14-.25-.24-.46-.32-.21-.08-.45-.12-.73-.12-.18,0-.35.02-.51.07-.16.05-.29.11-.38.17-.12.09-.22.2-.29.33-.07.13-.11.28-.11.44,0,.17.04.33.13.47.09.14.21.25.38.33.17.08.47.18.91.29.32.08.53.15.61.2.12.08.18.18.18.32,0,.15-.07.28-.2.39-.13.11-.34.17-.61.17s-.48-.06-.63-.19c-.15-.13-.24-.31-.28-.54l-.59.09c.07.37.22.65.46.84Zm-3.23-2.62c.19-.18.42-.28.69-.28.3,0,.55.12.74.34.12.15.2.37.22.67h-1.96c.02-.31.12-.55.31-.73Zm1.28,2.25c-.15.12-.34.17-.56.17-.29,0-.54-.1-.73-.31-.2-.21-.31-.5-.33-.89h2.62v-.16c0-.58-.15-1.03-.44-1.35-.3-.32-.68-.48-1.15-.48s-.88.16-1.19.49c-.3.33-.46.79-.46,1.38s.15,1.02.45,1.33c.3.32.71.47,1.22.47.41,0,.74-.1,1.01-.3.26-.2.44-.48.54-.84l-.62-.08c-.09.25-.21.43-.37.55Zm-3.43-.04c-.16.14-.35.22-.59.22-.29,0-.53-.11-.71-.32-.18-.21-.27-.56-.27-1.03s.09-.81.28-1.02c.19-.21.43-.32.73-.32.2,0,.37.06.51.18.14.12.24.3.29.53l.58-.09c-.07-.36-.22-.63-.47-.82-.24-.19-.56-.29-.94-.29-.3,0-.58.07-.84.21-.26.14-.45.36-.57.64-.13.29-.19.62-.19,1,0,.59.15,1.04.44,1.35.29.31.68.47,1.16.47.38,0,.71-.11.97-.34.26-.23.43-.54.49-.95l-.59-.08c-.04.3-.14.52-.3.66Zm-2.9.63v-3.52h-.6v3.52h.6Zm0-4.17v-.69h-.6v.69h.6Zm-3.54,1.4c.2-.24.42-.36.67-.36s.48.11.66.34c.18.22.28.56.28,1.01s-.09.82-.28,1.04c-.19.22-.42.34-.68.34s-.48-.11-.67-.32c-.18-.22-.27-.55-.27-1s.1-.8.29-1.03Zm-.24,4.12v-1.71c.1.13.23.23.39.32.16.08.34.13.53.13.27,0,.53-.08.78-.23.25-.15.43-.37.56-.66s.19-.61.19-.97c0-.34-.06-.64-.18-.92-.12-.28-.29-.5-.52-.65-.23-.15-.49-.23-.79-.23-.23,0-.43.04-.59.13s-.31.22-.43.4v-.46h-.54v4.86h.6Zm-3.76-1.55c.24.19.59.28,1.04.28.28,0,.52-.05.74-.14.22-.1.39-.23.5-.41.12-.18.17-.36.17-.56s-.05-.37-.14-.51c-.1-.14-.23-.24-.39-.31-.17-.07-.46-.16-.88-.28-.29-.08-.47-.13-.53-.15-.1-.04-.18-.1-.23-.16l-.07-.21c0-.12.06-.23.18-.32.12-.09.31-.14.59-.14.23,0,.41.05.54.15.13.1.2.24.23.42l.58-.08c-.04-.23-.11-.41-.21-.54-.1-.14-.25-.24-.46-.32-.21-.08-.45-.12-.73-.12-.18,0-.35.02-.51.07-.16.05-.29.11-.38.17-.12.09-.22.2-.29.33-.07.13-.11.28-.11.44,0,.17.04.33.13.47.09.14.21.25.38.33.17.08.47.18.91.29.32.08.53.15.61.2.12.08.18.18.18.32,0,.15-.07.28-.2.39-.13.11-.34.17-.61.17s-.48-.06-.63-.19c-.15-.13-.24-.31-.28-.54l-.59.09c.07.37.22.65.46.84Zm-1.15.21v-3.52h-.6v1.88c0,.3-.03.53-.1.69s-.18.28-.33.37c-.16.09-.32.14-.5.14s-.33-.04-.45-.13c-.12-.09-.2-.21-.24-.37-.02-.11-.04-.32-.04-.63v-1.95h-.6v2.18c0,.25.01.44.04.56.04.18.1.32.18.44.09.12.22.22.4.3.18.08.37.12.58.12.47,0,.84-.2,1.12-.6v.52h.53Zm-4.36-1.55c0,.26-.03.46-.1.6-.08.18-.21.31-.39.41-.18.1-.38.15-.61.15s-.41-.05-.53-.16c-.12-.11-.18-.24-.18-.4,0-.1.03-.2.08-.28.06-.08.13-.15.23-.19.1-.04.28-.08.52-.12.43-.06.76-.14.97-.22v.22Zm.17,1.55h.62c-.07-.13-.12-.28-.15-.42-.03-.15-.04-.5-.04-1.05v-.79c0-.27,0-.45-.03-.55-.04-.16-.1-.3-.19-.41-.09-.11-.23-.2-.41-.27-.19-.07-.43-.11-.73-.11s-.57.04-.8.12c-.23.08-.4.2-.53.35-.12.15-.21.36-.26.6l.58.08c.06-.25.16-.42.3-.52.13-.1.34-.15.62-.15.3,0,.53.07.68.2.11.1.17.27.17.51v.16c-.23.08-.58.15-1.07.21-.24.03-.41.06-.53.09-.16.04-.3.11-.43.2-.13.09-.23.2-.31.34-.08.14-.12.3-.12.47,0,.29.1.54.31.72.21.19.5.28.89.28.23,0,.45-.04.66-.12.2-.08.42-.21.64-.4.02.17.06.31.12.43Zm-7.31-2.83c.19-.18.42-.28.69-.28.3,0,.55.12.74.34.12.15.2.37.22.67h-1.96c.02-.31.12-.55.31-.73Zm1.28,2.25c-.15.12-.34.17-.56.17-.29,0-.54-.1-.73-.31-.2-.21-.31-.5-.33-.89h2.62v-.16c0-.58-.15-1.03-.44-1.35-.3-.32-.68-.48-1.15-.48s-.88.16-1.19.49c-.3.33-.46.79-.46,1.38s.15,1.02.45,1.33c.3.32.71.47,1.22.47.41,0,.74-.1,1.01-.3.26-.2.44-.48.54-.84l-.62-.08c-.09.25-.21.43-.37.55Zm-5.21.58v-1.92c0-.28.03-.49.1-.65.07-.16.18-.28.33-.37.16-.09.32-.14.5-.14.24,0,.42.07.55.2.13.14.19.35.19.65v2.23h.6v-2.23c0-.34-.04-.61-.12-.79-.08-.18-.22-.32-.41-.42-.19-.1-.42-.15-.68-.15-.42,0-.77.16-1.05.48v-1.74h-.6v4.85h.6Zm-1.44-.51l-.2-.04-.1-.12s-.03-.16-.03-.33v-2.06h.6v-.46h-.6v-1.23l-.59.36v.87h-.44v.46h.44v2.02c0,.36.02.59.07.7.05.11.13.2.25.27.12.07.29.1.5.1.13,0,.28-.02.45-.05l-.09-.53c-.11.01-.2.02-.26.02Zm-4.59.51v-1.84c0-.25.03-.48.1-.7.04-.14.12-.25.22-.33.1-.08.22-.12.35-.12.15,0,.29.04.44.13l.21-.55c-.21-.13-.41-.19-.61-.19-.14,0-.27.04-.38.12-.12.08-.24.24-.38.49v-.53h-.54v3.52h.6Zm-3.6-2.83c.19-.18.42-.28.69-.28.3,0,.55.12.74.34.12.15.2.37.22.67h-1.96c.02-.31.12-.55.31-.73Zm1.28,2.25c-.15.12-.34.17-.56.17-.29,0-.54-.1-.73-.31-.2-.21-.31-.5-.33-.89h2.62v-.16c0-.58-.15-1.03-.44-1.35-.3-.32-.68-.48-1.15-.48s-.88.16-1.19.49c-.3.33-.46.79-.46,1.38s.15,1.02.45,1.33c.3.32.71.47,1.22.47.41,0,.74-.1,1.01-.3.26-.2.44-.48.54-.84l-.62-.08c-.09.25-.21.43-.37.55Zm-5.15-2.19c.18-.22.4-.32.66-.32s.5.11.68.34c.19.22.28.58.28,1.06,0,.44-.09.76-.27.97-.18.21-.4.32-.66.32s-.48-.11-.67-.34c-.19-.22-.29-.56-.29-1.01s.09-.81.27-1.02Zm2.17,2.78v-4.85h-.59v1.74c-.1-.14-.24-.26-.4-.35s-.35-.13-.57-.13c-.29,0-.55.08-.78.23-.23.15-.41.37-.53.66-.12.28-.18.6-.18.95s.06.68.19.95c.13.28.31.49.55.65.23.15.49.23.77.23.43,0,.76-.17.98-.52v.44h.55Zm-6.01,0v-1.92c0-.45.09-.76.28-.92.18-.16.4-.24.66-.24.16,0,.3.04.42.11.12.07.2.17.25.29.05.12.07.3.07.54v2.14h.6v-2.16c0-.28-.01-.47-.03-.58-.04-.17-.1-.32-.19-.44-.09-.12-.22-.22-.4-.3-.18-.08-.37-.11-.59-.11-.49,0-.86.19-1.12.58v-.5h-.54v3.52h.6Zm-1.53,0v-3.52h-.6v1.88c0,.3-.03.53-.1.69s-.18.28-.33.37c-.16.09-.32.14-.5.14s-.33-.04-.45-.13c-.12-.09-.2-.21-.24-.37-.02-.11-.04-.32-.04-.63v-1.95h-.6v2.18c0,.25.01.44.04.56.04.18.1.32.18.44.09.12.22.22.4.3.18.08.37.12.58.12.47,0,.84-.2,1.12-.6v.52h.53Z"/><g class="cls-4"><path class="cls-2" d="m65.28,48.21c-.51.51-1.2.8-1.93.8-1.5,0-2.73-1.22-2.73-2.73s1.22-2.73,2.73-2.73c.72,0,1.4.28,1.91.79l.07.07,1.24-2.64-.05-.03c-.94-.66-2.04-1.02-3.19-1.02-3.05,0-5.54,2.48-5.54,5.54s2.48,5.54,5.54,5.54c1.15,0,2.25-.35,3.19-1.01l.05-.03-1.22-2.6-.07.07Z"/><path class="cls-2" d="m73.12,40.73c-3.05,0-5.53,2.48-5.53,5.53s2.48,5.53,5.53,5.53,5.53-2.48,5.53-5.53-2.48-5.53-5.53-5.53m.01,8.28c-1.5,0-2.72-1.22-2.72-2.72s1.22-2.72,2.72-2.72,2.72,1.22,2.72,2.72-1.22,2.72-2.72,2.72"/><path class="cls-2" d="m12.65,41.06v5.72c0,.46.05,1.19.58,1.67.23.21.65.49,1.39.49.63,0,1.11-.21,1.42-.49.49-.46.56-1.16.56-1.67v-5.72h3.35v6.04c0,1.19-.12,2.3-1.16,3.32-1.19,1.16-2.93,1.35-4.16,1.35s-3-.19-4.18-1.35c-.95-.93-1.14-1.97-1.14-3.11v-6.25h3.35Z"/><path class="cls-2" d="m22.55,41.06h3.35v1.23c1.02-1.3,2.23-1.51,3.21-1.51.91,0,2.09.16,2.97,1.05.98.98,1.05,2.21,1.05,3.04v6.55h-3.35v-5.32c0-.67-.02-1.53-.56-2.07-.26-.26-.67-.46-1.28-.46-.7,0-1.14.28-1.39.56-.56.56-.65,1.3-.65,1.97v5.32h-3.35v-10.36Z"/><path class="cls-2" d="m46.34,46.82h-7.74c0,.56.21,1.3.63,1.77.51.56,1.21.65,1.72.65s1-.09,1.35-.3c.05-.02.44-.28.72-.86l3.16.32c-.46,1.46-1.39,2.23-2,2.6-1,.6-2.11.77-3.28.77-1.56,0-2.93-.28-4.14-1.49-.91-.91-1.56-2.28-1.56-4,0-1.49.53-3.02,1.58-4.09,1.25-1.26,2.81-1.49,3.97-1.49s2.83.21,4.11,1.56c1.23,1.3,1.46,2.93,1.46,4.21v.35Zm-3.09-2c-.02-.09-.19-.74-.67-1.21-.37-.35-.91-.58-1.58-.58-.86,0-1.37.35-1.7.67-.26.28-.49.65-.58,1.12h4.53Z"/><path class="cls-2" d="m54.77,43.71c-.51-.3-1.19-.58-1.84-.58-.35,0-.74.09-.95.3-.12.12-.21.3-.21.47,0,.23.16.37.33.46.23.14.58.21,1,.35l.88.28c.58.19,1.19.42,1.72.91.6.56.81,1.18.81,1.98,0,1.37-.6,2.25-1.07,2.72-1.02,1.02-2.28,1.18-3.37,1.18-1.39,0-2.9-.3-4.25-1.49l1.42-2.25c.32.28.79.6,1.14.77.46.23.95.33,1.39.33.21,0,.74,0,1.05-.23.21-.16.35-.42.35-.67,0-.19-.07-.42-.37-.6-.23-.14-.53-.23-1.02-.37l-.84-.26c-.6-.19-1.23-.51-1.67-.95-.49-.51-.74-1.09-.74-1.88,0-1,.39-1.84,1-2.39.93-.86,2.18-1.05,3.14-1.05,1.53,0,2.6.4,3.44.88l-1.32,2.11Z"/></g><rect class="cls-2" x="9.31" y="9.99" width="68.24" height="24.89"/><rect class="cls-1" x="35.3" y="27.04" width="16.15" height=".68"/><rect class="cls-1" x="34.38" y="28.2" width="17.94" height=".68"/><rect class="cls-1" x="33.54" y="29.35" width="19.67" height=".68"/><polygon class="cls-1" points="38.56 18.08 43.36 16.64 48.07 18.08 50.04 18.08 43.36 16.01 36.6 18.08 38.56 18.08"/><polygon class="cls-1" points="43.36 14.86 35.3 17.35 35.3 18.07 43.36 15.62 51.44 18.07 51.44 17.35 43.36 14.86"/><g class="cls-3"><path class="cls-1" d="m36.24,26.17s0,.51.57.51.54-.51.54-.51v-6.57h-.42v6.58s0,.12-.15.12-.12-.15-.12-.15v-6.55h-.42v6.57Z"/><polygon class="cls-1" points="38.9 26.68 39.24 26.68 39.24 22.42 39.66 26.68 40.02 26.68 40.02 19.6 39.66 19.6 39.66 23.38 39.24 19.6 38.9 19.6 38.9 26.68"/><polygon class="cls-1" points="41.59 26.68 42.68 26.68 42.68 26.3 42.07 26.3 42.07 23.1 42.52 23.1 42.52 22.72 42.07 22.72 42.07 19.96 42.52 19.96 42.52 19.6 41.59 19.6 41.59 26.68"/><path class="cls-1" d="m47.82,21.7v-1.59s-.02-.51-.56-.51-.54.51-.54.51v6.06s-.02.51.54.51.56-.51.56-.51v-1.78h-.42v1.78s0,.14-.14.14c-.13,0-.15-.14-.15-.14v-6.06s0-.15.15-.15c.14,0,.14.15.14.15v1.59h.42Z"/><path class="cls-1" d="m50.1,26.17s.02.14-.15.14-.17-.14-.17-.14v-6.06s0-.15.15-.15c.17,0,.17.15.17.15v6.06Zm.41-6.06s.03-.51-.56-.51-.59.51-.59.51v6.06s0,.51.56.51c.59,0,.59-.51.59-.51v-6.06Z"/><path class="cls-1" d="m44.72,26.17s0,.14-.11.13c-.11,0-.11-.13-.11-.13v-1.78h-.44v1.78s-.02.51.54.51.56-.51.56-.51c0,0,0-1.18,0-1.53,0-.83-.66-2.41-.66-2.94v-1.59s-.02-.15.1-.15.12.15.12.15v1.59h.44v-1.59s.02-.52-.54-.51c-.56.02-.56.51-.56.51v1.35c0,.89.66,2.39.66,3.07v1.63Z"/><rect class="cls-1" x="35.3" y="18.51" width="16.15" height=".68"/><path class="cls-2" d="m12.14,60.86c-.17.09-.55.19-1.04.19-1.27,0-2.05-.83-2.05-2.1,0-1.38.92-2.21,2.14-2.21.48,0,.83.11.98.19l-.16.61c-.19-.09-.45-.16-.79-.16-.82,0-1.41.53-1.41,1.54,0,.92.52,1.51,1.4,1.51.3,0,.61-.06.8-.16l.12.6Z"/><path class="cls-2" d="m13.09,59.68c.02.55.43.78.89.78.34,0,.58-.05.8-.14l.11.53c-.25.11-.6.19-1.01.19-.94,0-1.5-.6-1.5-1.53,0-.84.49-1.63,1.42-1.63s1.25.81,1.25,1.47c0,.14-.01.25-.02.32h-1.94Zm1.27-.53c0-.28-.11-.74-.6-.74-.45,0-.64.43-.67.74h1.27Z"/><path class="cls-2" d="m15.56,58.86c0-.35,0-.64-.02-.9h.64l.04.45h.02c.13-.24.44-.52.92-.52.51,0,1.03.34,1.03,1.3v1.79h-.73v-1.71c0-.43-.15-.76-.55-.76-.29,0-.49.22-.57.45-.02.07-.03.16-.03.25v1.78h-.74v-2.12Z"/><path class="cls-2" d="m19.67,57.1v.86h.7v.57h-.7v1.33c0,.37.1.56.38.56.13,0,.22-.02.29-.04v.58c-.1.04-.29.07-.52.07-.27,0-.49-.09-.63-.25-.16-.17-.23-.45-.23-.84v-1.42h-.42v-.57h.42v-.68l.71-.18Z"/><path class="cls-2" d="m20.8,58.93c0-.41,0-.7-.02-.97h.64l.02.58h.02c.14-.43.48-.65.79-.65.07,0,.11,0,.17.02v.72c-.06-.01-.13-.03-.21-.03-.35,0-.59.24-.66.58-.01.07-.02.15-.02.24v1.56h-.73v-2.05Z"/><path class="cls-2" d="m23.33,59.68c.02.55.43.78.89.78.34,0,.58-.05.8-.14l.11.53c-.25.11-.6.19-1.01.19-.94,0-1.5-.6-1.5-1.53,0-.84.49-1.63,1.42-1.63s1.25.81,1.25,1.47c0,.14-.01.25-.02.32h-1.94Zm1.27-.53c0-.28-.11-.74-.6-.74-.45,0-.64.43-.67.74h1.27Z"/><path class="cls-2" d="m9.99,63.78v2.44c0,.82.33,1.2.82,1.2.53,0,.85-.38.85-1.2v-2.44h.73v2.39c0,1.29-.64,1.86-1.6,1.86s-1.53-.54-1.53-1.85v-2.4h.73Z"/><path class="cls-2" d="m13.08,65.84c0-.35,0-.64-.02-.9h.64l.04.45h.02c.13-.24.44-.52.92-.52.51,0,1.03.34,1.03,1.3v1.79h-.73v-1.71c0-.43-.15-.76-.55-.76-.29,0-.49.22-.57.45-.02.07-.03.16-.03.25v1.78h-.74v-2.12Z"/><path class="cls-2" d="m19.07,63.55v3.56c0,.31.01.65.02.85h-.66l-.03-.48h-.01c-.17.34-.52.55-.95.55-.69,0-1.24-.61-1.24-1.55,0-1.01.6-1.61,1.3-1.61.4,0,.68.17.82.4h.01v-1.71h.73Zm-.73,2.64c0-.06,0-.14-.02-.2-.07-.3-.3-.54-.63-.54-.47,0-.73.43-.73,1s.26.96.73.96c.3,0,.56-.21.63-.54.02-.07.02-.14.02-.22v-.45Z"/><path class="cls-2" d="m20.29,66.66c.02.55.43.78.89.78.34,0,.58-.05.8-.14l.11.53c-.25.11-.6.19-1.01.19-.94,0-1.5-.6-1.5-1.53,0-.84.49-1.63,1.42-1.63s1.25.81,1.25,1.47c0,.14-.01.25-.02.32h-1.94Zm1.27-.53c0-.28-.11-.74-.6-.74-.45,0-.64.43-.67.74h1.27Z"/><path class="cls-2" d="m22.76,65.91c0-.41,0-.7-.02-.97h.64l.02.58h.02c.14-.43.48-.65.79-.65.07,0,.11,0,.17.02v.72c-.06-.01-.13-.03-.21-.03-.35,0-.59.24-.66.58-.01.07-.02.15-.02.24v1.56h-.73v-2.05Z"/><path class="cls-2" d="m26.85,64.07v.86h.7v.57h-.7v1.33c0,.37.1.56.38.56.13,0,.22-.02.29-.04v.58c-.1.04-.29.07-.52.07-.27,0-.49-.09-.63-.25-.16-.17-.23-.45-.23-.84v-1.42h-.42v-.57h.42v-.68l.71-.18Z"/><path class="cls-2" d="m27.99,63.55h.74v1.8h.01c.09-.14.21-.26.36-.35.14-.09.32-.14.5-.14.49,0,1.01.34,1.01,1.31v1.78h-.73v-1.69c0-.44-.15-.77-.56-.77-.29,0-.49.2-.57.43-.02.06-.03.14-.03.23v1.81h-.74v-4.41Z"/><path class="cls-2" d="m31.82,66.66c.02.55.43.78.89.78.34,0,.58-.05.8-.14l.11.53c-.25.11-.6.19-1.01.19-.94,0-1.5-.6-1.5-1.53,0-.84.49-1.63,1.42-1.63s1.25.81,1.25,1.47c0,.14-.01.25-.02.32h-1.94Zm1.27-.53c0-.28-.11-.74-.6-.74-.45,0-.64.43-.67.74h1.27Z"/><path class="cls-2" d="m37.13,67.96l-.05-.34h-.02c-.18.24-.48.4-.86.4-.58,0-.91-.44-.91-.9,0-.76.65-1.15,1.72-1.14v-.05c0-.2-.08-.53-.59-.53-.29,0-.58.09-.78.22l-.14-.5c.21-.14.59-.27,1.05-.27.93,0,1.2.61,1.2,1.27v1.09c0,.27.01.54.04.73h-.66Zm-.1-1.48c-.52-.01-1.01.11-1.01.56,0,.3.18.43.42.43.29,0,.51-.2.57-.42.02-.06.02-.12.02-.17v-.42Z"/><path class="cls-2" d="m40.99,67.05c0,.36.01.66.02.91h-.64l-.04-.46h-.01c-.12.22-.41.53-.93.53s-1.01-.33-1.01-1.32v-1.77h.73v1.64c0,.5.16.83.54.83.29,0,.48-.22.56-.41.02-.07.04-.15.04-.24v-1.82h.73v2.12Z"/><path class="cls-2" d="m41.64,67.26c.17.11.48.22.74.22.32,0,.46-.14.46-.34s-.12-.31-.48-.44c-.57-.21-.8-.53-.8-.88,0-.53.42-.95,1.1-.95.32,0,.6.09.77.18l-.14.54c-.12-.07-.36-.17-.61-.17s-.41.13-.41.32.14.29.51.42c.52.2.77.48.77.92,0,.55-.41.94-1.18.94-.35,0-.67-.09-.88-.21l.14-.55Z"/><path class="cls-2" d="m44.05,65.94c0-.4-.01-.72-.02-1h.64l.04.47h.01c.21-.34.55-.53.99-.53.67,0,1.22.6,1.22,1.54,0,1.09-.66,1.62-1.32,1.62-.36,0-.67-.16-.82-.4h-.01v1.56h-.73v-3.25Zm.73.75c0,.07,0,.14.02.21.07.31.33.53.64.53.46,0,.74-.4.74-1,0-.53-.25-.97-.72-.97-.3,0-.58.23-.66.56-.02.06-.03.13-.03.19v.47Z"/><path class="cls-2" d="m48.24,64.09c0,.23-.16.41-.42.41s-.4-.18-.4-.41.17-.42.41-.42.41.18.41.42m-.78.84h.74v3.02h-.74v-3.02Z"/><path class="cls-2" d="m51,67.87c-.15.07-.46.16-.82.16-.91,0-1.5-.6-1.5-1.54s.6-1.61,1.61-1.61c.27,0,.54.06.71.14l-.13.57c-.12-.06-.29-.12-.55-.12-.56,0-.89.43-.89.98,0,.62.39.97.89.97.26,0,.43-.06.58-.12l.1.56Z"/><path class="cls-2" d="m51.91,66.66c.02.55.43.78.89.78.34,0,.58-.05.8-.14l.11.53c-.25.11-.6.19-1.01.19-.94,0-1.5-.6-1.5-1.53,0-.84.49-1.63,1.42-1.63s1.25.81,1.25,1.47c0,.14-.01.25-.02.32h-1.94Zm1.28-.53c0-.28-.11-.74-.6-.74-.45,0-.64.43-.67.74h1.28Z"/><path class="cls-2" d="m54.35,67.26c.17.11.48.22.74.22.32,0,.46-.14.46-.34s-.12-.31-.48-.44c-.57-.21-.8-.53-.8-.88,0-.53.42-.95,1.1-.95.32,0,.6.09.77.18l-.14.54c-.12-.07-.36-.17-.61-.17s-.4.13-.4.32.14.29.51.42c.52.2.77.48.77.92,0,.55-.41.94-1.18.94-.35,0-.67-.09-.88-.21l.14-.55Z"/><path class="cls-2" d="m11.99,73.4c0,1.11-.75,1.61-1.49,1.61-.82,0-1.45-.59-1.45-1.56s.63-1.6,1.5-1.6,1.44.63,1.44,1.55m-2.19.03c0,.58.27,1.02.72,1.02.42,0,.71-.43.71-1.04,0-.47-.2-1.01-.7-1.01s-.73.52-.73,1.02"/><path class="cls-2" d="m12.59,74.94v-2.45h-.39v-.57h.39v-.13c0-.39.1-.78.35-1.03.21-.21.51-.29.76-.29.2,0,.35.03.47.07l-.05.59c-.08-.03-.18-.06-.31-.06-.36,0-.49.32-.49.69v.16h.64v.57h-.63v2.45h-.73Z"/><path class="cls-2" d="m16.28,70.76v2.44c0,.82.33,1.2.82,1.2.53,0,.85-.38.85-1.2v-2.44h.73v2.39c0,1.29-.64,1.86-1.6,1.86s-1.53-.54-1.53-1.85v-2.4h.73Z"/><path class="cls-2" d="m19.44,74.94v-4.18h.83l1.04,1.79c.27.47.5.95.68,1.4h.01c-.05-.56-.07-1.1-.07-1.74v-1.46h.68v4.18h-.76l-1.05-1.84c-.26-.46-.52-.97-.72-1.45h-.02c.03.55.04,1.1.04,1.79v1.5h-.67Z"/><polygon class="cls-2" points="25.64 73.08 24.13 73.08 24.13 74.31 25.82 74.31 25.82 74.94 23.39 74.94 23.39 70.76 25.73 70.76 25.73 71.38 24.13 71.38 24.13 72.46 25.64 72.46 25.64 73.08"/><path class="cls-2" d="m26.35,74.11c.24.14.6.27.97.27.47,0,.73-.23.73-.57,0-.32-.2-.5-.71-.7-.66-.25-1.08-.61-1.08-1.22,0-.68.55-1.2,1.42-1.2.43,0,.76.1.96.21l-.18.61c-.14-.08-.42-.2-.8-.2-.46,0-.67.26-.67.5,0,.32.23.47.77.69.7.27,1.04.64,1.04,1.24,0,.67-.49,1.25-1.52,1.25-.42,0-.86-.12-1.08-.26l.16-.63Z"/><path class="cls-2" d="m32.23,74.81c-.17.09-.55.19-1.04.19-1.27,0-2.05-.83-2.05-2.1,0-1.38.92-2.21,2.14-2.21.48,0,.83.11.98.19l-.16.61c-.19-.09-.45-.16-.79-.16-.82,0-1.41.53-1.41,1.54,0,.92.52,1.51,1.4,1.51.3,0,.61-.06.8-.16l.12.6Z"/><path class="cls-2" d="m36.14,72.8c0,1.4-.82,2.2-1.92,2.2s-1.85-.9-1.85-2.13.77-2.19,1.91-2.19,1.86.92,1.86,2.12m-3,.06c0,.85.41,1.53,1.11,1.53s1.11-.68,1.11-1.56c0-.79-.38-1.53-1.11-1.53s-1.11.7-1.11,1.56"/></g></svg>