<?xml version="1.0" encoding="UTF-8"?><svg id="Layer_1" xmlns="http://www.w3.org/2000/svg" viewBox="0 0 200 85"><path d="m20.42,17.5c-1.58,0-3.02.58-4.17,1.69-1.15,1.15-1.73,2.54-1.73,4.13s.58,2.95,1.73,4.09c1.12,1.12,2.53,1.69,4.17,1.69s3.03-.55,4.21-1.69c1.12-1.12,1.69-2.5,1.69-4.09s-.57-3.01-1.7-4.14c-1.21-1.13-2.59-1.68-4.2-1.68Z"/><path d="m33.4,17.5c-1.6,0-3,.57-4.16,1.69-1.15,1.11-1.73,2.5-1.73,4.13s.58,2.99,1.73,4.09c1.14,1.14,2.5,1.69,4.17,1.69s3.04-.57,4.16-1.69c1.15-1.11,1.73-2.49,1.73-4.1s-.58-3.02-1.73-4.13c-1.14-1.1-2.58-1.69-4.16-1.69Z"/><path d="m20.42,30.48c-1.64,0-3.04.57-4.17,1.69-1.15,1.15-1.73,2.53-1.73,4.09s.58,2.98,1.73,4.14c1.14,1.1,2.58,1.69,4.16,1.69s2.98-.55,4.21-1.69c1.12-1.12,1.69-2.51,1.69-4.13s-.57-2.97-1.7-4.1c-1.18-1.14-2.55-1.69-4.2-1.69Z"/><path d="m7.37,30.48c-1.67,0-3.08.57-4.2,1.69-1.17,1.14-1.77,2.51-1.77,4.1s.6,3,1.77,4.14c1.16,1.12,2.57,1.69,4.2,1.69s3.02-.55,4.24-1.69c1.17-1.14,1.77-2.53,1.77-4.13s-.6-2.96-1.77-4.1c-1.18-1.14-2.56-1.69-4.24-1.69Z"/><path d="m7.37,43.09c-1.66,0-3.07.6-4.2,1.76-1.17,1.14-1.77,2.54-1.77,4.17s.58,3.02,1.77,4.2c1.15,1.15,2.56,1.73,4.2,1.73s3.05-.58,4.24-1.73c1.19-1.19,1.77-2.56,1.77-4.2s-.6-3.04-1.77-4.17c-1.17-1.17-2.6-1.77-4.24-1.77Z"/><path d="m20.42,56.22c-1.63,0-3.03.56-4.16,1.65-1.15,1.08-1.74,2.42-1.74,3.99s.57,2.9,1.73,3.99c1.14,1.1,2.54,1.65,4.16,1.65s3.01-.54,4.2-1.65c1.14-1.1,1.7-2.41,1.7-3.99s-.57-2.9-1.7-3.99c-1.19-1.11-2.56-1.65-4.2-1.65Z"/><path d="m33.4,43.09c-1.63,0-3.04.6-4.16,1.76-1.15,1.11-1.73,2.52-1.73,4.17s.57,3.04,1.73,4.2c1.15,1.15,2.55,1.73,4.17,1.73s3.02-.58,4.17-1.73c1.16-1.2,1.73-2.58,1.73-4.2s-.58-3.02-1.73-4.16c-1.14-1.18-2.54-1.77-4.17-1.77Z"/><path d="m57.93,46.91c-.78,0-1.48.19-2.11.52-.63.33-1.11.85-1.48,1.52-.33.67-.52,1.33-.52,2.03,0,.04.04.07.04.11,0,.85.19,1.59.48,2.22.37.63.85,1.11,1.52,1.44.67.33,1.37.52,2.11.52,1.18,0,2.14-.41,2.92-1.18.81-.81,1.18-1.81,1.18-3v-.04c0-1.18-.37-2.18-1.15-2.96-.78-.78-1.77-1.18-3-1.18Zm1.41,5.99c-.37.44-.85.63-1.37.63-.55,0-1.04-.19-1.4-.63-.37-.41-.55-1.04-.55-1.81s.18-1.41.55-1.81c.37-.44.85-.63,1.4-.63.52,0,1,.18,1.37.63.37.41.55,1,.55,1.77,0,0,.04,0,0,.04,0,.78-.19,1.4-.55,1.81Z"/><path d="m65.55,53.27l1.07-1.15,3.07-3.55v-1.48h-6.62v1.74h2.81c.41,0,.74-.04,1-.04-.26.26-.63.63-1.11,1.18l-2.99,3.44v1.66h7.14v-1.85h-3.29c-.11,0-.48,0-1.07.04Z"/><polygon points="67.32 46.1 68.88 43.88 67.18 43.88 66.33 44.99 65.51 43.88 63.81 43.88 65.37 46.1 67.32 46.1"/><path d="m77.83,49.47c-.15-.55-.41-1.04-.74-1.37-.7-.78-1.63-1.18-2.81-1.18-1.07,0-1.92.37-2.63,1.11-.33.41-.63.85-.78,1.44-.15.48-.26,1.04-.26,1.7,0,1.11.26,2,.78,2.74.67.92,1.7,1.37,3.11,1.37.85,0,1.59-.19,2.18-.59.59-.41,1-1,1.29-1.77l-2.11-.37c-.15.41-.3.7-.52.89-.22.18-.52.26-.85.26-.48,0-.89-.19-1.22-.52-.33-.33-.48-.85-.52-1.48h5.32c0-.85-.07-1.63-.26-2.22Zm-5.03.92c0-.37.07-.67.19-.92.07-.19.18-.33.26-.44.33-.33.7-.48,1.15-.48s.81.15,1.11.48c.15.11.22.26.3.44.11.22.19.55.19.92h-3.18Z"/><path d="m80.93,44.18c-.37.22-.63.48-.78.81-.15.33-.22.81-.22,1.52v.59h-1.18v1.66h1.18v6.32h2.11v-6.32h1.59v-1.66h-1.59v-.55c0-.41.07-.7.22-.85.11-.11.33-.18.63-.18.33,0,.67.04,1,.11l.26-1.48c-.55-.19-1.15-.26-1.74-.26s-1.07.07-1.48.3Z"/><path d="m96.76,48.99c-.52-.26-1.29-.52-2.37-.78-1.11-.26-1.77-.52-2.07-.74-.22-.18-.33-.41-.33-.67,0-.3.11-.52.37-.7.37-.26.85-.41,1.52-.41.63,0,1.07.15,1.41.41.3.22.52.63.63,1.22l2.22-.11c-.04-1-.41-1.81-1.11-2.44-.7-.59-1.74-.89-3.11-.89-.85,0-1.59.11-2.18.37-.63.26-1.07.63-1.41,1.11-.3.48-.44,1.04-.44,1.59,0,.85.33,1.63,1,2.22.48.44,1.33.78,2.51,1.07.92.26,1.52.41,1.77.48.37.15.67.3.81.48.15.19.22.41.22.67,0,.41-.19.78-.56,1.07-.33.3-.89.44-1.59.44s-1.22-.15-1.63-.48c-.41-.37-.67-.89-.81-1.63l-2.15.22c.15,1.22.59,2.18,1.33,2.81.74.67,1.81.96,3.22.96.96,0,1.74-.11,2.4-.41.63-.26,1.15-.67,1.48-1.22.37-.55.52-1.15.52-1.77,0-.7-.15-1.29-.44-1.74-.3-.48-.7-.85-1.22-1.15Z"/><path d="m103.01,53.5c-.15,0-.26,0-.37-.07-.11-.07-.15-.18-.19-.3-.04-.07-.04-.48-.04-1.11v-3.25h1.44v-1.66h-1.44v-2.81l-2.14,1.22v1.59h-.96v1.66h.96v3.51c0,.74.04,1.22.07,1.48.07.33.15.63.3.81.15.22.37.37.7.52.3.11.63.19,1,.19.63,0,1.18-.11,1.7-.33l-.18-1.63c-.41.15-.67.19-.85.19Z"/><path d="m111.84,49.47c-.19-.55-.44-1.04-.78-1.37-.7-.78-1.63-1.18-2.81-1.18-1.07,0-1.92.37-2.63,1.11-.33.41-.63.85-.78,1.44-.15.48-.26,1.04-.26,1.7,0,1.11.26,2,.78,2.74.67.92,1.7,1.37,3.11,1.37.85,0,1.59-.19,2.18-.59.59-.41,1-1,1.29-1.77l-2.11-.37c-.11.41-.3.7-.52.89-.22.18-.52.26-.85.26-.48,0-.89-.19-1.22-.52-.33-.33-.48-.85-.48-1.48h5.29c.04-.85-.04-1.63-.22-2.22Zm-5.03.92c0-.37.04-.67.18-.92.07-.19.15-.33.26-.44.3-.33.67-.48,1.15-.48.41,0,.78.15,1.07.48.15.11.22.26.33.44.11.22.15.55.15.92h-3.14Z"/><path d="m116.24,45.69c.11-.11.33-.18.67-.18.3,0,.63.04.96.11l.3-1.48c-.59-.19-1.18-.26-1.78-.26s-1.07.07-1.48.3c-.37.22-.63.48-.78.81-.15.33-.22.81-.22,1.52v.59h-1.15v1.66h1.15v6.32h2.11v-6.32h1.59v-1.66h-1.59v-.55c0-.41.07-.7.22-.85Z"/><path d="m125.16,52.5s0-.04,0-.04l.04-2.48c0-.92-.11-1.55-.3-1.89-.19-.33-.52-.63-.96-.85-.48-.22-1.18-.33-2.11-.33-1.03,0-1.81.19-2.37.55-.52.37-.89.96-1.11,1.7l1.92.37c.15-.37.3-.63.52-.78.22-.15.52-.22.89-.22.55,0,.92.07,1.15.26.19.18.3.44.3.85v.22c-.41.15-1.07.33-2.07.52-.74.15-1.29.3-1.66.48-.41.19-.7.48-.92.81-.19.26-.26.52-.33.81v.41c0,.67.26,1.26.74,1.7.44.44,1.11.67,1.92.67.48,0,.92-.07,1.33-.26.41-.19.78-.44,1.15-.81.04.07.04.15.07.26.07.3.15.48.22.63h2.07c-.18-.37-.3-.74-.37-1.07-.07-.33-.11-.85-.11-1.52Zm-2.14.19c-.07.3-.22.52-.48.7-.37.26-.74.41-1.11.41-.33,0-.63-.11-.81-.33-.26-.22-.33-.48-.33-.78v-.19c.04-.22.15-.41.41-.55.19-.11.55-.26,1.15-.37.59-.11,1-.22,1.29-.33v.44c0,.33-.04.63-.07.81-.04.07-.04.11-.04.19Z"/><path d="m133.88,47.8c-.19-.26-.48-.48-.85-.63-.41-.19-.81-.26-1.29-.26-1.04,0-1.92.44-2.63,1.37v-1.18h-1.96v7.99h2.11v-3.62c0-.89.07-1.52.15-1.85.11-.33.33-.59.63-.78.26-.18.59-.3.96-.3.3,0,.56.07.74.19.22.15.37.37.44.59.07.26.15.81.15,1.7v4.07h2.11v-4.95c0-.63-.04-1.11-.11-1.44-.07-.33-.22-.63-.44-.89Z"/><rect x="140.08" y="44.07" width="2.22" height="11.02"/><path d="m151.13,47.84c-.22-.26-.52-.48-.89-.67-.41-.15-.81-.26-1.29-.26-1.04,0-1.92.48-2.63,1.37v-1.18h-1.96v7.99h2.11v-3.59c0-.89.07-1.52.18-1.85.07-.33.3-.59.59-.81.3-.18.59-.3.96-.3.3,0,.55.07.74.22.22.15.37.33.44.59.11.26.15.81.15,1.66v4.07h2.11v-4.95c0-.63-.04-1.07-.11-1.41-.07-.33-.22-.63-.41-.89Z"/><path d="m157.5,50.09c-1.15-.26-1.81-.44-2-.59-.15-.11-.18-.22-.18-.41,0-.15.07-.3.22-.41.26-.15.63-.22,1.18-.22.44,0,.78.07,1.04.22.22.18.41.41.48.74l2-.37c-.19-.7-.55-1.22-1.11-1.59-.52-.37-1.33-.55-2.44-.55s-2,.26-2.51.74c-.55.44-.81,1.04-.81,1.74,0,.78.3,1.37.92,1.77.44.33,1.55.67,3.25,1.04.37.11.59.18.7.3.11.11.15.22.15.41,0,.22-.11.41-.26.55-.3.19-.7.3-1.26.3-.48,0-.89-.11-1.15-.33-.3-.19-.48-.52-.56-.92l-2.11.33c.19.74.59,1.37,1.22,1.77.63.44,1.52.67,2.59.67,1.22,0,2.11-.26,2.74-.78.59-.52.89-1.15.89-1.89,0-.67-.22-1.18-.63-1.59-.48-.37-1.26-.67-2.37-.92Z"/><path d="m165.15,53.53c-.15,0-.26-.04-.37-.11-.07-.07-.15-.15-.19-.26-.04-.11-.04-.48-.04-1.15v-3.22h1.44v-1.7h-1.44v-2.81l-2.11,1.22v1.59h-.96v1.7h.96v3.48c0,.74,0,1.26.07,1.48.04.37.15.63.3.85.11.19.37.37.67.48.3.15.63.19,1.04.19.59,0,1.18-.11,1.66-.3l-.19-1.66c-.37.15-.67.22-.85.22Z"/><rect x="167.48" y="47.1" width="2.11" height="7.99"/><rect x="167.48" y="44.07" width="2.11" height="1.96"/><path d="m174.54,53.53c-.15,0-.26-.04-.37-.11-.07-.07-.15-.15-.19-.26-.04-.11-.04-.48-.04-1.15v-3.22h1.44v-1.7h-1.44v-2.81l-2.11,1.22v1.59h-.96v1.7h.96v3.48c0,.74,0,1.26.07,1.48.04.37.15.63.3.85.15.19.37.37.67.48.3.15.63.19,1.03.19.63,0,1.18-.11,1.66-.3l-.19-1.66c-.37.15-.67.22-.85.22Z"/><path d="m181.97,50.5c0,1.11-.07,1.85-.15,2.14-.11.3-.33.55-.59.74-.3.19-.63.3-1,.3-.3,0-.56-.07-.78-.22-.19-.15-.33-.33-.41-.59-.07-.26-.11-.96-.11-2.07v-3.7h-2.11v5.07c0,.74.07,1.33.26,1.77.19.41.52.74.92,1,.44.22.92.33,1.44.33.55,0,1.04-.11,1.52-.37.48-.22.85-.55,1.15-1v1.18h1.96v-7.99h-2.11v3.4Z"/><path d="m189.07,53.53c-.15,0-.26-.04-.37-.11-.11-.07-.15-.15-.19-.26-.04-.11-.04-.48-.04-1.15v-3.22h1.44v-1.7h-1.44v-2.81l-2.11,1.22v1.59h-1v1.7h1v3.48c0,.74,0,1.26.04,1.48.07.37.19.63.3.85.15.19.37.37.7.48.3.15.63.19,1.04.19.59,0,1.15-.11,1.66-.3l-.19-1.66c-.37.15-.67.22-.85.22Z"/><path d="m195.9,53.49c-.26.18-.52.3-.85.3-.48,0-.89-.19-1.22-.52-.33-.37-.48-.85-.52-1.48h5.29c.04-.85-.04-1.59-.22-2.22-.18-.55-.41-1-.74-1.41-.7-.78-1.63-1.18-2.81-1.18-1.07,0-1.96.41-2.63,1.15-.37.41-.63.89-.78,1.44-.15.48-.26,1.07-.26,1.66,0,1.11.26,2.03.78,2.74.67.92,1.7,1.37,3.07,1.37.89,0,1.63-.19,2.22-.59.55-.41,1-1,1.26-1.77l-2.11-.33c-.11.41-.26.67-.48.85Zm-2.11-4.36c.3-.33.7-.52,1.15-.52s.81.18,1.11.48c.15.15.22.3.3.48.11.26.19.55.19.92h-3.18c0-.33.07-.67.19-.92.07-.15.15-.3.26-.44Z"/><path d="m50.09,51.27c0,.89-.11,1.48-.3,1.77-.22.26-.55.41-1.07.41-.48,0-.85-.19-1.07-.59-.18-.26-.26-.7-.3-1.33l-2.11.22c0,1.18.3,2.07.89,2.7.59.59,1.44.92,2.51.92.92,0,1.66-.22,2.26-.59.55-.41.96-.92,1.18-1.55.15-.48.22-1.18.22-2.11v-6.99h-2.22v7.14Z"/></svg>