<?xml version="1.0" encoding="UTF-8"?><svg id="Layer_1" xmlns="http://www.w3.org/2000/svg" xmlns:xlink="http://www.w3.org/1999/xlink" viewBox="0 0 200 100"><defs><style>.cls-1{fill:url(#linear-gradient);}</style><linearGradient id="linear-gradient" x1="11.51" y1="50" x2="188.49" y2="50" gradientUnits="userSpaceOnUse"><stop offset="0" stop-color="#fcfdbf"/><stop offset=".51" stop-color="#c43b75"/><stop offset="1" stop-color="#000004"/></linearGradient></defs><path class="cls-1" d="m151.31,12.05c-9.92-.2-18.99,3.41-25.85,9.47-6.86,6.05-15.62,9.5-24.77,9.5h-1.37c-9.15,0-17.91-3.45-24.77-9.5-6.86-6.06-15.93-9.67-25.85-9.47-20.86.41-37.29,17.29-37.18,38.15.11,20.87,17.06,37.75,37.96,37.75,9.75,0,18.65-3.68,25.37-9.73,6.73-6.06,15.56-9.25,24.62-9.25h1.11c9.05,0,17.89,3.19,24.62,9.25,6.72,6.05,15.61,9.73,25.37,9.73,20.9,0,37.85-16.88,37.96-37.75.11-20.86-16.32-37.74-37.18-38.15Z"/></svg>