<?xml version="1.0" encoding="UTF-8"?><svg id="Layer_1" xmlns="http://www.w3.org/2000/svg" xmlns:xlink="http://www.w3.org/1999/xlink" viewBox="0 0 487.46 333.75"><defs><style>.cls-1{fill:#fff;}.cls-2{fill:url(#linear-gradient);}</style><linearGradient id="linear-gradient" x1="42.23" y1="166.88" x2="445.23" y2="166.88" gradientUnits="userSpaceOnUse"><stop offset="0" stop-color="#fee391"/><stop offset=".13" stop-color="#fec44f"/><stop offset=".25" stop-color="#f1605d"/><stop offset=".39" stop-color="#b93495"/><stop offset=".5" stop-color="#721e81"/><stop offset=".63" stop-color="#1d3b77"/><stop offset=".67" stop-color="#346a90"/><stop offset=".7" stop-color="#4792a6"/><stop offset=".73" stop-color="#53aab4"/><stop offset=".75" stop-color="#58b4b9"/><stop offset=".78" stop-color="#55b1a6"/><stop offset=".85" stop-color="#4faa75"/><stop offset=".89" stop-color="#4ca658"/><stop offset="1" stop-color="#c5ea99"/></linearGradient></defs><path class="cls-1" d="m263.78,63.9l-15.23-22.77c-2.14-3.2-7.49-3.2-9.63,0l-16.84,25.17h0s-165.29,0-165.29,0c-3.07,0-5.56,2.15-5.56,4.8v219.12c0,2.65,2.49,4.8,5.56,4.8h373.88c3.07,0,5.56-2.15,5.56-4.8V71.1c0-2.65-2.49-4.8-5.56-4.8h-162.08c-1.99,0-3.82-.91-4.81-2.4Z"/><path class="cls-2" d="m243.73,38.73c1.87,0,3.74.8,4.81,2.4l15.23,22.77c.99,1.48,2.83,2.4,4.81,2.4h162.08c3.07,0,5.56,2.15,5.56,4.8v219.12c0,2.65-2.49,4.8-5.56,4.8H56.79c-3.07,0-5.56-2.15-5.56-4.8V71.1c0-2.65,2.49-4.8,5.56-4.8h165.29s16.84-25.17,16.84-25.17c1.07-1.6,2.94-2.4,4.81-2.4m0-9c-5.02,0-9.62,2.39-12.29,6.39l-14.16,21.17H56.79c-8.03,0-14.56,6.19-14.56,13.8v219.12c0,7.61,6.53,13.8,14.56,13.8h373.88c8.03,0,14.56-6.19,14.56-13.8V71.1c0-7.61-6.53-13.8-14.56-13.8h-160.48l-14.16-21.17c-2.68-4-7.27-6.4-12.29-6.4h0Z"/></svg>