<?xml version="1.0" encoding="UTF-8"?><svg id="Layer_1" xmlns="http://www.w3.org/2000/svg" viewBox="0 0 160 160"><path d="m140,70.32c0-27.75-22.57-50.32-50.32-50.32v3.87c25.61,0,46.45,20.84,46.45,46.45s-20.84,46.45-46.45,46.45c-12.73,0-24.61-5.05-33.44-14.21l-2.79,2.69c8.21,8.52,18.86,13.74,30.43,15.06v15.82h-7.74v3.87h27.1v-3.87h-7.74v-15.83c25.02-2.89,44.52-24.2,44.52-49.98h0Zm-48.39,65.81h-3.87v-15.53c.64.02,1.29.05,1.94.05s1.29-.02,1.94-.05v15.53Z"/><path d="m89.68,112.9c23.48,0,42.58-19.1,42.58-42.58s-19.1-42.58-42.58-42.58c-7.84,0-15.41,2.13-22.05,6.16-4.14-8.23-12.65-13.9-22.47-13.9-13.87,0-25.16,11.29-25.16,25.16s11.29,25.16,25.16,25.16c.65,0,1.3-.05,1.94-.1,0,.03,0,.07,0,.1,0,23.48,19.1,42.58,42.58,42.58h0Zm-37.44-32.9h11.14l5.81-5.81h7.68l5.07,10.13v7.29h-8.33l-10.37,6.91c-5.27-4.94-9.14-11.32-11-18.52h0Zm43.24,28.55v-6.06l7.74-3.87v-5.07h5.13l7.04,5.63c-5.47,4.88-12.33,8.22-19.91,9.37h0Zm32.9-38.23c0,1.98-.2,3.91-.48,5.81h-2.35l-3.87-5.81h-5.94l-3.87,5.81h-8.11l-8.28-4.97v-7.78l7.74-7.74v-9.8l6.74-8.42c11.03,6.83,18.42,19,18.42,32.91h0Zm-38.71-38.71c6.04,0,11.74,1.43,16.85,3.91l-7.17,8.96v9.56l-7.74,7.74v11.57l11.08,6.65h11.25l3.87-5.81h1.8l3.87,5.81h3.63c-1.61,6.23-4.72,11.84-8.95,16.44l-8.45-6.76h-10.36v6.55l-7.74,3.87v8.84c-.64.03-1.28.1-1.94.1-8.78,0-16.85-2.97-23.35-7.91l8.46-5.64h11.03v-12.07l-6.55-13.09h-11.68l-5.81,5.81h-10.33c-.29-1.9-.48-3.83-.48-5.81,0-.24.01-.47.02-.71,11.07-2.64,19.34-12.59,19.34-24.45,0-2.66-.42-5.22-1.19-7.62,6.16-3.87,13.21-5.92,20.54-5.92h0Zm-65.81,13.55c0-11.74,9.55-21.29,21.29-21.29s21.29,9.55,21.29,21.29-9.55,21.29-21.29,21.29-21.29-9.55-21.29-21.29Z"/><path d="m33.55,31.61h3.87v3.87h-3.87v-3.87Z"/><path d="m43.23,31.62h13.55v3.87h-13.55v-3.87Z"/><path d="m33.55,39.35h23.23v3.87h-23.23v-3.87Z"/><path d="m33.55,47.1h23.23v3.87h-23.23v-3.87Z"/><path d="m52.9,54.84h3.87v3.87h-3.87v-3.87Z"/><path d="m43.23,54.84h3.87v3.87h-3.87v-3.87Z"/><path d="m33.55,54.84h3.87v3.87h-3.87v-3.87Z"/></svg>