<?xml version="1.0" encoding="UTF-8"?><svg id="Layer_1" xmlns="http://www.w3.org/2000/svg" viewBox="0 0 160 160"><path d="m68.39,74.19v-7.74c0-2.13-1.74-3.87-3.87-3.87h-3.87c-2.13,0-3.87,1.74-3.87,3.87v7.74h-3.87v-15.48c0-2.13-1.74-3.87-3.87-3.87h-3.87c-2.13,0-3.87,1.74-3.87,3.87v15.48h-3.87v-7.74c0-2.13-1.74-3.87-3.87-3.87h-3.87c-2.13,0-3.87,1.74-3.87,3.87v7.74c0,2.13,1.74,3.87,3.87,3.87h34.84c2.13,0,3.87-1.74,3.87-3.87h0Zm-34.84,0h-3.87v-7.74h3.87v7.74Zm11.61-15.48h3.87v15.48h-3.87v-15.48Zm15.48,7.74h3.87v7.74h-3.87v-7.74Z"/><path d="m134.19,47.1h-15.9c-5.73-16.26-20.93-27.1-38.3-27.1s-32.56,10.83-38.3,27.1h-15.9c-3.2,0-5.81,2.61-5.81,5.81v27.1c0,3.2,2.61,5.81,5.81,5.81h15.91l1.1,4.4c.49,1.97,2.25,3.34,4.28,3.34s3.79-1.37,4.28-3.34l.15-.58c3.57,3.51,7.72,6.3,12.24,8.27-4.2.85-8.08,2.9-11.12,5.91-.55-1.47-1.96-2.52-3.61-2.52h-7.74c-2.13,0-3.87,1.74-3.87,3.87h-17.42v27.1h17.42c0,2.13,1.74,3.87,3.87,3.87h7.74c2.07,0,3.74-1.63,3.85-3.67,3.55,2.39,7.73,3.67,12.1,3.67h7.63c.8,2.25,2.93,3.87,5.45,3.87h3.87c3.2,0,5.81-2.61,5.81-5.81v-1.94h1.94c3.2,0,5.81-2.61,5.81-5.81,0-1.49-.58-2.84-1.51-3.87.93-1.03,1.51-2.38,1.51-3.87,0-.68-.14-1.33-.36-1.94h2.29c3.2,0,5.81-2.6,5.81-5.81s-2.61-5.81-5.81-5.81h-6.88c.67-1.14,1.08-2.45,1.08-3.87,0-.57-.13-1.11-.35-1.59,6.45-1.86,12.37-5.3,17.22-10.07l.15.58c.49,1.97,2.25,3.34,4.28,3.34s3.79-1.37,4.28-3.34l1.1-4.4h15.91c3.2,0,5.81-2.61,5.81-5.81v-27.1c0-3.2-2.61-5.81-5.81-5.81h0ZM23.87,128.39v-19.35h13.55v6.14c0,1.3.42,2.53,1.2,3.54-.78,1.01-1.2,2.24-1.2,3.54v6.14h-13.55Zm25.16,3.87h-7.74v-10.01c0-.52.2-1,.57-1.37l2.17-2.17-2.17-2.17c-.37-.37-.57-.85-.57-1.37v-10.01h7.74v27.1Zm30.97-108.39c15.26,0,28.67,9.23,34.19,23.23h-4.22c-5.33-11.79-16.94-19.35-29.97-19.35s-24.64,7.56-29.97,19.35h-4.22c5.52-14,18.93-23.22,34.19-23.22h0Zm11.61,61.94h2.83c-4.37,2.51-9.33,3.87-14.45,3.87s-10.08-1.36-14.45-3.87h2.84c3.2,0,5.81-2.61,5.81-5.81v-27.1c0-3.2-2.61-5.81-5.81-5.81h-14.06c4.99-9.49,14.77-15.48,25.67-15.48s20.68,6,25.67,15.48h-14.06c-3.2,0-5.81,2.61-5.81,5.81v27.1c0,3.2,2.61,5.81,5.81,5.81h0Zm-45.04,3.46l-1.83-7.33h-18.93c-1.07,0-1.94-.87-1.94-1.94v-27.1c0-1.07.87-1.94,1.94-1.94h42.58c1.07,0,1.94.87,1.94,1.94v27.1c0,1.07-.87,1.94-1.94,1.94h-18.93l-1.83,7.33c-.12.48-.93.49-1.06,0h0Zm35.37,46.86h-3.87c-1.07,0-1.94-.87-1.94-1.94v-21.86c1.21-.9,2.25-2,3.07-3.3h4.68v4.23c-2.25.8-3.87,2.93-3.87,5.45,0,1.49.58,2.84,1.51,3.87-.93,1.03-1.51,2.38-1.51,3.87,0,2.52,1.62,4.65,3.87,5.45v2.29c0,1.07-.87,1.94-1.94,1.94h0Zm7.74-7.74h-3.87c-1.07,0-1.94-.87-1.94-1.94s.87-1.94,1.94-1.94h3.87c1.07,0,1.94.87,1.94,1.94s-.87,1.94-1.94,1.94Zm1.94-9.68c0,1.07-.87,1.94-1.94,1.94h-3.87c-1.07,0-1.94-.87-1.94-1.94s.87-1.94,1.94-1.94h3.87c1.07,0,1.94.87,1.94,1.94Zm7.74-7.74c0,1.07-.87,1.94-1.94,1.94h-9.68v-3.87h9.68c1.07,0,1.94.87,1.94,1.94h0Zm-11.61-9.68c0,2.13-1.74,3.87-3.87,3.87h-7l-.53,1.07c-1.02,2.03-2.77,3.55-4.92,4.27l-1.7.57,1.23,3.67,1.32-.44v8.73c-2.05-1.88-4.48-3.33-7.13-4.22l-1.23,3.67c3.34,1.11,6.25,3.34,8.2,6.27l.15.23v3.28h-7.27c-4.52,0-8.77-1.68-12.08-4.72v-17.9c3.28-5.15,9.03-8.34,15.16-8.34h19.68Zm-7.74-3.87c-10.2,0-19.87-4.21-26.81-11.61h5.65c5.92,4.98,13.4,7.74,21.16,7.74s15.24-2.76,21.16-7.74h5.65c-6.95,7.4-16.62,11.61-26.81,11.61h0Zm56.13-17.42c0,1.07-.87,1.94-1.94,1.94h-18.93l-1.83,7.33c-.12.48-.93.49-1.05,0l-1.84-7.33h-18.93c-1.07,0-1.94-.87-1.94-1.94v-27.1c0-1.07.87-1.94,1.94-1.94h42.58c1.07,0,1.94.87,1.94,1.94v27.1Z"/><path d="m130.32,62.58h-3.87c-2.13,0-3.87,1.74-3.87,3.87v7.74h-3.87v-15.48c0-2.13-1.74-3.87-3.87-3.87h-3.87c-2.13,0-3.87,1.74-3.87,3.87v15.48h-3.87v-7.74c0-2.13-1.74-3.87-3.87-3.87h-3.87c-2.13,0-3.87,1.74-3.87,3.87v7.74c0,2.13,1.74,3.87,3.87,3.87h34.84c2.13,0,3.87-1.74,3.87-3.87v-7.74c0-2.13-1.74-3.87-3.87-3.87h0Zm-30.97,11.61h-3.87v-7.74h3.87v7.74Zm11.61-15.48h3.87v15.48h-3.87v-15.48Zm19.36,15.48h-3.87v-7.74h3.87v7.74Z"/><path d="m110.97,101.29h3.87v3.87h-3.87v-3.87Z"/><path d="m119.97,101.29h13.5v3.87h-13.5v-3.87Z"/><path d="m110.97,109.03h22.5v3.87h-22.5v-3.87Z"/><path d="m110.97,116.77h22.5v3.87h-22.5v-3.87Z"/><path d="m110.97,124.52h3.87v3.87h-3.87v-3.87Z"/><path d="m120.29,124.52h3.87v3.87h-3.87v-3.87Z"/><path d="m129.6,124.51h3.87v3.87h-3.87v-3.87Z"/></svg>