<?xml version="1.0" encoding="UTF-8"?><svg id="Layer_1" xmlns="http://www.w3.org/2000/svg" viewBox="0 0 200 85"><defs><style>.cls-1{fill:#5b73f1;}</style></defs><path d="m37.52,40.73h5.75c-.08-1.7-1.02-2.71-2.79-2.72-1.74,0-2.85,1.02-2.96,2.72Zm9.09,2.54h-9.09c.08,1.69,1.19,2.74,2.98,2.74,1.23,0,2.05-.36,2.46-1.09.14-.25.44-.39.73-.38l2.91.13c.3.01.53.29.44.56-.33,1.04-1.04,1.93-2.1,2.63-1.22.81-2.65,1.23-4.34,1.23-2.21,0-4.01-.63-5.36-1.91-1.35-1.28-2.01-2.98-2.01-5.13,0-2.17.66-3.87,2.02-5.12,1.36-1.28,3.1-1.91,5.25-1.91s3.73.6,4.97,1.8c1.24,1.18,1.85,2.83,1.85,4.92v.84c0,.38-.32.68-.72.68Zm141.8,12.27h-1.7c-.25,0-.41-.24-.31-.45l3.14-6.94-5.35-12.03c-.12-.27.09-.58.4-.58h1.56c.26,0,.5.15.6.38l4.09,9.69,4.07-9.68c.1-.23.33-.38.59-.38h1.56c.31,0,.53.3.4.58l-8.5,19.07c-.09.21-.31.35-.56.35h0Zm-121.26-14.8h5.75c-.08-1.7-1.02-2.71-2.79-2.72-1.74,0-2.85,1.02-2.96,2.72Zm9.09,2.54h-9.09c.08,1.69,1.19,2.74,2.98,2.74,1.23,0,2.05-.36,2.46-1.09.14-.25.44-.39.73-.37l2.91.13c.3.01.53.29.45.56-.34,1.04-1.04,1.93-2.11,2.63-1.22.81-2.65,1.23-4.34,1.23-2.21,0-4.01-.63-5.36-1.91-1.35-1.28-2.02-2.98-2.01-5.13,0-2.17.66-3.87,2.02-5.12,1.35-1.28,3.1-1.91,5.25-1.91s3.73.6,4.97,1.8c1.24,1.18,1.85,2.83,1.85,4.92v.84c0,.38-.32.68-.72.68Zm-20.1,5.53h-2.14c-.33,0-.63-.19-.76-.48l-5.63-12.37c-.15-.32.1-.67.47-.67h3.12c.34,0,.64.19.76.49l3.13,7.46,3.11-7.45c.12-.3.43-.49.76-.49h3.12c.37,0,.61.35.47.67l-5.64,12.36c-.13.29-.43.48-.77.48Zm36.53-8.25v7.61c0,.36-.31.65-.69.65h-2.66c-.38,0-.69-.29-.69-.65v-6.88c0-1.7-.96-2.7-2.51-2.7s-2.65,1.07-2.66,2.72v6.85c0,.36-.31.65-.69.65h-2.66c-.38,0-.69-.29-.69-.65v-12.21c0-.36.31-.65.69-.65h2.44c.38,0,.69.29.69.65v.74c.75-1.1,2.02-1.65,3.84-1.65,3.34,0,5.58,2.07,5.58,5.52Zm8.1-1.96l-.03,5.02c0,1.39.91,2.04,2.15,2.04.19,0,.41-.02.69-.05.29-.04.56.18.56.46v2.46c0,.23-.19.43-.43.46-.62.07-1.23.1-1.81.1-3.23,0-5.22-1.52-5.19-4.55l.03-5.93h-2.08c-.29,0-.52-.22-.52-.49v-2.31c0-.27.23-.49.52-.49h2.11l.02-3.02c0-.35.26-.65.62-.73l2.64-.56c.4-.08.77.2.77.59l-.03,3.72h2.83c.29,0,.52.22.52.49v2.31c0,.27-.23.49-.52.49h-2.85Zm12.91-1.58c0,.26-.21.48-.48.51-2.19.19-3.61,1.69-3.61,3.64v7.15c0,.28-.25.51-.54.51h-1.3c-.3,0-.54-.23-.54-.51v-12.31c0-.28.25-.51.54-.51h1.24c.3,0,.54.23.54.51v1.5c.5-1.11,1.71-1.99,3.56-2.15.32-.02.59.21.59.51v1.15Zm69.86.03c0,.26-.21.48-.48.51-2.19.19-3.61,1.69-3.61,3.64v7.15c0,.28-.25.51-.54.51h-1.3c-.3,0-.54-.23-.54-.51v-12.31c0-.28.25-.51.54-.51h1.24c.3,0,.54.23.54.51v1.5c.5-1.12,1.71-1.99,3.56-2.15.32-.02.59.21.59.51v1.15Zm-66.22,4.14h8.51c-.08-2.4-1.49-3.97-4.12-3.97-2.51,0-4.25,1.43-4.39,3.97Zm10.21,1.83h-10.21c.14,2.53,1.91,4.1,4.42,4.1,1.88,0,3.21-.73,3.8-1.97.11-.24.37-.39.65-.38l1.23.07c.34.02.58.35.46.65-.37.95-1.02,1.74-1.96,2.41-1.13.78-2.51,1.17-4.11,1.17-2.07,0-3.76-.63-5.06-1.86-1.3-1.26-1.93-2.95-1.93-5.07s.64-3.82,1.94-5.04c1.3-1.23,2.96-1.86,5-1.85,2.02,0,3.59.6,4.72,1.78,1.16,1.17,1.74,2.77,1.74,4.76v.59c0,.35-.3.64-.67.64Zm5.32-.83c0,3.11,1.96,4.94,4.72,4.94,2.68,0,4.53-1.62,4.53-4.55v-.78c0-2.93-1.85-4.58-4.53-4.58-2.76,0-4.73,1.83-4.73,4.96Zm9.4-4.49v-1.69c0-.28.24-.51.54-.51h1.17c.3,0,.54.23.54.51v13.58c0,1.91-.62,3.4-1.86,4.5-1.22,1.1-2.85,1.65-4.89,1.65-3.59,0-5.92-1.64-6.69-4.18-.09-.28.13-.56.44-.57l1.37-.05c.24,0,.45.13.52.35.49,1.57,2.14,2.54,4.28,2.54,2.68,0,4.45-1.49,4.45-4.08v-2.9c-.8,1.33-2.57,2.25-4.86,2.25-1.96,0-3.59-.63-4.89-1.88-1.27-1.26-1.91-2.93-1.91-5.05,0-2.12.64-3.79,1.91-5.02,1.3-1.26,2.93-1.88,4.89-1.88,2.32,0,4.15,1,5,2.43h0Zm7.81,11.14h-1.3c-.3,0-.54-.23-.54-.51v-12.31c0-.28.25-.51.54-.51h1.3c.3,0,.54.23.54.51v12.31c0,.28-.25.51-.55.51Zm-.61-16.68c-.88,0-1.58-.65-1.58-1.46s.72-1.49,1.58-1.49,1.58.65,1.57,1.49c0,.81-.72,1.46-1.57,1.46Zm14.39,7.17l-1.49.08c-.26.01-.49-.15-.55-.39-.31-1.21-1.23-1.81-2.8-1.79-1.74-.03-2.68.7-2.68,1.93,0,.57.25,1.02.72,1.26.33.13.44.21.86.31l.52.13c.25.03.94.18,1.24.26,3.34.76,4.89,1.65,4.89,3.85,0,2.61-2.05,4.13-5.34,4.13-3.02,0-5.02-1.32-5.51-3.68-.04-.2.12-.39.34-.41l1.51-.1c.25-.02.48.14.55.38.34,1.22,1.4,1.84,3.17,1.84s2.9-.71,2.9-1.99c0-.65-.25-1.1-.72-1.36-.47-.29-1.38-.58-2.76-.89l-1.58-.37c-.36-.1-.8-.26-1.27-.44-1.33-.52-1.8-1.33-1.93-2.9,0-2.38,1.94-3.92,5.17-3.89,2.84-.02,4.62,1.41,5.09,3.6.05.21-.11.42-.34.43Zm10.8,8.1v1.02c0,.24-.19.46-.45.49-.48.06-.97.09-1.46.09-2.68,0-4.37-1.36-4.34-4.18l.03-7.37h-2.1c-.29,0-.52-.22-.52-.5v-.97c0-.27.24-.5.53-.5h2.1l.02-3.69c0-.25.19-.46.44-.51l1.51-.3c.24-.05.46.13.45.35l-.03,4.16h3.26c.29,0,.52.22.52.5v.97c0,.27-.24.5-.52.5h-3.26s-.06,6.93-.06,6.93c0,1.72.83,2.59,2.49,2.59.22,0,.49-.02.79-.05.32-.04.59.19.59.49Z"/><path class="cls-1" d="m22.84,35.89l-16.9,3.4c-1.53.31-3.04-.62-3.37-2.07v-.02c-.33-1.45.65-2.88,2.18-3.18l16.9-3.4c1.53-.31,3.04.62,3.37,2.07v.02c.33,1.45-.65,2.88-2.19,3.19Zm-5.77,9.39l-11.13,2.24c-1.53.31-3.04-.62-3.37-2.07h0c-.32-1.46.66-2.89,2.19-3.19l11.13-2.24c1.53-.31,3.04.62,3.37,2.07h0c.33,1.46-.65,2.89-2.19,3.19Zm-8.9,7.84c0,1.47-1.26,2.66-2.82,2.66s-2.82-1.19-2.82-2.67,1.26-2.66,2.82-2.66,2.82,1.19,2.82,2.67Zm14.66-.77l-8.27,1.66c-1.53.31-3.04-.62-3.37-2.07-.32-1.45.66-2.88,2.19-3.19l8.27-1.66c1.53-.31,3.04.62,3.37,2.07.33,1.45-.65,2.88-2.19,3.19Z"/></svg>