<?xml version="1.0" encoding="UTF-8"?><svg id="Layer_1" xmlns="http://www.w3.org/2000/svg" viewBox="0 0 200 85"><defs><style>.cls-1{fill:#070e26;}.cls-2{fill:#2d8ee7;}</style></defs><path class="cls-1" d="m55.27,36.6c0,.87.09,1.51.28,1.9s.53.66,1.03.8c.51.14,1.32.21,2.45.21h0c.06,0,.09.09.09.25s-.03.25-.09.25h0c-.84,0-1.51-.01-1.99-.04h0l-2.96-.04-2.83.04c-.51.03-1.2.04-2.07.04h0c-.09,0-.13-.09-.13-.25s.04-.25.13-.25h0c1.1,0,1.91-.07,2.43-.21.52-.14.88-.41,1.08-.83.2-.41.29-1.03.29-1.88h0v-19.54c0-.84-.1-1.46-.29-1.86-.2-.39-.55-.67-1.08-.83s-1.33-.23-2.43-.23h0c-.09,0-.13-.09-.13-.25s.04-.25.13-.25h0l2.07.04c1.18.06,2.13.09,2.83.09h0c.79,0,1.77-.03,2.96-.09h0l1.99-.04c.06,0,.09.09.09.25s-.03.25-.09.25h0c-1.1,0-1.91.09-2.43.25s-.87.46-1.06.86c-.18.41-.28,1.03-.28,1.88h0v19.47h0Zm18.37,3.59c-.82,0-1.73-.04-2.75-.13h0c-.39-.03-.88-.06-1.46-.09s-1.22-.04-1.92-.04h0l-2.78.04c-.51.03-1.21.04-2.11.04h0c-.06,0-.09-.09-.09-.25s.03-.25.09-.25h0c1.1,0,1.91-.07,2.43-.21.52-.14.88-.41,1.08-.83s.29-1.03.29-1.88h0v-19.54c0-.84-.09-1.46-.28-1.86-.18-.39-.53-.67-1.06-.83-.52-.15-1.33-.23-2.43-.23h0c-.06,0-.09-.09-.09-.25s.03-.25.09-.25h0l2.07.04c1.18.06,2.11.09,2.78.09h0c.99,0,1.99-.04,3-.13h0c1.24-.06,2.08-.09,2.53-.09h0c2.96,0,5.57.56,7.86,1.69s4.05,2.66,5.3,4.6,1.88,4.12,1.88,6.55h0c0,2.73-.65,5.14-1.96,7.24s-3.06,3.71-5.26,4.86c-2.2,1.14-4.6,1.71-7.22,1.71h0Zm-.42-.55c2.37,0,4.46-.48,6.29-1.44,1.83-.96,3.26-2.37,4.29-4.22,1.03-1.86,1.54-4.08,1.54-6.67h0c0-2.48-.48-4.72-1.46-6.71-.97-2-2.37-3.58-4.18-4.75-1.82-1.17-3.91-1.76-6.27-1.76h0c-1.24,0-2.19.07-2.85.21s-1.15.43-1.46.86-.46,1.09-.46,1.96h0v19c0,.84.13,1.52.38,2.03s.7.88,1.35,1.12c.65.24,1.59.36,2.83.36h0Zm34.28-5.24c0-.09.08-.13.23-.13s.23.04.23.13h0c-.2,2.03-.29,3.69-.29,4.99h0c0,.23-.04.38-.13.48s-.25.15-.51.15h-15.37c-.06,0-.09-.09-.09-.25s.03-.25.09-.25h0c.96,0,1.66-.07,2.11-.21.45-.14.75-.41.91-.83.15-.41.23-1.03.23-1.88h0v-12.92c0-.84-.08-1.46-.23-1.86-.15-.39-.46-.67-.91-.83-.45-.15-1.16-.23-2.11-.23h0c-.06,0-.09-.09-.09-.25s.03-.25.09-.25h14.61c.28,0,.42.11.42.34h0l.04,2.62c.03.53.04,1.21.04,2.03h0c0,.09-.09.13-.25.13s-.25-.04-.25-.13h0c0-1.32-.38-2.39-1.14-3.21-.76-.82-1.76-1.22-3-1.22h-1.44c-1.07,0-1.85.08-2.34.23-.49.15-.83.43-1.01.83-.18.39-.28,1.01-.28,1.86h0v5.78c2.87-.03,4.81-.1,5.83-.21,1.01-.11,1.57-.17,1.69-.17h0c.14,0,.21.29.21.89h0c0,.62-.07.93-.21.93h0c-.11,0-.68-.09-1.69-.25s-2.96-.27-5.83-.29h0v6.03c0,.82.09,1.43.28,1.84s.53.69,1.03.84,1.28.23,2.32.23h2.45c1.1,0,2.04-.46,2.83-1.37.79-.92,1.29-2.11,1.52-3.57h0Zm18.79-13.8l.04,2.62c.03.53.04,1.21.04,2.03h0c0,.09-.09.13-.25.13s-.25-.04-.25-.13h0c0-1.32-.38-2.39-1.14-3.21-.76-.82-1.76-1.22-3-1.22h-1.44c-1.07,0-1.85.08-2.34.23-.49.15-.83.43-1.01.83-.18.39-.28,1.01-.28,1.86h0v6.29c2.87-.03,4.81-.1,5.83-.23,1.01-.13,1.57-.19,1.69-.19h0c.14,0,.21.29.21.89h0c0,.62-.07.93-.21.93h0c-.11,0-.68-.08-1.69-.23-1.01-.15-2.96-.25-5.83-.28h0v5.53c0,.9.1,1.56.32,1.96s.61.7,1.18.86c.58.17,1.5.25,2.77.25h0c.09,0,.13.09.13.25s-.04.25-.13.25h0c-.99,0-1.75-.01-2.28-.04h0l-3.08-.04c-.96,0-1.67.01-2.15.04h0l-2.15.04c-.06,0-.09-.09-.09-.25s.03-.25.09-.25h0c.96,0,1.66-.07,2.11-.21.45-.14.75-.41.91-.83.15-.41.23-1.03.23-1.88h0v-12.92c0-.84-.08-1.46-.23-1.86-.15-.39-.46-.67-.91-.83-.45-.15-1.16-.23-2.11-.23h0c-.06,0-.09-.09-.09-.25s.03-.25.09-.25h14.61c.28,0,.42.11.42.34h0Zm8.82,16c0,.87.08,1.51.23,1.9s.45.66.89.8c.44.14,1.15.21,2.13.21h0c.09,0,.13.09.13.25s-.04.25-.13.25h0c-.76,0-1.35-.01-1.77-.04h0l-2.62-.04-2.49.04c-.45.03-1.07.04-1.86.04h0c-.06,0-.09-.09-.09-.25s.03-.25.09-.25h0c.99,0,1.7-.07,2.15-.21.45-.14.75-.41.91-.83.15-.41.23-1.03.23-1.88h0v-12.92c0-.84-.08-1.46-.23-1.86-.15-.39-.46-.67-.93-.83-.46-.15-1.18-.23-2.13-.23h0c-.06,0-.09-.09-.09-.25s.03-.25.09-.25h0l1.86.04c1.07.06,1.9.09,2.49.09h0c.7,0,1.59-.03,2.66-.09h0l1.73-.04c.09,0,.13.09.13.25s-.04.25-.13.25h0c-.93,0-1.62.09-2.07.25-.45.17-.76.46-.93.86-.17.41-.25,1.03-.25,1.88h0v12.84h0Zm27.7-16.34c.06,0,.09.09.09.25s-.03.25-.09.25h0c-1.04,0-1.77.29-2.2.86-.42.58-.63,1.58-.63,3.02h0v15.83c0,.06-.07.1-.21.13s-.24.01-.29-.04h0l-13.59-16.85-.72-.84v12.75c0,1.44.2,2.44.61,3.02.41.58,1.12.86,2.13.86h0c.06,0,.09.09.09.25s-.03.25-.09.25h0c-.62,0-1.08-.01-1.39-.04h0l-1.73-.04-1.77.04c-.34.03-.82.04-1.44.04h0c-.09,0-.13-.09-.13-.25s.04-.25.13-.25h0c1.04,0,1.76-.29,2.15-.86.39-.58.59-1.58.59-3.02h0v-13.59c-.93-.84-1.82-1.27-2.66-1.27h0c-.06,0-.09-.09-.09-.25s.03-.25.09-.25h0l2.37.04,1.82-.04c.23,0,.38.05.48.15s.25.32.45.65h0c.31.51.63.97.97,1.39h0l11.4,14.32v-12.12c0-1.44-.2-2.44-.59-3.02s-1.1-.86-2.11-.86h0c-.09,0-.13-.09-.13-.25s.04-.25.13-.25h0l1.39.04c.68.06,1.25.09,1.73.09h0c.45,0,1.04-.03,1.77-.09h0l1.48-.04h0Zm18.79,14.15c0-.09.08-.13.23-.13s.23.04.23.13h0c-.2,2.03-.29,3.69-.29,4.99h0c0,.23-.04.38-.13.48s-.25.15-.51.15h-15.37c-.06,0-.09-.09-.09-.25s.03-.25.09-.25h0c.96,0,1.66-.07,2.11-.21.45-.14.75-.41.91-.83s.23-1.03.23-1.88h0v-12.92c0-.84-.08-1.46-.23-1.86-.15-.39-.46-.67-.91-.83s-1.16-.23-2.11-.23h0c-.06,0-.09-.09-.09-.25s.03-.25.09-.25h14.61c.28,0,.42.11.42.34h0l.04,2.62c.03.53.04,1.21.04,2.03h0c0,.09-.09.13-.25.13s-.25-.04-.25-.13h0c0-1.32-.38-2.39-1.14-3.21-.76-.82-1.76-1.22-3-1.22h-1.44c-1.07,0-1.85.08-2.34.23s-.83.43-1.01.83c-.19.39-.28,1.01-.28,1.86h0v5.78c2.87-.03,4.81-.1,5.83-.21,1.01-.11,1.57-.17,1.69-.17h0c.14,0,.21.29.21.89h0c0,.62-.07.93-.21.93h0c-.11,0-.68-.09-1.69-.25s-2.96-.27-5.83-.29h0v6.03c0,.82.09,1.43.28,1.84.19.41.53.69,1.03.84s1.28.23,2.32.23h2.45c1.1,0,2.04-.46,2.83-1.37.78-.92,1.29-2.11,1.52-3.57h0Z"/><path class="cls-2" d="m32.65,34.74h-5.31c-.09,0-.17-.13-.17-.3s.09-.3.17-.3h5.36c.09,0,.17.13.17.3,0,.13-.09.3-.21.3h0Z"/><path class="cls-2" d="m35.5,37.64h-10.37c-.17,0-.34-.13-.38-.3.04-.17.17-.3.38-.3h10.38c.17,0,.34.13.38.3-.04.17-.17.3-.38.3h0Z"/><path class="cls-2" d="m37.03,40.57h-15.26c-.3,0-.55-.13-.55-.3s.26-.3.55-.3h15.26c.3,0,.55.13.55.3,0,.13-.26.3-.55.3Z"/><path class="cls-2" d="m37.66,43.46h-15.86c-.3,0-.55-.13-.55-.3s.26-.3.55-.3h15.86c.3,0,.55.13.55.3s-.21.3-.55.3h0Z"/><path class="cls-2" d="m35.75,46.36h-13.06c-.26,0-.47-.13-.47-.3s.21-.3.47-.3h13.05c.26,0,.47.13.47.3s-.21.3-.47.3h0Z"/><path class="cls-2" d="m34.09,48.99c0,.17-.13.3-.3.3h-8.2c-.17,0-.3-.13-.3-.3s.13-.3.3-.3h8.25c.13,0,.25.13.25.3Z"/><path class="cls-2" d="m40.9,76.08v-5.31c0-3.91-1.92-7.66-5.23-10.21l-12.46-9.57c-3.32-2.55-5.23-6.25-5.23-10.17v8.38c0,3.91,1.92,7.66,5.23,10.17l12.46,9.57c2.34,1.74,4.04,4.25,4.81,7.1.29,1.02.42.04.42.04Z"/><path class="cls-2" d="m40.9,42.06v-6.47c0-3.91-1.92-7.66-5.23-10.21l-12.47-9.52c-2.3-1.7-3.95-4.13-4.76-6.89-.3-1.06-.47,0-.47,0v5.1c0,3.91,1.92,7.66,5.23,10.17l12.46,9.57c3.32,2.55,5.23,6.25,5.23,10.17v-1.92h.01Z"/><path class="cls-1" d="m40.9,36.49v6.47c0,3.91-1.92,7.66-5.23,10.21l-12.46,9.57c-2.43,1.83-4.13,4.43-4.9,7.36-.21.93-.34.04-.34.04v-5.53c0-3.91,1.92-7.66,5.23-10.21l12.46-9.57c3.32-2.55,5.23-6.29,5.23-10.21v1.87h0Z"/><path class="cls-1" d="m40.86,13.74v5.48c0,3.91-1.92,7.66-5.23,10.21l-12.46,9.61c-3.32,2.55-5.23,6.29-5.23,10.21v-8.38c0-3.91,1.92-7.66,5.23-10.21l12.46-9.57c2.38-1.79,4.13-4.38,4.89-7.31.21-.94.34-.04.34-.04h0Z"/><path class="cls-2" d="m67.41,64.72c.17.01.25.07.25.15-.25,1.77-.38,3.61-.38,5.5,0,.23-.05.38-.15.48s-.28.15-.53.15h-17.46c-.06,0-.09-.09-.09-.25s.03-.25.09-.25c1.1,0,1.91-.07,2.43-.21s.87-.41,1.06-.83c.18-.41.28-1.03.28-1.88v-19.57c0-.84-.09-1.47-.28-1.86s-.54-.67-1.06-.83-1.33-.23-2.43-.23c-.06,0-.09-.09-.09-.25s.03-.25.09-.25h16.74c.25,0,.38.13.38.38l.09,5.11c0,.09-.08.13-.23.13s-.23-.04-.23-.13c0-1.44-.38-2.58-1.14-3.42s-1.76-1.27-3-1.27h-2.92c-1.07,0-1.86.07-2.37.21-.51.14-.85.41-1.03.8s-.28,1.02-.28,1.86v8.58h5.58c1.29,0,2.2-.22,2.7-.65s.76-1.19.76-2.26c0-.06.09-.09.25-.09s.25.03.25.09l-.04,3.34c0,.82.01,1.42.04,1.82l.04,1.99c0,.06-.09.09-.25.09s-.25-.03-.25-.09c0-1.27-.27-2.16-.8-2.66s-1.48-.76-2.83-.76h-5.45v9.76c0,.82.09,1.41.28,1.8.18.38.52.64,1.02.78.49.14,1.29.21,2.39.21h3.89c1.13,0,2.09-.49,2.89-1.48.8-.99,1.31-2.28,1.54-3.89,0-.08.08-.12.25-.1h0Z"/><path class="cls-2" d="m89.66,53.03c-.18-.48-.5-.82-.95-1.02s-1.11-.29-1.99-.29c-.09,0-.13-.09-.13-.25s.04-.25.13-.25l1.61.04c.84.06,1.51.09,1.99.09.39,0,.99-.03,1.77-.09l1.52-.04c.06,0,.09.09.09.25s-.03.25-.09.25c-.79,0-1.38.1-1.77.29-.39.2-.67.54-.83,1.02s-.23,1.18-.23,2.11v8.07c0,2.62-.74,4.66-2.22,6.13s-3.46,2.2-5.94,2.2c-1.58,0-3.01-.32-4.29-.95s-2.3-1.54-3.04-2.73c-.74-1.18-1.12-2.59-1.12-4.23v-9c0-.84-.09-1.47-.25-1.86-.17-.39-.47-.67-.91-.83-.44-.15-1.13-.23-2.09-.23-.09,0-.13-.09-.13-.25s.04-.25.13-.25l1.86.04c1.02.06,1.8.09,2.37.09.7,0,1.57-.03,2.58-.09l1.77-.04c.09,0,.13.09.13.25s-.04.25-.13.25c-.93,0-1.62.09-2.07.25-.45.17-.76.46-.93.86-.17.41-.25,1.03-.25,1.88v7.82c0,2.65.69,4.61,2.07,5.88,1.38,1.27,3.13,1.9,5.24,1.9,2,0,3.57-.6,4.69-1.8,1.13-1.2,1.69-2.94,1.69-5.22v-8.16c0-.92-.09-1.62-.28-2.11h0Z"/><path class="cls-2" d="m117.11,70.75c0,.17-.03.25-.09.25h-4.44c-.51,0-1.44-.84-2.79-2.54-1.35-1.69-2.97-4.03-4.86-7.02-.73.11-1.32.17-1.77.17-.39,0-1.02-.03-1.86-.09v6.04c0,.87.08,1.51.23,1.9s.45.66.89.8,1.15.21,2.13.21c.09,0,.13.09.13.25s-.04.25-.13.25c-.76,0-1.35-.01-1.77-.04l-2.58-.04-2.45.04c-.45.03-1.08.04-1.9.04-.06,0-.09-.09-.09-.25s.03-.25.09-.25c.99,0,1.71-.07,2.16-.21s.76-.41.93-.83.25-1.03.25-1.88v-12.94c0-.84-.09-1.47-.25-1.86-.17-.39-.48-.67-.93-.83s-1.16-.23-2.11-.23c-.06,0-.09-.09-.09-.25s.03-.25.09-.25l1.9.04c1.02.06,1.82.09,2.41.09.53,0,1.02-.01,1.44-.04s.78-.06,1.06-.09c.87-.09,1.69-.13,2.45-.13,1.72,0,3.04.35,3.95,1.06.92.7,1.38,1.72,1.38,3.04,0,1.16-.32,2.21-.95,3.17s-1.48,1.73-2.56,2.32c1.61,2.59,2.95,4.58,4.04,5.96,1.08,1.38,2.09,2.37,3.02,2.96.93.59,1.93.89,3,.89.05,0,.08.08.08.25h-.01Zm-13.66-9.85c1.77,0,3.02-.38,3.72-1.16s1.06-1.91,1.06-3.4c0-3.13-1.41-4.69-4.23-4.69-1.13,0-1.86.24-2.2.72s-.51,1.27-.51,2.37v6.01c.54.11,1.26.17,2.16.17h0Z"/><path class="cls-2" d="m122.58,70.11c-1.54-.93-2.72-2.18-3.55-3.74-.83-1.56-1.25-3.26-1.25-5.09,0-2.2.58-4.1,1.73-5.71,1.16-1.61,2.61-2.82,4.37-3.64,1.76-.82,3.56-1.23,5.39-1.23,1.97,0,3.7.48,5.2,1.44,1.49.96,2.64,2.21,3.44,3.76.8,1.55,1.2,3.17,1.2,4.86,0,1.92-.51,3.7-1.52,5.35-1.02,1.65-2.39,2.96-4.12,3.93-1.73.97-3.61,1.46-5.64,1.46s-3.72-.46-5.26-1.39h0Zm12.01-1.77c1.39-1.55,2.09-3.7,2.09-6.47,0-1.89-.34-3.61-1.02-5.18-.68-1.56-1.67-2.81-3-3.74-1.32-.93-2.92-1.39-4.78-1.39-2.42,0-4.3.78-5.64,2.32-1.34,1.55-2.01,3.68-2.01,6.38,0,1.92.35,3.66,1.03,5.24.69,1.58,1.7,2.83,3.02,3.76s2.89,1.39,4.69,1.39c2.34,0,4.2-.77,5.6-2.32h0Z"/><path class="cls-2" d="m147.94,69.37c.21.41.61.7,1.18.86.58.17,1.5.25,2.77.25.09,0,.13.09.13.25s-.04.25-.13.25c-.99,0-1.75-.01-2.28-.04l-3.04-.04-2.5.04c-.45.03-1.07.04-1.86.04-.06,0-.09-.09-.09-.25s.03-.25.09-.25c.96,0,1.66-.07,2.11-.21s.75-.41.91-.83.23-1.03.23-1.88v-12.94c0-.84-.08-1.47-.23-1.86s-.46-.67-.91-.83c-.45-.15-1.16-.23-2.11-.23-.06,0-.09-.09-.09-.25s.03-.25.09-.25l1.86.04c1.02.06,1.83.09,2.45.09.48,0,.93-.01,1.38-.04.44-.03.83-.06,1.16-.09.84-.09,1.63-.13,2.37-.13,4.56,0,6.84,1.75,6.84,5.24,0,1.32-.35,2.44-1.03,3.36s-1.56,1.59-2.6,2.03-2.11.65-3.21.65c-.82,0-1.51-.06-2.07-.17-.09,0-.13-.07-.13-.21,0-.09.02-.17.06-.25s.09-.11.15-.09c.51.09,1.02.13,1.52.13,1.35,0,2.5-.4,3.44-1.2s1.41-1.94,1.41-3.4c0-1.77-.49-3.14-1.48-4.1s-2.3-1.44-3.93-1.44c-.79,0-1.37.06-1.73.17s-.63.38-.8.8-.25,1.13-.25,2.11v12.68c0,.89.11,1.55.32,1.95h0Z"/><path class="cls-2" d="m177.74,65.25c.15,0,.23.04.23.13-.2,2.03-.3,3.69-.3,4.99,0,.23-.04.38-.13.48s-.25.15-.51.15h-15.38c-.06,0-.09-.09-.09-.25s.03-.25.09-.25c.96,0,1.66-.07,2.11-.21s.75-.41.91-.83.23-1.03.23-1.88v-12.94c0-.84-.08-1.47-.23-1.86s-.46-.67-.91-.83-1.16-.23-2.11-.23c-.06,0-.09-.09-.09-.25s.03-.25.09-.25h14.62c.28,0,.42.11.42.34l.04,2.62c.03.54.04,1.21.04,2.03,0,.09-.09.13-.25.13s-.25-.04-.25-.13c0-1.32-.38-2.4-1.14-3.21s-1.76-1.23-3-1.23h-1.44c-1.07,0-1.85.08-2.34.23s-.83.43-1.02.83c-.19.39-.28,1.02-.28,1.86v5.79c2.87-.03,4.82-.1,5.83-.21,1.02-.11,1.58-.17,1.69-.17.14,0,.21.3.21.89s-.07.93-.21.93c-.11,0-.68-.09-1.69-.25s-2.96-.27-5.83-.29v6.04c0,.82.09,1.43.28,1.84.19.41.53.69,1.03.84s1.28.23,2.32.23h2.45c1.1,0,2.04-.46,2.83-1.38s1.29-2.11,1.52-3.57c0-.09.08-.13.23-.13h0Z"/></svg>