<?xml version="1.0" encoding="utf-8"?>
<!-- Generator: Adobe Illustrator 27.4.0, SVG Export Plug-In . SVG Version: 6.00 Build 0)  -->
<svg version="1.1" id="Layer_1" xmlns="http://www.w3.org/2000/svg" xmlns:xlink="http://www.w3.org/1999/xlink" x="0px" y="0px"
	 viewBox="0 0 200 100" style="enable-background:new 0 0 200 100;" xml:space="preserve">
<path d="M151.4,12c-9.9-0.2-19,3.4-25.9,9.5c-6.9,6.1-15.7,9.5-24.8,9.5h-1.4c-9.2,0-17.9-3.4-24.8-9.5c-6.9-6.1-16-9.7-25.9-9.5
	c-20.9,0.4-37.4,17.3-37.3,38.2C11.4,71.1,28.4,88,49.4,88c9.8,0,18.7-3.7,25.4-9.8c6.7-6.1,15.6-9.2,24.7-9.2h1.1
	c9.1,0,17.9,3.2,24.7,9.2c6.8,6.1,15.6,9.8,25.4,9.8c20.9,0,37.9-16.9,38-37.8C188.8,29.3,172.3,12.4,151.4,12L151.4,12z"/>
</svg>
