<?xml version="1.0" encoding="UTF-8"?><svg id="Layer_1" xmlns="http://www.w3.org/2000/svg" xmlns:xlink="http://www.w3.org/1999/xlink" viewBox="0 0 200 100"><defs><style>.cls-1{fill:url(#linear-gradient);}</style><linearGradient id="linear-gradient" x1="10.71" y1="50" x2="189.29" y2="50" gradientUnits="userSpaceOnUse"><stop offset="0" stop-color="#fee391"/><stop offset=".13" stop-color="#fec44f"/><stop offset=".25" stop-color="#f1605d"/><stop offset=".39" stop-color="#b93495"/><stop offset=".5" stop-color="#721e81"/><stop offset=".63" stop-color="#1d3b77"/><stop offset=".67" stop-color="#346a90"/><stop offset=".7" stop-color="#4792a6"/><stop offset=".73" stop-color="#53aab4"/><stop offset=".75" stop-color="#58b4b9"/><stop offset=".78" stop-color="#55b1a6"/><stop offset=".85" stop-color="#4faa75"/><stop offset=".89" stop-color="#4ca658"/><stop offset="1" stop-color="#c5ea99"/></linearGradient></defs><path class="cls-1" d="m151.77,11.71c-10.01-.2-19.16,3.45-26.09,9.55s-15.76,9.59-24.99,9.59h-1.38c-9.23,0-18.07-3.48-24.99-9.59-6.93-6.11-16.08-9.75-26.09-9.55-21.05.42-37.63,17.44-37.52,38.49.11,21.06,17.21,38.09,38.3,38.09,9.84,0,18.81-3.72,25.59-9.82,6.79-6.11,15.7-9.33,24.84-9.33h1.12c9.14,0,18.05,3.22,24.84,9.33,6.78,6.1,15.75,9.82,25.59,9.82,21.08,0,38.19-17.04,38.3-38.09.11-21.05-16.47-38.08-37.52-38.49Z"/></svg>